<?xml version="1.0" encoding="utf-8" standalone="no"?>
<!DOCTYPE svg PUBLIC "-//W3C//DTD SVG 1.1//EN"
  "http://www.w3.org/Graphics/SVG/1.1/DTD/svg11.dtd">
<svg xmlns:xlink="http://www.w3.org/1999/xlink" width="460.8pt" height="345.6pt" viewBox="0 0 460.8 345.6" xmlns="http://www.w3.org/2000/svg" version="1.1">
 <metadata>
  <rdf:RDF xmlns:dc="http://purl.org/dc/elements/1.1/" xmlns:cc="http://creativecommons.org/ns#" xmlns:rdf="http://www.w3.org/1999/02/22-rdf-syntax-ns#">
   <cc:Work>
    <dc:type rdf:resource="http://purl.org/dc/dcmitype/StillImage"/>
    <dc:date>2024-05-10T12:03:15.790249</dc:date>
    <dc:format>image/svg+xml</dc:format>
    <dc:creator>
     <cc:Agent>
      <dc:title>Matplotlib v3.8.3, https://matplotlib.org/</dc:title>
     </cc:Agent>
    </dc:creator>
   </cc:Work>
  </rdf:RDF>
 </metadata>
 <defs>
  <style type="text/css">*{stroke-linejoin: round; stroke-linecap: butt}</style>
 </defs>
 <g id="figure_1">
  <g id="patch_1">
   <path d="M 0 345.6 
L 460.8 345.6 
L 460.8 0 
L 0 0 
z
" style="fill: #ffffff"/>
  </g>
  <g id="axes_1">
   <g id="patch_2">
    <path d="M 57.6 307.584 
L 414.72 307.584 
L 414.72 41.472 
L 57.6 41.472 
z
" style="fill: #ffffff"/>
   </g>
   <g id="matplotlib.axis_1">
    <g id="xtick_1">
     <g id="line2d_1">
      <path d="M 73.832727 307.584 
L 73.832727 41.472 
" clip-path="url(#p5338d1d8f7)" style="fill: none; stroke: #b0b0b0; stroke-width: 0.8; stroke-linecap: square"/>
     </g>
     <g id="line2d_2">
      <defs>
       <path id="m3f90e9a44d" d="M 0 0 
L 0 3.5 
" style="stroke: #000000; stroke-width: 0.8"/>
      </defs>
      <g>
       <use xlink:href="#m3f90e9a44d" x="73.832727" y="307.584" style="stroke: #000000; stroke-width: 0.8"/>
      </g>
     </g>
     <g id="text_1">
      <!-- 0 -->
      <g transform="translate(70.651477 322.182437) scale(0.1 -0.1)">
       <defs>
        <path id="DejaVuSans-30" d="M 2034 4250 
Q 1547 4250 1301 3770 
Q 1056 3291 1056 2328 
Q 1056 1369 1301 889 
Q 1547 409 2034 409 
Q 2525 409 2770 889 
Q 3016 1369 3016 2328 
Q 3016 3291 2770 3770 
Q 2525 4250 2034 4250 
z
M 2034 4750 
Q 2819 4750 3233 4129 
Q 3647 3509 3647 2328 
Q 3647 1150 3233 529 
Q 2819 -91 2034 -91 
Q 1250 -91 836 529 
Q 422 1150 422 2328 
Q 422 3509 836 4129 
Q 1250 4750 2034 4750 
z
" transform="scale(0.015625)"/>
       </defs>
       <use xlink:href="#DejaVuSans-30"/>
      </g>
     </g>
    </g>
    <g id="xtick_2">
     <g id="line2d_3">
      <path d="M 114.465336 307.584 
L 114.465336 41.472 
" clip-path="url(#p5338d1d8f7)" style="fill: none; stroke: #b0b0b0; stroke-width: 0.8; stroke-linecap: square"/>
     </g>
     <g id="line2d_4">
      <g>
       <use xlink:href="#m3f90e9a44d" x="114.465336" y="307.584" style="stroke: #000000; stroke-width: 0.8"/>
      </g>
     </g>
     <g id="text_2">
      <!-- 100 -->
      <g transform="translate(104.921586 322.182437) scale(0.1 -0.1)">
       <defs>
        <path id="DejaVuSans-31" d="M 794 531 
L 1825 531 
L 1825 4091 
L 703 3866 
L 703 4441 
L 1819 4666 
L 2450 4666 
L 2450 531 
L 3481 531 
L 3481 0 
L 794 0 
L 794 531 
z
" transform="scale(0.015625)"/>
       </defs>
       <use xlink:href="#DejaVuSans-31"/>
       <use xlink:href="#DejaVuSans-30" x="63.623047"/>
       <use xlink:href="#DejaVuSans-30" x="127.246094"/>
      </g>
     </g>
    </g>
    <g id="xtick_3">
     <g id="line2d_5">
      <path d="M 155.097945 307.584 
L 155.097945 41.472 
" clip-path="url(#p5338d1d8f7)" style="fill: none; stroke: #b0b0b0; stroke-width: 0.8; stroke-linecap: square"/>
     </g>
     <g id="line2d_6">
      <g>
       <use xlink:href="#m3f90e9a44d" x="155.097945" y="307.584" style="stroke: #000000; stroke-width: 0.8"/>
      </g>
     </g>
     <g id="text_3">
      <!-- 200 -->
      <g transform="translate(145.554195 322.182437) scale(0.1 -0.1)">
       <defs>
        <path id="DejaVuSans-32" d="M 1228 531 
L 3431 531 
L 3431 0 
L 469 0 
L 469 531 
Q 828 903 1448 1529 
Q 2069 2156 2228 2338 
Q 2531 2678 2651 2914 
Q 2772 3150 2772 3378 
Q 2772 3750 2511 3984 
Q 2250 4219 1831 4219 
Q 1534 4219 1204 4116 
Q 875 4013 500 3803 
L 500 4441 
Q 881 4594 1212 4672 
Q 1544 4750 1819 4750 
Q 2544 4750 2975 4387 
Q 3406 4025 3406 3419 
Q 3406 3131 3298 2873 
Q 3191 2616 2906 2266 
Q 2828 2175 2409 1742 
Q 1991 1309 1228 531 
z
" transform="scale(0.015625)"/>
       </defs>
       <use xlink:href="#DejaVuSans-32"/>
       <use xlink:href="#DejaVuSans-30" x="63.623047"/>
       <use xlink:href="#DejaVuSans-30" x="127.246094"/>
      </g>
     </g>
    </g>
    <g id="xtick_4">
     <g id="line2d_7">
      <path d="M 195.730554 307.584 
L 195.730554 41.472 
" clip-path="url(#p5338d1d8f7)" style="fill: none; stroke: #b0b0b0; stroke-width: 0.8; stroke-linecap: square"/>
     </g>
     <g id="line2d_8">
      <g>
       <use xlink:href="#m3f90e9a44d" x="195.730554" y="307.584" style="stroke: #000000; stroke-width: 0.8"/>
      </g>
     </g>
     <g id="text_4">
      <!-- 300 -->
      <g transform="translate(186.186804 322.182437) scale(0.1 -0.1)">
       <defs>
        <path id="DejaVuSans-33" d="M 2597 2516 
Q 3050 2419 3304 2112 
Q 3559 1806 3559 1356 
Q 3559 666 3084 287 
Q 2609 -91 1734 -91 
Q 1441 -91 1130 -33 
Q 819 25 488 141 
L 488 750 
Q 750 597 1062 519 
Q 1375 441 1716 441 
Q 2309 441 2620 675 
Q 2931 909 2931 1356 
Q 2931 1769 2642 2001 
Q 2353 2234 1838 2234 
L 1294 2234 
L 1294 2753 
L 1863 2753 
Q 2328 2753 2575 2939 
Q 2822 3125 2822 3475 
Q 2822 3834 2567 4026 
Q 2313 4219 1838 4219 
Q 1578 4219 1281 4162 
Q 984 4106 628 3988 
L 628 4550 
Q 988 4650 1302 4700 
Q 1616 4750 1894 4750 
Q 2613 4750 3031 4423 
Q 3450 4097 3450 3541 
Q 3450 3153 3228 2886 
Q 3006 2619 2597 2516 
z
" transform="scale(0.015625)"/>
       </defs>
       <use xlink:href="#DejaVuSans-33"/>
       <use xlink:href="#DejaVuSans-30" x="63.623047"/>
       <use xlink:href="#DejaVuSans-30" x="127.246094"/>
      </g>
     </g>
    </g>
    <g id="xtick_5">
     <g id="line2d_9">
      <path d="M 236.363163 307.584 
L 236.363163 41.472 
" clip-path="url(#p5338d1d8f7)" style="fill: none; stroke: #b0b0b0; stroke-width: 0.8; stroke-linecap: square"/>
     </g>
     <g id="line2d_10">
      <g>
       <use xlink:href="#m3f90e9a44d" x="236.363163" y="307.584" style="stroke: #000000; stroke-width: 0.8"/>
      </g>
     </g>
     <g id="text_5">
      <!-- 400 -->
      <g transform="translate(226.819413 322.182437) scale(0.1 -0.1)">
       <defs>
        <path id="DejaVuSans-34" d="M 2419 4116 
L 825 1625 
L 2419 1625 
L 2419 4116 
z
M 2253 4666 
L 3047 4666 
L 3047 1625 
L 3713 1625 
L 3713 1100 
L 3047 1100 
L 3047 0 
L 2419 0 
L 2419 1100 
L 313 1100 
L 313 1709 
L 2253 4666 
z
" transform="scale(0.015625)"/>
       </defs>
       <use xlink:href="#DejaVuSans-34"/>
       <use xlink:href="#DejaVuSans-30" x="63.623047"/>
       <use xlink:href="#DejaVuSans-30" x="127.246094"/>
      </g>
     </g>
    </g>
    <g id="xtick_6">
     <g id="line2d_11">
      <path d="M 276.995772 307.584 
L 276.995772 41.472 
" clip-path="url(#p5338d1d8f7)" style="fill: none; stroke: #b0b0b0; stroke-width: 0.8; stroke-linecap: square"/>
     </g>
     <g id="line2d_12">
      <g>
       <use xlink:href="#m3f90e9a44d" x="276.995772" y="307.584" style="stroke: #000000; stroke-width: 0.8"/>
      </g>
     </g>
     <g id="text_6">
      <!-- 500 -->
      <g transform="translate(267.452022 322.182437) scale(0.1 -0.1)">
       <defs>
        <path id="DejaVuSans-35" d="M 691 4666 
L 3169 4666 
L 3169 4134 
L 1269 4134 
L 1269 2991 
Q 1406 3038 1543 3061 
Q 1681 3084 1819 3084 
Q 2600 3084 3056 2656 
Q 3513 2228 3513 1497 
Q 3513 744 3044 326 
Q 2575 -91 1722 -91 
Q 1428 -91 1123 -41 
Q 819 9 494 109 
L 494 744 
Q 775 591 1075 516 
Q 1375 441 1709 441 
Q 2250 441 2565 725 
Q 2881 1009 2881 1497 
Q 2881 1984 2565 2268 
Q 2250 2553 1709 2553 
Q 1456 2553 1204 2497 
Q 953 2441 691 2322 
L 691 4666 
z
" transform="scale(0.015625)"/>
       </defs>
       <use xlink:href="#DejaVuSans-35"/>
       <use xlink:href="#DejaVuSans-30" x="63.623047"/>
       <use xlink:href="#DejaVuSans-30" x="127.246094"/>
      </g>
     </g>
    </g>
    <g id="xtick_7">
     <g id="line2d_13">
      <path d="M 317.628381 307.584 
L 317.628381 41.472 
" clip-path="url(#p5338d1d8f7)" style="fill: none; stroke: #b0b0b0; stroke-width: 0.8; stroke-linecap: square"/>
     </g>
     <g id="line2d_14">
      <g>
       <use xlink:href="#m3f90e9a44d" x="317.628381" y="307.584" style="stroke: #000000; stroke-width: 0.8"/>
      </g>
     </g>
     <g id="text_7">
      <!-- 600 -->
      <g transform="translate(308.084631 322.182437) scale(0.1 -0.1)">
       <defs>
        <path id="DejaVuSans-36" d="M 2113 2584 
Q 1688 2584 1439 2293 
Q 1191 2003 1191 1497 
Q 1191 994 1439 701 
Q 1688 409 2113 409 
Q 2538 409 2786 701 
Q 3034 994 3034 1497 
Q 3034 2003 2786 2293 
Q 2538 2584 2113 2584 
z
M 3366 4563 
L 3366 3988 
Q 3128 4100 2886 4159 
Q 2644 4219 2406 4219 
Q 1781 4219 1451 3797 
Q 1122 3375 1075 2522 
Q 1259 2794 1537 2939 
Q 1816 3084 2150 3084 
Q 2853 3084 3261 2657 
Q 3669 2231 3669 1497 
Q 3669 778 3244 343 
Q 2819 -91 2113 -91 
Q 1303 -91 875 529 
Q 447 1150 447 2328 
Q 447 3434 972 4092 
Q 1497 4750 2381 4750 
Q 2619 4750 2861 4703 
Q 3103 4656 3366 4563 
z
" transform="scale(0.015625)"/>
       </defs>
       <use xlink:href="#DejaVuSans-36"/>
       <use xlink:href="#DejaVuSans-30" x="63.623047"/>
       <use xlink:href="#DejaVuSans-30" x="127.246094"/>
      </g>
     </g>
    </g>
    <g id="xtick_8">
     <g id="line2d_15">
      <path d="M 358.26099 307.584 
L 358.26099 41.472 
" clip-path="url(#p5338d1d8f7)" style="fill: none; stroke: #b0b0b0; stroke-width: 0.8; stroke-linecap: square"/>
     </g>
     <g id="line2d_16">
      <g>
       <use xlink:href="#m3f90e9a44d" x="358.26099" y="307.584" style="stroke: #000000; stroke-width: 0.8"/>
      </g>
     </g>
     <g id="text_8">
      <!-- 700 -->
      <g transform="translate(348.71724 322.182437) scale(0.1 -0.1)">
       <defs>
        <path id="DejaVuSans-37" d="M 525 4666 
L 3525 4666 
L 3525 4397 
L 1831 0 
L 1172 0 
L 2766 4134 
L 525 4134 
L 525 4666 
z
" transform="scale(0.015625)"/>
       </defs>
       <use xlink:href="#DejaVuSans-37"/>
       <use xlink:href="#DejaVuSans-30" x="63.623047"/>
       <use xlink:href="#DejaVuSans-30" x="127.246094"/>
      </g>
     </g>
    </g>
    <g id="xtick_9">
     <g id="line2d_17">
      <path d="M 398.893599 307.584 
L 398.893599 41.472 
" clip-path="url(#p5338d1d8f7)" style="fill: none; stroke: #b0b0b0; stroke-width: 0.8; stroke-linecap: square"/>
     </g>
     <g id="line2d_18">
      <g>
       <use xlink:href="#m3f90e9a44d" x="398.893599" y="307.584" style="stroke: #000000; stroke-width: 0.8"/>
      </g>
     </g>
     <g id="text_9">
      <!-- 800 -->
      <g transform="translate(389.349849 322.182437) scale(0.1 -0.1)">
       <defs>
        <path id="DejaVuSans-38" d="M 2034 2216 
Q 1584 2216 1326 1975 
Q 1069 1734 1069 1313 
Q 1069 891 1326 650 
Q 1584 409 2034 409 
Q 2484 409 2743 651 
Q 3003 894 3003 1313 
Q 3003 1734 2745 1975 
Q 2488 2216 2034 2216 
z
M 1403 2484 
Q 997 2584 770 2862 
Q 544 3141 544 3541 
Q 544 4100 942 4425 
Q 1341 4750 2034 4750 
Q 2731 4750 3128 4425 
Q 3525 4100 3525 3541 
Q 3525 3141 3298 2862 
Q 3072 2584 2669 2484 
Q 3125 2378 3379 2068 
Q 3634 1759 3634 1313 
Q 3634 634 3220 271 
Q 2806 -91 2034 -91 
Q 1263 -91 848 271 
Q 434 634 434 1313 
Q 434 1759 690 2068 
Q 947 2378 1403 2484 
z
M 1172 3481 
Q 1172 3119 1398 2916 
Q 1625 2713 2034 2713 
Q 2441 2713 2670 2916 
Q 2900 3119 2900 3481 
Q 2900 3844 2670 4047 
Q 2441 4250 2034 4250 
Q 1625 4250 1398 4047 
Q 1172 3844 1172 3481 
z
" transform="scale(0.015625)"/>
       </defs>
       <use xlink:href="#DejaVuSans-38"/>
       <use xlink:href="#DejaVuSans-30" x="63.623047"/>
       <use xlink:href="#DejaVuSans-30" x="127.246094"/>
      </g>
     </g>
    </g>
    <g id="xtick_10">
     <g id="line2d_19">
      <path d="M 65.706205 307.584 
L 65.706205 41.472 
" clip-path="url(#p5338d1d8f7)" style="fill: none; stroke: #dcdcdc; stroke-width: 0.5; stroke-linecap: square"/>
     </g>
     <g id="line2d_20">
      <defs>
       <path id="m125ba05e86" d="M 0 0 
L 0 2 
" style="stroke: #000000; stroke-width: 0.6"/>
      </defs>
      <g>
       <use xlink:href="#m125ba05e86" x="65.706205" y="307.584" style="stroke: #000000; stroke-width: 0.6"/>
      </g>
     </g>
    </g>
    <g id="xtick_11">
     <g id="line2d_21">
      <path d="M 81.959249 307.584 
L 81.959249 41.472 
" clip-path="url(#p5338d1d8f7)" style="fill: none; stroke: #dcdcdc; stroke-width: 0.5; stroke-linecap: square"/>
     </g>
     <g id="line2d_22">
      <g>
       <use xlink:href="#m125ba05e86" x="81.959249" y="307.584" style="stroke: #000000; stroke-width: 0.6"/>
      </g>
     </g>
    </g>
    <g id="xtick_12">
     <g id="line2d_23">
      <path d="M 90.085771 307.584 
L 90.085771 41.472 
" clip-path="url(#p5338d1d8f7)" style="fill: none; stroke: #dcdcdc; stroke-width: 0.5; stroke-linecap: square"/>
     </g>
     <g id="line2d_24">
      <g>
       <use xlink:href="#m125ba05e86" x="90.085771" y="307.584" style="stroke: #000000; stroke-width: 0.6"/>
      </g>
     </g>
    </g>
    <g id="xtick_13">
     <g id="line2d_25">
      <path d="M 98.212293 307.584 
L 98.212293 41.472 
" clip-path="url(#p5338d1d8f7)" style="fill: none; stroke: #dcdcdc; stroke-width: 0.5; stroke-linecap: square"/>
     </g>
     <g id="line2d_26">
      <g>
       <use xlink:href="#m125ba05e86" x="98.212293" y="307.584" style="stroke: #000000; stroke-width: 0.6"/>
      </g>
     </g>
    </g>
    <g id="xtick_14">
     <g id="line2d_27">
      <path d="M 106.338814 307.584 
L 106.338814 41.472 
" clip-path="url(#p5338d1d8f7)" style="fill: none; stroke: #dcdcdc; stroke-width: 0.5; stroke-linecap: square"/>
     </g>
     <g id="line2d_28">
      <g>
       <use xlink:href="#m125ba05e86" x="106.338814" y="307.584" style="stroke: #000000; stroke-width: 0.6"/>
      </g>
     </g>
    </g>
    <g id="xtick_15">
     <g id="line2d_29">
      <path d="M 122.591858 307.584 
L 122.591858 41.472 
" clip-path="url(#p5338d1d8f7)" style="fill: none; stroke: #dcdcdc; stroke-width: 0.5; stroke-linecap: square"/>
     </g>
     <g id="line2d_30">
      <g>
       <use xlink:href="#m125ba05e86" x="122.591858" y="307.584" style="stroke: #000000; stroke-width: 0.6"/>
      </g>
     </g>
    </g>
    <g id="xtick_16">
     <g id="line2d_31">
      <path d="M 130.71838 307.584 
L 130.71838 41.472 
" clip-path="url(#p5338d1d8f7)" style="fill: none; stroke: #dcdcdc; stroke-width: 0.5; stroke-linecap: square"/>
     </g>
     <g id="line2d_32">
      <g>
       <use xlink:href="#m125ba05e86" x="130.71838" y="307.584" style="stroke: #000000; stroke-width: 0.6"/>
      </g>
     </g>
    </g>
    <g id="xtick_17">
     <g id="line2d_33">
      <path d="M 138.844902 307.584 
L 138.844902 41.472 
" clip-path="url(#p5338d1d8f7)" style="fill: none; stroke: #dcdcdc; stroke-width: 0.5; stroke-linecap: square"/>
     </g>
     <g id="line2d_34">
      <g>
       <use xlink:href="#m125ba05e86" x="138.844902" y="307.584" style="stroke: #000000; stroke-width: 0.6"/>
      </g>
     </g>
    </g>
    <g id="xtick_18">
     <g id="line2d_35">
      <path d="M 146.971423 307.584 
L 146.971423 41.472 
" clip-path="url(#p5338d1d8f7)" style="fill: none; stroke: #dcdcdc; stroke-width: 0.5; stroke-linecap: square"/>
     </g>
     <g id="line2d_36">
      <g>
       <use xlink:href="#m125ba05e86" x="146.971423" y="307.584" style="stroke: #000000; stroke-width: 0.6"/>
      </g>
     </g>
    </g>
    <g id="xtick_19">
     <g id="line2d_37">
      <path d="M 163.224467 307.584 
L 163.224467 41.472 
" clip-path="url(#p5338d1d8f7)" style="fill: none; stroke: #dcdcdc; stroke-width: 0.5; stroke-linecap: square"/>
     </g>
     <g id="line2d_38">
      <g>
       <use xlink:href="#m125ba05e86" x="163.224467" y="307.584" style="stroke: #000000; stroke-width: 0.6"/>
      </g>
     </g>
    </g>
    <g id="xtick_20">
     <g id="line2d_39">
      <path d="M 171.350989 307.584 
L 171.350989 41.472 
" clip-path="url(#p5338d1d8f7)" style="fill: none; stroke: #dcdcdc; stroke-width: 0.5; stroke-linecap: square"/>
     </g>
     <g id="line2d_40">
      <g>
       <use xlink:href="#m125ba05e86" x="171.350989" y="307.584" style="stroke: #000000; stroke-width: 0.6"/>
      </g>
     </g>
    </g>
    <g id="xtick_21">
     <g id="line2d_41">
      <path d="M 179.477511 307.584 
L 179.477511 41.472 
" clip-path="url(#p5338d1d8f7)" style="fill: none; stroke: #dcdcdc; stroke-width: 0.5; stroke-linecap: square"/>
     </g>
     <g id="line2d_42">
      <g>
       <use xlink:href="#m125ba05e86" x="179.477511" y="307.584" style="stroke: #000000; stroke-width: 0.6"/>
      </g>
     </g>
    </g>
    <g id="xtick_22">
     <g id="line2d_43">
      <path d="M 187.604032 307.584 
L 187.604032 41.472 
" clip-path="url(#p5338d1d8f7)" style="fill: none; stroke: #dcdcdc; stroke-width: 0.5; stroke-linecap: square"/>
     </g>
     <g id="line2d_44">
      <g>
       <use xlink:href="#m125ba05e86" x="187.604032" y="307.584" style="stroke: #000000; stroke-width: 0.6"/>
      </g>
     </g>
    </g>
    <g id="xtick_23">
     <g id="line2d_45">
      <path d="M 203.857076 307.584 
L 203.857076 41.472 
" clip-path="url(#p5338d1d8f7)" style="fill: none; stroke: #dcdcdc; stroke-width: 0.5; stroke-linecap: square"/>
     </g>
     <g id="line2d_46">
      <g>
       <use xlink:href="#m125ba05e86" x="203.857076" y="307.584" style="stroke: #000000; stroke-width: 0.6"/>
      </g>
     </g>
    </g>
    <g id="xtick_24">
     <g id="line2d_47">
      <path d="M 211.983598 307.584 
L 211.983598 41.472 
" clip-path="url(#p5338d1d8f7)" style="fill: none; stroke: #dcdcdc; stroke-width: 0.5; stroke-linecap: square"/>
     </g>
     <g id="line2d_48">
      <g>
       <use xlink:href="#m125ba05e86" x="211.983598" y="307.584" style="stroke: #000000; stroke-width: 0.6"/>
      </g>
     </g>
    </g>
    <g id="xtick_25">
     <g id="line2d_49">
      <path d="M 220.110119 307.584 
L 220.110119 41.472 
" clip-path="url(#p5338d1d8f7)" style="fill: none; stroke: #dcdcdc; stroke-width: 0.5; stroke-linecap: square"/>
     </g>
     <g id="line2d_50">
      <g>
       <use xlink:href="#m125ba05e86" x="220.110119" y="307.584" style="stroke: #000000; stroke-width: 0.6"/>
      </g>
     </g>
    </g>
    <g id="xtick_26">
     <g id="line2d_51">
      <path d="M 228.236641 307.584 
L 228.236641 41.472 
" clip-path="url(#p5338d1d8f7)" style="fill: none; stroke: #dcdcdc; stroke-width: 0.5; stroke-linecap: square"/>
     </g>
     <g id="line2d_52">
      <g>
       <use xlink:href="#m125ba05e86" x="228.236641" y="307.584" style="stroke: #000000; stroke-width: 0.6"/>
      </g>
     </g>
    </g>
    <g id="xtick_27">
     <g id="line2d_53">
      <path d="M 244.489685 307.584 
L 244.489685 41.472 
" clip-path="url(#p5338d1d8f7)" style="fill: none; stroke: #dcdcdc; stroke-width: 0.5; stroke-linecap: square"/>
     </g>
     <g id="line2d_54">
      <g>
       <use xlink:href="#m125ba05e86" x="244.489685" y="307.584" style="stroke: #000000; stroke-width: 0.6"/>
      </g>
     </g>
    </g>
    <g id="xtick_28">
     <g id="line2d_55">
      <path d="M 252.616207 307.584 
L 252.616207 41.472 
" clip-path="url(#p5338d1d8f7)" style="fill: none; stroke: #dcdcdc; stroke-width: 0.5; stroke-linecap: square"/>
     </g>
     <g id="line2d_56">
      <g>
       <use xlink:href="#m125ba05e86" x="252.616207" y="307.584" style="stroke: #000000; stroke-width: 0.6"/>
      </g>
     </g>
    </g>
    <g id="xtick_29">
     <g id="line2d_57">
      <path d="M 260.742728 307.584 
L 260.742728 41.472 
" clip-path="url(#p5338d1d8f7)" style="fill: none; stroke: #dcdcdc; stroke-width: 0.5; stroke-linecap: square"/>
     </g>
     <g id="line2d_58">
      <g>
       <use xlink:href="#m125ba05e86" x="260.742728" y="307.584" style="stroke: #000000; stroke-width: 0.6"/>
      </g>
     </g>
    </g>
    <g id="xtick_30">
     <g id="line2d_59">
      <path d="M 268.86925 307.584 
L 268.86925 41.472 
" clip-path="url(#p5338d1d8f7)" style="fill: none; stroke: #dcdcdc; stroke-width: 0.5; stroke-linecap: square"/>
     </g>
     <g id="line2d_60">
      <g>
       <use xlink:href="#m125ba05e86" x="268.86925" y="307.584" style="stroke: #000000; stroke-width: 0.6"/>
      </g>
     </g>
    </g>
    <g id="xtick_31">
     <g id="line2d_61">
      <path d="M 285.122294 307.584 
L 285.122294 41.472 
" clip-path="url(#p5338d1d8f7)" style="fill: none; stroke: #dcdcdc; stroke-width: 0.5; stroke-linecap: square"/>
     </g>
     <g id="line2d_62">
      <g>
       <use xlink:href="#m125ba05e86" x="285.122294" y="307.584" style="stroke: #000000; stroke-width: 0.6"/>
      </g>
     </g>
    </g>
    <g id="xtick_32">
     <g id="line2d_63">
      <path d="M 293.248816 307.584 
L 293.248816 41.472 
" clip-path="url(#p5338d1d8f7)" style="fill: none; stroke: #dcdcdc; stroke-width: 0.5; stroke-linecap: square"/>
     </g>
     <g id="line2d_64">
      <g>
       <use xlink:href="#m125ba05e86" x="293.248816" y="307.584" style="stroke: #000000; stroke-width: 0.6"/>
      </g>
     </g>
    </g>
    <g id="xtick_33">
     <g id="line2d_65">
      <path d="M 301.375337 307.584 
L 301.375337 41.472 
" clip-path="url(#p5338d1d8f7)" style="fill: none; stroke: #dcdcdc; stroke-width: 0.5; stroke-linecap: square"/>
     </g>
     <g id="line2d_66">
      <g>
       <use xlink:href="#m125ba05e86" x="301.375337" y="307.584" style="stroke: #000000; stroke-width: 0.6"/>
      </g>
     </g>
    </g>
    <g id="xtick_34">
     <g id="line2d_67">
      <path d="M 309.501859 307.584 
L 309.501859 41.472 
" clip-path="url(#p5338d1d8f7)" style="fill: none; stroke: #dcdcdc; stroke-width: 0.5; stroke-linecap: square"/>
     </g>
     <g id="line2d_68">
      <g>
       <use xlink:href="#m125ba05e86" x="309.501859" y="307.584" style="stroke: #000000; stroke-width: 0.6"/>
      </g>
     </g>
    </g>
    <g id="xtick_35">
     <g id="line2d_69">
      <path d="M 325.754903 307.584 
L 325.754903 41.472 
" clip-path="url(#p5338d1d8f7)" style="fill: none; stroke: #dcdcdc; stroke-width: 0.5; stroke-linecap: square"/>
     </g>
     <g id="line2d_70">
      <g>
       <use xlink:href="#m125ba05e86" x="325.754903" y="307.584" style="stroke: #000000; stroke-width: 0.6"/>
      </g>
     </g>
    </g>
    <g id="xtick_36">
     <g id="line2d_71">
      <path d="M 333.881425 307.584 
L 333.881425 41.472 
" clip-path="url(#p5338d1d8f7)" style="fill: none; stroke: #dcdcdc; stroke-width: 0.5; stroke-linecap: square"/>
     </g>
     <g id="line2d_72">
      <g>
       <use xlink:href="#m125ba05e86" x="333.881425" y="307.584" style="stroke: #000000; stroke-width: 0.6"/>
      </g>
     </g>
    </g>
    <g id="xtick_37">
     <g id="line2d_73">
      <path d="M 342.007946 307.584 
L 342.007946 41.472 
" clip-path="url(#p5338d1d8f7)" style="fill: none; stroke: #dcdcdc; stroke-width: 0.5; stroke-linecap: square"/>
     </g>
     <g id="line2d_74">
      <g>
       <use xlink:href="#m125ba05e86" x="342.007946" y="307.584" style="stroke: #000000; stroke-width: 0.6"/>
      </g>
     </g>
    </g>
    <g id="xtick_38">
     <g id="line2d_75">
      <path d="M 350.134468 307.584 
L 350.134468 41.472 
" clip-path="url(#p5338d1d8f7)" style="fill: none; stroke: #dcdcdc; stroke-width: 0.5; stroke-linecap: square"/>
     </g>
     <g id="line2d_76">
      <g>
       <use xlink:href="#m125ba05e86" x="350.134468" y="307.584" style="stroke: #000000; stroke-width: 0.6"/>
      </g>
     </g>
    </g>
    <g id="xtick_39">
     <g id="line2d_77">
      <path d="M 366.387512 307.584 
L 366.387512 41.472 
" clip-path="url(#p5338d1d8f7)" style="fill: none; stroke: #dcdcdc; stroke-width: 0.5; stroke-linecap: square"/>
     </g>
     <g id="line2d_78">
      <g>
       <use xlink:href="#m125ba05e86" x="366.387512" y="307.584" style="stroke: #000000; stroke-width: 0.6"/>
      </g>
     </g>
    </g>
    <g id="xtick_40">
     <g id="line2d_79">
      <path d="M 374.514033 307.584 
L 374.514033 41.472 
" clip-path="url(#p5338d1d8f7)" style="fill: none; stroke: #dcdcdc; stroke-width: 0.5; stroke-linecap: square"/>
     </g>
     <g id="line2d_80">
      <g>
       <use xlink:href="#m125ba05e86" x="374.514033" y="307.584" style="stroke: #000000; stroke-width: 0.6"/>
      </g>
     </g>
    </g>
    <g id="xtick_41">
     <g id="line2d_81">
      <path d="M 382.640555 307.584 
L 382.640555 41.472 
" clip-path="url(#p5338d1d8f7)" style="fill: none; stroke: #dcdcdc; stroke-width: 0.5; stroke-linecap: square"/>
     </g>
     <g id="line2d_82">
      <g>
       <use xlink:href="#m125ba05e86" x="382.640555" y="307.584" style="stroke: #000000; stroke-width: 0.6"/>
      </g>
     </g>
    </g>
    <g id="xtick_42">
     <g id="line2d_83">
      <path d="M 390.767077 307.584 
L 390.767077 41.472 
" clip-path="url(#p5338d1d8f7)" style="fill: none; stroke: #dcdcdc; stroke-width: 0.5; stroke-linecap: square"/>
     </g>
     <g id="line2d_84">
      <g>
       <use xlink:href="#m125ba05e86" x="390.767077" y="307.584" style="stroke: #000000; stroke-width: 0.6"/>
      </g>
     </g>
    </g>
    <g id="xtick_43">
     <g id="line2d_85">
      <path d="M 407.020121 307.584 
L 407.020121 41.472 
" clip-path="url(#p5338d1d8f7)" style="fill: none; stroke: #dcdcdc; stroke-width: 0.5; stroke-linecap: square"/>
     </g>
     <g id="line2d_86">
      <g>
       <use xlink:href="#m125ba05e86" x="407.020121" y="307.584" style="stroke: #000000; stroke-width: 0.6"/>
      </g>
     </g>
    </g>
    <g id="text_10">
     <!-- x100 episodes -->
     <g transform="translate(199.908437 335.860562) scale(0.1 -0.1)">
      <defs>
       <path id="DejaVuSans-78" d="M 3513 3500 
L 2247 1797 
L 3578 0 
L 2900 0 
L 1881 1375 
L 863 0 
L 184 0 
L 1544 1831 
L 300 3500 
L 978 3500 
L 1906 2253 
L 2834 3500 
L 3513 3500 
z
" transform="scale(0.015625)"/>
       <path id="DejaVuSans-20" transform="scale(0.015625)"/>
       <path id="DejaVuSans-65" d="M 3597 1894 
L 3597 1613 
L 953 1613 
Q 991 1019 1311 708 
Q 1631 397 2203 397 
Q 2534 397 2845 478 
Q 3156 559 3463 722 
L 3463 178 
Q 3153 47 2828 -22 
Q 2503 -91 2169 -91 
Q 1331 -91 842 396 
Q 353 884 353 1716 
Q 353 2575 817 3079 
Q 1281 3584 2069 3584 
Q 2775 3584 3186 3129 
Q 3597 2675 3597 1894 
z
M 3022 2063 
Q 3016 2534 2758 2815 
Q 2500 3097 2075 3097 
Q 1594 3097 1305 2825 
Q 1016 2553 972 2059 
L 3022 2063 
z
" transform="scale(0.015625)"/>
       <path id="DejaVuSans-70" d="M 1159 525 
L 1159 -1331 
L 581 -1331 
L 581 3500 
L 1159 3500 
L 1159 2969 
Q 1341 3281 1617 3432 
Q 1894 3584 2278 3584 
Q 2916 3584 3314 3078 
Q 3713 2572 3713 1747 
Q 3713 922 3314 415 
Q 2916 -91 2278 -91 
Q 1894 -91 1617 61 
Q 1341 213 1159 525 
z
M 3116 1747 
Q 3116 2381 2855 2742 
Q 2594 3103 2138 3103 
Q 1681 3103 1420 2742 
Q 1159 2381 1159 1747 
Q 1159 1113 1420 752 
Q 1681 391 2138 391 
Q 2594 391 2855 752 
Q 3116 1113 3116 1747 
z
" transform="scale(0.015625)"/>
       <path id="DejaVuSans-69" d="M 603 3500 
L 1178 3500 
L 1178 0 
L 603 0 
L 603 3500 
z
M 603 4863 
L 1178 4863 
L 1178 4134 
L 603 4134 
L 603 4863 
z
" transform="scale(0.015625)"/>
       <path id="DejaVuSans-73" d="M 2834 3397 
L 2834 2853 
Q 2591 2978 2328 3040 
Q 2066 3103 1784 3103 
Q 1356 3103 1142 2972 
Q 928 2841 928 2578 
Q 928 2378 1081 2264 
Q 1234 2150 1697 2047 
L 1894 2003 
Q 2506 1872 2764 1633 
Q 3022 1394 3022 966 
Q 3022 478 2636 193 
Q 2250 -91 1575 -91 
Q 1294 -91 989 -36 
Q 684 19 347 128 
L 347 722 
Q 666 556 975 473 
Q 1284 391 1588 391 
Q 1994 391 2212 530 
Q 2431 669 2431 922 
Q 2431 1156 2273 1281 
Q 2116 1406 1581 1522 
L 1381 1569 
Q 847 1681 609 1914 
Q 372 2147 372 2553 
Q 372 3047 722 3315 
Q 1072 3584 1716 3584 
Q 2034 3584 2315 3537 
Q 2597 3491 2834 3397 
z
" transform="scale(0.015625)"/>
       <path id="DejaVuSans-6f" d="M 1959 3097 
Q 1497 3097 1228 2736 
Q 959 2375 959 1747 
Q 959 1119 1226 758 
Q 1494 397 1959 397 
Q 2419 397 2687 759 
Q 2956 1122 2956 1747 
Q 2956 2369 2687 2733 
Q 2419 3097 1959 3097 
z
M 1959 3584 
Q 2709 3584 3137 3096 
Q 3566 2609 3566 1747 
Q 3566 888 3137 398 
Q 2709 -91 1959 -91 
Q 1206 -91 779 398 
Q 353 888 353 1747 
Q 353 2609 779 3096 
Q 1206 3584 1959 3584 
z
" transform="scale(0.015625)"/>
       <path id="DejaVuSans-64" d="M 2906 2969 
L 2906 4863 
L 3481 4863 
L 3481 0 
L 2906 0 
L 2906 525 
Q 2725 213 2448 61 
Q 2172 -91 1784 -91 
Q 1150 -91 751 415 
Q 353 922 353 1747 
Q 353 2572 751 3078 
Q 1150 3584 1784 3584 
Q 2172 3584 2448 3432 
Q 2725 3281 2906 2969 
z
M 947 1747 
Q 947 1113 1208 752 
Q 1469 391 1925 391 
Q 2381 391 2643 752 
Q 2906 1113 2906 1747 
Q 2906 2381 2643 2742 
Q 2381 3103 1925 3103 
Q 1469 3103 1208 2742 
Q 947 2381 947 1747 
z
" transform="scale(0.015625)"/>
      </defs>
      <use xlink:href="#DejaVuSans-78"/>
      <use xlink:href="#DejaVuSans-31" x="59.179688"/>
      <use xlink:href="#DejaVuSans-30" x="122.802734"/>
      <use xlink:href="#DejaVuSans-30" x="186.425781"/>
      <use xlink:href="#DejaVuSans-20" x="250.048828"/>
      <use xlink:href="#DejaVuSans-65" x="281.835938"/>
      <use xlink:href="#DejaVuSans-70" x="343.359375"/>
      <use xlink:href="#DejaVuSans-69" x="406.835938"/>
      <use xlink:href="#DejaVuSans-73" x="434.619141"/>
      <use xlink:href="#DejaVuSans-6f" x="486.71875"/>
      <use xlink:href="#DejaVuSans-64" x="547.900391"/>
      <use xlink:href="#DejaVuSans-65" x="611.376953"/>
      <use xlink:href="#DejaVuSans-73" x="672.900391"/>
     </g>
    </g>
   </g>
   <g id="matplotlib.axis_2">
    <g id="ytick_1">
     <g id="line2d_87">
      <path d="M 57.6 301.152995 
L 414.72 301.152995 
" clip-path="url(#p5338d1d8f7)" style="fill: none; stroke: #b0b0b0; stroke-width: 0.8; stroke-linecap: square"/>
     </g>
     <g id="line2d_88">
      <defs>
       <path id="m22ca238fd5" d="M 0 0 
L -3.5 0 
" style="stroke: #000000; stroke-width: 0.8"/>
      </defs>
      <g>
       <use xlink:href="#m22ca238fd5" x="57.6" y="301.152995" style="stroke: #000000; stroke-width: 0.8"/>
      </g>
     </g>
     <g id="text_11">
      <!-- 0.000 -->
      <g transform="translate(21.971875 304.952213) scale(0.1 -0.1)">
       <defs>
        <path id="DejaVuSans-2e" d="M 684 794 
L 1344 794 
L 1344 0 
L 684 0 
L 684 794 
z
" transform="scale(0.015625)"/>
       </defs>
       <use xlink:href="#DejaVuSans-30"/>
       <use xlink:href="#DejaVuSans-2e" x="63.623047"/>
       <use xlink:href="#DejaVuSans-30" x="95.410156"/>
       <use xlink:href="#DejaVuSans-30" x="159.033203"/>
       <use xlink:href="#DejaVuSans-30" x="222.65625"/>
      </g>
     </g>
    </g>
    <g id="ytick_2">
     <g id="line2d_89">
      <path d="M 57.6 265.350006 
L 414.72 265.350006 
" clip-path="url(#p5338d1d8f7)" style="fill: none; stroke: #b0b0b0; stroke-width: 0.8; stroke-linecap: square"/>
     </g>
     <g id="line2d_90">
      <g>
       <use xlink:href="#m22ca238fd5" x="57.6" y="265.350006" style="stroke: #000000; stroke-width: 0.8"/>
      </g>
     </g>
     <g id="text_12">
      <!-- 0.025 -->
      <g transform="translate(21.971875 269.149224) scale(0.1 -0.1)">
       <use xlink:href="#DejaVuSans-30"/>
       <use xlink:href="#DejaVuSans-2e" x="63.623047"/>
       <use xlink:href="#DejaVuSans-30" x="95.410156"/>
       <use xlink:href="#DejaVuSans-32" x="159.033203"/>
       <use xlink:href="#DejaVuSans-35" x="222.65625"/>
      </g>
     </g>
    </g>
    <g id="ytick_3">
     <g id="line2d_91">
      <path d="M 57.6 229.547017 
L 414.72 229.547017 
" clip-path="url(#p5338d1d8f7)" style="fill: none; stroke: #b0b0b0; stroke-width: 0.8; stroke-linecap: square"/>
     </g>
     <g id="line2d_92">
      <g>
       <use xlink:href="#m22ca238fd5" x="57.6" y="229.547017" style="stroke: #000000; stroke-width: 0.8"/>
      </g>
     </g>
     <g id="text_13">
      <!-- 0.050 -->
      <g transform="translate(21.971875 233.346236) scale(0.1 -0.1)">
       <use xlink:href="#DejaVuSans-30"/>
       <use xlink:href="#DejaVuSans-2e" x="63.623047"/>
       <use xlink:href="#DejaVuSans-30" x="95.410156"/>
       <use xlink:href="#DejaVuSans-35" x="159.033203"/>
       <use xlink:href="#DejaVuSans-30" x="222.65625"/>
      </g>
     </g>
    </g>
    <g id="ytick_4">
     <g id="line2d_93">
      <path d="M 57.6 193.744028 
L 414.72 193.744028 
" clip-path="url(#p5338d1d8f7)" style="fill: none; stroke: #b0b0b0; stroke-width: 0.8; stroke-linecap: square"/>
     </g>
     <g id="line2d_94">
      <g>
       <use xlink:href="#m22ca238fd5" x="57.6" y="193.744028" style="stroke: #000000; stroke-width: 0.8"/>
      </g>
     </g>
     <g id="text_14">
      <!-- 0.075 -->
      <g transform="translate(21.971875 197.543247) scale(0.1 -0.1)">
       <use xlink:href="#DejaVuSans-30"/>
       <use xlink:href="#DejaVuSans-2e" x="63.623047"/>
       <use xlink:href="#DejaVuSans-30" x="95.410156"/>
       <use xlink:href="#DejaVuSans-37" x="159.033203"/>
       <use xlink:href="#DejaVuSans-35" x="222.65625"/>
      </g>
     </g>
    </g>
    <g id="ytick_5">
     <g id="line2d_95">
      <path d="M 57.6 157.941039 
L 414.72 157.941039 
" clip-path="url(#p5338d1d8f7)" style="fill: none; stroke: #b0b0b0; stroke-width: 0.8; stroke-linecap: square"/>
     </g>
     <g id="line2d_96">
      <g>
       <use xlink:href="#m22ca238fd5" x="57.6" y="157.941039" style="stroke: #000000; stroke-width: 0.8"/>
      </g>
     </g>
     <g id="text_15">
      <!-- 0.100 -->
      <g transform="translate(21.971875 161.740258) scale(0.1 -0.1)">
       <use xlink:href="#DejaVuSans-30"/>
       <use xlink:href="#DejaVuSans-2e" x="63.623047"/>
       <use xlink:href="#DejaVuSans-31" x="95.410156"/>
       <use xlink:href="#DejaVuSans-30" x="159.033203"/>
       <use xlink:href="#DejaVuSans-30" x="222.65625"/>
      </g>
     </g>
    </g>
    <g id="ytick_6">
     <g id="line2d_97">
      <path d="M 57.6 122.13805 
L 414.72 122.13805 
" clip-path="url(#p5338d1d8f7)" style="fill: none; stroke: #b0b0b0; stroke-width: 0.8; stroke-linecap: square"/>
     </g>
     <g id="line2d_98">
      <g>
       <use xlink:href="#m22ca238fd5" x="57.6" y="122.13805" style="stroke: #000000; stroke-width: 0.8"/>
      </g>
     </g>
     <g id="text_16">
      <!-- 0.125 -->
      <g transform="translate(21.971875 125.937269) scale(0.1 -0.1)">
       <use xlink:href="#DejaVuSans-30"/>
       <use xlink:href="#DejaVuSans-2e" x="63.623047"/>
       <use xlink:href="#DejaVuSans-31" x="95.410156"/>
       <use xlink:href="#DejaVuSans-32" x="159.033203"/>
       <use xlink:href="#DejaVuSans-35" x="222.65625"/>
      </g>
     </g>
    </g>
    <g id="ytick_7">
     <g id="line2d_99">
      <path d="M 57.6 86.335062 
L 414.72 86.335062 
" clip-path="url(#p5338d1d8f7)" style="fill: none; stroke: #b0b0b0; stroke-width: 0.8; stroke-linecap: square"/>
     </g>
     <g id="line2d_100">
      <g>
       <use xlink:href="#m22ca238fd5" x="57.6" y="86.335062" style="stroke: #000000; stroke-width: 0.8"/>
      </g>
     </g>
     <g id="text_17">
      <!-- 0.150 -->
      <g transform="translate(21.971875 90.13428) scale(0.1 -0.1)">
       <use xlink:href="#DejaVuSans-30"/>
       <use xlink:href="#DejaVuSans-2e" x="63.623047"/>
       <use xlink:href="#DejaVuSans-31" x="95.410156"/>
       <use xlink:href="#DejaVuSans-35" x="159.033203"/>
       <use xlink:href="#DejaVuSans-30" x="222.65625"/>
      </g>
     </g>
    </g>
    <g id="ytick_8">
     <g id="line2d_101">
      <path d="M 57.6 50.532073 
L 414.72 50.532073 
" clip-path="url(#p5338d1d8f7)" style="fill: none; stroke: #b0b0b0; stroke-width: 0.8; stroke-linecap: square"/>
     </g>
     <g id="line2d_102">
      <g>
       <use xlink:href="#m22ca238fd5" x="57.6" y="50.532073" style="stroke: #000000; stroke-width: 0.8"/>
      </g>
     </g>
     <g id="text_18">
      <!-- 0.175 -->
      <g transform="translate(21.971875 54.331291) scale(0.1 -0.1)">
       <use xlink:href="#DejaVuSans-30"/>
       <use xlink:href="#DejaVuSans-2e" x="63.623047"/>
       <use xlink:href="#DejaVuSans-31" x="95.410156"/>
       <use xlink:href="#DejaVuSans-37" x="159.033203"/>
       <use xlink:href="#DejaVuSans-35" x="222.65625"/>
      </g>
     </g>
    </g>
    <g id="ytick_9">
     <g id="line2d_103">
      <path d="M 57.6 293.992397 
L 414.72 293.992397 
" clip-path="url(#p5338d1d8f7)" style="fill: none; stroke: #dcdcdc; stroke-width: 0.5; stroke-linecap: square"/>
     </g>
     <g id="line2d_104">
      <defs>
       <path id="m31b9a4fc11" d="M 0 0 
L -2 0 
" style="stroke: #000000; stroke-width: 0.6"/>
      </defs>
      <g>
       <use xlink:href="#m31b9a4fc11" x="57.6" y="293.992397" style="stroke: #000000; stroke-width: 0.6"/>
      </g>
     </g>
    </g>
    <g id="ytick_10">
     <g id="line2d_105">
      <path d="M 57.6 286.831799 
L 414.72 286.831799 
" clip-path="url(#p5338d1d8f7)" style="fill: none; stroke: #dcdcdc; stroke-width: 0.5; stroke-linecap: square"/>
     </g>
     <g id="line2d_106">
      <g>
       <use xlink:href="#m31b9a4fc11" x="57.6" y="286.831799" style="stroke: #000000; stroke-width: 0.6"/>
      </g>
     </g>
    </g>
    <g id="ytick_11">
     <g id="line2d_107">
      <path d="M 57.6 279.671201 
L 414.72 279.671201 
" clip-path="url(#p5338d1d8f7)" style="fill: none; stroke: #dcdcdc; stroke-width: 0.5; stroke-linecap: square"/>
     </g>
     <g id="line2d_108">
      <g>
       <use xlink:href="#m31b9a4fc11" x="57.6" y="279.671201" style="stroke: #000000; stroke-width: 0.6"/>
      </g>
     </g>
    </g>
    <g id="ytick_12">
     <g id="line2d_109">
      <path d="M 57.6 272.510604 
L 414.72 272.510604 
" clip-path="url(#p5338d1d8f7)" style="fill: none; stroke: #dcdcdc; stroke-width: 0.5; stroke-linecap: square"/>
     </g>
     <g id="line2d_110">
      <g>
       <use xlink:href="#m31b9a4fc11" x="57.6" y="272.510604" style="stroke: #000000; stroke-width: 0.6"/>
      </g>
     </g>
    </g>
    <g id="ytick_13">
     <g id="line2d_111">
      <path d="M 57.6 258.189408 
L 414.72 258.189408 
" clip-path="url(#p5338d1d8f7)" style="fill: none; stroke: #dcdcdc; stroke-width: 0.5; stroke-linecap: square"/>
     </g>
     <g id="line2d_112">
      <g>
       <use xlink:href="#m31b9a4fc11" x="57.6" y="258.189408" style="stroke: #000000; stroke-width: 0.6"/>
      </g>
     </g>
    </g>
    <g id="ytick_14">
     <g id="line2d_113">
      <path d="M 57.6 251.02881 
L 414.72 251.02881 
" clip-path="url(#p5338d1d8f7)" style="fill: none; stroke: #dcdcdc; stroke-width: 0.5; stroke-linecap: square"/>
     </g>
     <g id="line2d_114">
      <g>
       <use xlink:href="#m31b9a4fc11" x="57.6" y="251.02881" style="stroke: #000000; stroke-width: 0.6"/>
      </g>
     </g>
    </g>
    <g id="ytick_15">
     <g id="line2d_115">
      <path d="M 57.6 243.868212 
L 414.72 243.868212 
" clip-path="url(#p5338d1d8f7)" style="fill: none; stroke: #dcdcdc; stroke-width: 0.5; stroke-linecap: square"/>
     </g>
     <g id="line2d_116">
      <g>
       <use xlink:href="#m31b9a4fc11" x="57.6" y="243.868212" style="stroke: #000000; stroke-width: 0.6"/>
      </g>
     </g>
    </g>
    <g id="ytick_16">
     <g id="line2d_117">
      <path d="M 57.6 236.707615 
L 414.72 236.707615 
" clip-path="url(#p5338d1d8f7)" style="fill: none; stroke: #dcdcdc; stroke-width: 0.5; stroke-linecap: square"/>
     </g>
     <g id="line2d_118">
      <g>
       <use xlink:href="#m31b9a4fc11" x="57.6" y="236.707615" style="stroke: #000000; stroke-width: 0.6"/>
      </g>
     </g>
    </g>
    <g id="ytick_17">
     <g id="line2d_119">
      <path d="M 57.6 222.386419 
L 414.72 222.386419 
" clip-path="url(#p5338d1d8f7)" style="fill: none; stroke: #dcdcdc; stroke-width: 0.5; stroke-linecap: square"/>
     </g>
     <g id="line2d_120">
      <g>
       <use xlink:href="#m31b9a4fc11" x="57.6" y="222.386419" style="stroke: #000000; stroke-width: 0.6"/>
      </g>
     </g>
    </g>
    <g id="ytick_18">
     <g id="line2d_121">
      <path d="M 57.6 215.225821 
L 414.72 215.225821 
" clip-path="url(#p5338d1d8f7)" style="fill: none; stroke: #dcdcdc; stroke-width: 0.5; stroke-linecap: square"/>
     </g>
     <g id="line2d_122">
      <g>
       <use xlink:href="#m31b9a4fc11" x="57.6" y="215.225821" style="stroke: #000000; stroke-width: 0.6"/>
      </g>
     </g>
    </g>
    <g id="ytick_19">
     <g id="line2d_123">
      <path d="M 57.6 208.065224 
L 414.72 208.065224 
" clip-path="url(#p5338d1d8f7)" style="fill: none; stroke: #dcdcdc; stroke-width: 0.5; stroke-linecap: square"/>
     </g>
     <g id="line2d_124">
      <g>
       <use xlink:href="#m31b9a4fc11" x="57.6" y="208.065224" style="stroke: #000000; stroke-width: 0.6"/>
      </g>
     </g>
    </g>
    <g id="ytick_20">
     <g id="line2d_125">
      <path d="M 57.6 200.904626 
L 414.72 200.904626 
" clip-path="url(#p5338d1d8f7)" style="fill: none; stroke: #dcdcdc; stroke-width: 0.5; stroke-linecap: square"/>
     </g>
     <g id="line2d_126">
      <g>
       <use xlink:href="#m31b9a4fc11" x="57.6" y="200.904626" style="stroke: #000000; stroke-width: 0.6"/>
      </g>
     </g>
    </g>
    <g id="ytick_21">
     <g id="line2d_127">
      <path d="M 57.6 186.58343 
L 414.72 186.58343 
" clip-path="url(#p5338d1d8f7)" style="fill: none; stroke: #dcdcdc; stroke-width: 0.5; stroke-linecap: square"/>
     </g>
     <g id="line2d_128">
      <g>
       <use xlink:href="#m31b9a4fc11" x="57.6" y="186.58343" style="stroke: #000000; stroke-width: 0.6"/>
      </g>
     </g>
    </g>
    <g id="ytick_22">
     <g id="line2d_129">
      <path d="M 57.6 179.422833 
L 414.72 179.422833 
" clip-path="url(#p5338d1d8f7)" style="fill: none; stroke: #dcdcdc; stroke-width: 0.5; stroke-linecap: square"/>
     </g>
     <g id="line2d_130">
      <g>
       <use xlink:href="#m31b9a4fc11" x="57.6" y="179.422833" style="stroke: #000000; stroke-width: 0.6"/>
      </g>
     </g>
    </g>
    <g id="ytick_23">
     <g id="line2d_131">
      <path d="M 57.6 172.262235 
L 414.72 172.262235 
" clip-path="url(#p5338d1d8f7)" style="fill: none; stroke: #dcdcdc; stroke-width: 0.5; stroke-linecap: square"/>
     </g>
     <g id="line2d_132">
      <g>
       <use xlink:href="#m31b9a4fc11" x="57.6" y="172.262235" style="stroke: #000000; stroke-width: 0.6"/>
      </g>
     </g>
    </g>
    <g id="ytick_24">
     <g id="line2d_133">
      <path d="M 57.6 165.101637 
L 414.72 165.101637 
" clip-path="url(#p5338d1d8f7)" style="fill: none; stroke: #dcdcdc; stroke-width: 0.5; stroke-linecap: square"/>
     </g>
     <g id="line2d_134">
      <g>
       <use xlink:href="#m31b9a4fc11" x="57.6" y="165.101637" style="stroke: #000000; stroke-width: 0.6"/>
      </g>
     </g>
    </g>
    <g id="ytick_25">
     <g id="line2d_135">
      <path d="M 57.6 150.780441 
L 414.72 150.780441 
" clip-path="url(#p5338d1d8f7)" style="fill: none; stroke: #dcdcdc; stroke-width: 0.5; stroke-linecap: square"/>
     </g>
     <g id="line2d_136">
      <g>
       <use xlink:href="#m31b9a4fc11" x="57.6" y="150.780441" style="stroke: #000000; stroke-width: 0.6"/>
      </g>
     </g>
    </g>
    <g id="ytick_26">
     <g id="line2d_137">
      <path d="M 57.6 143.619844 
L 414.72 143.619844 
" clip-path="url(#p5338d1d8f7)" style="fill: none; stroke: #dcdcdc; stroke-width: 0.5; stroke-linecap: square"/>
     </g>
     <g id="line2d_138">
      <g>
       <use xlink:href="#m31b9a4fc11" x="57.6" y="143.619844" style="stroke: #000000; stroke-width: 0.6"/>
      </g>
     </g>
    </g>
    <g id="ytick_27">
     <g id="line2d_139">
      <path d="M 57.6 136.459246 
L 414.72 136.459246 
" clip-path="url(#p5338d1d8f7)" style="fill: none; stroke: #dcdcdc; stroke-width: 0.5; stroke-linecap: square"/>
     </g>
     <g id="line2d_140">
      <g>
       <use xlink:href="#m31b9a4fc11" x="57.6" y="136.459246" style="stroke: #000000; stroke-width: 0.6"/>
      </g>
     </g>
    </g>
    <g id="ytick_28">
     <g id="line2d_141">
      <path d="M 57.6 129.298648 
L 414.72 129.298648 
" clip-path="url(#p5338d1d8f7)" style="fill: none; stroke: #dcdcdc; stroke-width: 0.5; stroke-linecap: square"/>
     </g>
     <g id="line2d_142">
      <g>
       <use xlink:href="#m31b9a4fc11" x="57.6" y="129.298648" style="stroke: #000000; stroke-width: 0.6"/>
      </g>
     </g>
    </g>
    <g id="ytick_29">
     <g id="line2d_143">
      <path d="M 57.6 114.977453 
L 414.72 114.977453 
" clip-path="url(#p5338d1d8f7)" style="fill: none; stroke: #dcdcdc; stroke-width: 0.5; stroke-linecap: square"/>
     </g>
     <g id="line2d_144">
      <g>
       <use xlink:href="#m31b9a4fc11" x="57.6" y="114.977453" style="stroke: #000000; stroke-width: 0.6"/>
      </g>
     </g>
    </g>
    <g id="ytick_30">
     <g id="line2d_145">
      <path d="M 57.6 107.816855 
L 414.72 107.816855 
" clip-path="url(#p5338d1d8f7)" style="fill: none; stroke: #dcdcdc; stroke-width: 0.5; stroke-linecap: square"/>
     </g>
     <g id="line2d_146">
      <g>
       <use xlink:href="#m31b9a4fc11" x="57.6" y="107.816855" style="stroke: #000000; stroke-width: 0.6"/>
      </g>
     </g>
    </g>
    <g id="ytick_31">
     <g id="line2d_147">
      <path d="M 57.6 100.656257 
L 414.72 100.656257 
" clip-path="url(#p5338d1d8f7)" style="fill: none; stroke: #dcdcdc; stroke-width: 0.5; stroke-linecap: square"/>
     </g>
     <g id="line2d_148">
      <g>
       <use xlink:href="#m31b9a4fc11" x="57.6" y="100.656257" style="stroke: #000000; stroke-width: 0.6"/>
      </g>
     </g>
    </g>
    <g id="ytick_32">
     <g id="line2d_149">
      <path d="M 57.6 93.495659 
L 414.72 93.495659 
" clip-path="url(#p5338d1d8f7)" style="fill: none; stroke: #dcdcdc; stroke-width: 0.5; stroke-linecap: square"/>
     </g>
     <g id="line2d_150">
      <g>
       <use xlink:href="#m31b9a4fc11" x="57.6" y="93.495659" style="stroke: #000000; stroke-width: 0.6"/>
      </g>
     </g>
    </g>
    <g id="ytick_33">
     <g id="line2d_151">
      <path d="M 57.6 79.174464 
L 414.72 79.174464 
" clip-path="url(#p5338d1d8f7)" style="fill: none; stroke: #dcdcdc; stroke-width: 0.5; stroke-linecap: square"/>
     </g>
     <g id="line2d_152">
      <g>
       <use xlink:href="#m31b9a4fc11" x="57.6" y="79.174464" style="stroke: #000000; stroke-width: 0.6"/>
      </g>
     </g>
    </g>
    <g id="ytick_34">
     <g id="line2d_153">
      <path d="M 57.6 72.013866 
L 414.72 72.013866 
" clip-path="url(#p5338d1d8f7)" style="fill: none; stroke: #dcdcdc; stroke-width: 0.5; stroke-linecap: square"/>
     </g>
     <g id="line2d_154">
      <g>
       <use xlink:href="#m31b9a4fc11" x="57.6" y="72.013866" style="stroke: #000000; stroke-width: 0.6"/>
      </g>
     </g>
    </g>
    <g id="ytick_35">
     <g id="line2d_155">
      <path d="M 57.6 64.853268 
L 414.72 64.853268 
" clip-path="url(#p5338d1d8f7)" style="fill: none; stroke: #dcdcdc; stroke-width: 0.5; stroke-linecap: square"/>
     </g>
     <g id="line2d_156">
      <g>
       <use xlink:href="#m31b9a4fc11" x="57.6" y="64.853268" style="stroke: #000000; stroke-width: 0.6"/>
      </g>
     </g>
    </g>
    <g id="ytick_36">
     <g id="line2d_157">
      <path d="M 57.6 57.692671 
L 414.72 57.692671 
" clip-path="url(#p5338d1d8f7)" style="fill: none; stroke: #dcdcdc; stroke-width: 0.5; stroke-linecap: square"/>
     </g>
     <g id="line2d_158">
      <g>
       <use xlink:href="#m31b9a4fc11" x="57.6" y="57.692671" style="stroke: #000000; stroke-width: 0.6"/>
      </g>
     </g>
    </g>
    <g id="ytick_37">
     <g id="line2d_159">
      <path d="M 57.6 43.371475 
L 414.72 43.371475 
" clip-path="url(#p5338d1d8f7)" style="fill: none; stroke: #dcdcdc; stroke-width: 0.5; stroke-linecap: square"/>
     </g>
     <g id="line2d_160">
      <g>
       <use xlink:href="#m31b9a4fc11" x="57.6" y="43.371475" style="stroke: #000000; stroke-width: 0.6"/>
      </g>
     </g>
    </g>
    <g id="text_19">
     <!-- Average total episode exploration reward -->
     <g transform="translate(15.892187 277.987375) rotate(-90) scale(0.1 -0.1)">
      <defs>
       <path id="DejaVuSans-41" d="M 2188 4044 
L 1331 1722 
L 3047 1722 
L 2188 4044 
z
M 1831 4666 
L 2547 4666 
L 4325 0 
L 3669 0 
L 3244 1197 
L 1141 1197 
L 716 0 
L 50 0 
L 1831 4666 
z
" transform="scale(0.015625)"/>
       <path id="DejaVuSans-76" d="M 191 3500 
L 800 3500 
L 1894 563 
L 2988 3500 
L 3597 3500 
L 2284 0 
L 1503 0 
L 191 3500 
z
" transform="scale(0.015625)"/>
       <path id="DejaVuSans-72" d="M 2631 2963 
Q 2534 3019 2420 3045 
Q 2306 3072 2169 3072 
Q 1681 3072 1420 2755 
Q 1159 2438 1159 1844 
L 1159 0 
L 581 0 
L 581 3500 
L 1159 3500 
L 1159 2956 
Q 1341 3275 1631 3429 
Q 1922 3584 2338 3584 
Q 2397 3584 2469 3576 
Q 2541 3569 2628 3553 
L 2631 2963 
z
" transform="scale(0.015625)"/>
       <path id="DejaVuSans-61" d="M 2194 1759 
Q 1497 1759 1228 1600 
Q 959 1441 959 1056 
Q 959 750 1161 570 
Q 1363 391 1709 391 
Q 2188 391 2477 730 
Q 2766 1069 2766 1631 
L 2766 1759 
L 2194 1759 
z
M 3341 1997 
L 3341 0 
L 2766 0 
L 2766 531 
Q 2569 213 2275 61 
Q 1981 -91 1556 -91 
Q 1019 -91 701 211 
Q 384 513 384 1019 
Q 384 1609 779 1909 
Q 1175 2209 1959 2209 
L 2766 2209 
L 2766 2266 
Q 2766 2663 2505 2880 
Q 2244 3097 1772 3097 
Q 1472 3097 1187 3025 
Q 903 2953 641 2809 
L 641 3341 
Q 956 3463 1253 3523 
Q 1550 3584 1831 3584 
Q 2591 3584 2966 3190 
Q 3341 2797 3341 1997 
z
" transform="scale(0.015625)"/>
       <path id="DejaVuSans-67" d="M 2906 1791 
Q 2906 2416 2648 2759 
Q 2391 3103 1925 3103 
Q 1463 3103 1205 2759 
Q 947 2416 947 1791 
Q 947 1169 1205 825 
Q 1463 481 1925 481 
Q 2391 481 2648 825 
Q 2906 1169 2906 1791 
z
M 3481 434 
Q 3481 -459 3084 -895 
Q 2688 -1331 1869 -1331 
Q 1566 -1331 1297 -1286 
Q 1028 -1241 775 -1147 
L 775 -588 
Q 1028 -725 1275 -790 
Q 1522 -856 1778 -856 
Q 2344 -856 2625 -561 
Q 2906 -266 2906 331 
L 2906 616 
Q 2728 306 2450 153 
Q 2172 0 1784 0 
Q 1141 0 747 490 
Q 353 981 353 1791 
Q 353 2603 747 3093 
Q 1141 3584 1784 3584 
Q 2172 3584 2450 3431 
Q 2728 3278 2906 2969 
L 2906 3500 
L 3481 3500 
L 3481 434 
z
" transform="scale(0.015625)"/>
       <path id="DejaVuSans-74" d="M 1172 4494 
L 1172 3500 
L 2356 3500 
L 2356 3053 
L 1172 3053 
L 1172 1153 
Q 1172 725 1289 603 
Q 1406 481 1766 481 
L 2356 481 
L 2356 0 
L 1766 0 
Q 1100 0 847 248 
Q 594 497 594 1153 
L 594 3053 
L 172 3053 
L 172 3500 
L 594 3500 
L 594 4494 
L 1172 4494 
z
" transform="scale(0.015625)"/>
       <path id="DejaVuSans-6c" d="M 603 4863 
L 1178 4863 
L 1178 0 
L 603 0 
L 603 4863 
z
" transform="scale(0.015625)"/>
       <path id="DejaVuSans-6e" d="M 3513 2113 
L 3513 0 
L 2938 0 
L 2938 2094 
Q 2938 2591 2744 2837 
Q 2550 3084 2163 3084 
Q 1697 3084 1428 2787 
Q 1159 2491 1159 1978 
L 1159 0 
L 581 0 
L 581 3500 
L 1159 3500 
L 1159 2956 
Q 1366 3272 1645 3428 
Q 1925 3584 2291 3584 
Q 2894 3584 3203 3211 
Q 3513 2838 3513 2113 
z
" transform="scale(0.015625)"/>
       <path id="DejaVuSans-77" d="M 269 3500 
L 844 3500 
L 1563 769 
L 2278 3500 
L 2956 3500 
L 3675 769 
L 4391 3500 
L 4966 3500 
L 4050 0 
L 3372 0 
L 2619 2869 
L 1863 0 
L 1184 0 
L 269 3500 
z
" transform="scale(0.015625)"/>
      </defs>
      <use xlink:href="#DejaVuSans-41"/>
      <use xlink:href="#DejaVuSans-76" x="62.533203"/>
      <use xlink:href="#DejaVuSans-65" x="121.712891"/>
      <use xlink:href="#DejaVuSans-72" x="183.236328"/>
      <use xlink:href="#DejaVuSans-61" x="224.349609"/>
      <use xlink:href="#DejaVuSans-67" x="285.628906"/>
      <use xlink:href="#DejaVuSans-65" x="349.105469"/>
      <use xlink:href="#DejaVuSans-20" x="410.628906"/>
      <use xlink:href="#DejaVuSans-74" x="442.416016"/>
      <use xlink:href="#DejaVuSans-6f" x="481.625"/>
      <use xlink:href="#DejaVuSans-74" x="542.806641"/>
      <use xlink:href="#DejaVuSans-61" x="582.015625"/>
      <use xlink:href="#DejaVuSans-6c" x="643.294922"/>
      <use xlink:href="#DejaVuSans-20" x="671.078125"/>
      <use xlink:href="#DejaVuSans-65" x="702.865234"/>
      <use xlink:href="#DejaVuSans-70" x="764.388672"/>
      <use xlink:href="#DejaVuSans-69" x="827.865234"/>
      <use xlink:href="#DejaVuSans-73" x="855.648438"/>
      <use xlink:href="#DejaVuSans-6f" x="907.748047"/>
      <use xlink:href="#DejaVuSans-64" x="968.929688"/>
      <use xlink:href="#DejaVuSans-65" x="1032.40625"/>
      <use xlink:href="#DejaVuSans-20" x="1093.929688"/>
      <use xlink:href="#DejaVuSans-65" x="1125.716797"/>
      <use xlink:href="#DejaVuSans-78" x="1185.490234"/>
      <use xlink:href="#DejaVuSans-70" x="1244.669922"/>
      <use xlink:href="#DejaVuSans-6c" x="1308.146484"/>
      <use xlink:href="#DejaVuSans-6f" x="1335.929688"/>
      <use xlink:href="#DejaVuSans-72" x="1397.111328"/>
      <use xlink:href="#DejaVuSans-61" x="1438.224609"/>
      <use xlink:href="#DejaVuSans-74" x="1499.503906"/>
      <use xlink:href="#DejaVuSans-69" x="1538.712891"/>
      <use xlink:href="#DejaVuSans-6f" x="1566.496094"/>
      <use xlink:href="#DejaVuSans-6e" x="1627.677734"/>
      <use xlink:href="#DejaVuSans-20" x="1691.056641"/>
      <use xlink:href="#DejaVuSans-72" x="1722.84375"/>
      <use xlink:href="#DejaVuSans-65" x="1761.707031"/>
      <use xlink:href="#DejaVuSans-77" x="1823.230469"/>
      <use xlink:href="#DejaVuSans-61" x="1905.017578"/>
      <use xlink:href="#DejaVuSans-72" x="1966.296875"/>
      <use xlink:href="#DejaVuSans-64" x="2005.660156"/>
     </g>
    </g>
   </g>
   <g id="line2d_161">
    <path d="M 73.832727 53.568 
L 74.239053 214.267962 
L 74.645379 209.831744 
L 75.051706 211.320981 
L 75.458032 217.226297 
L 75.864358 217.761209 
L 76.270684 218.948159 
L 76.67701 214.073268 
L 77.083336 205.804599 
L 77.489662 210.489313 
L 77.895988 216.720863 
L 78.302314 209.336127 
L 78.70864 218.15398 
L 79.114966 217.893891 
L 79.927619 211.618625 
L 80.333945 212.657273 
L 80.740271 217.938963 
L 81.146597 218.777487 
L 81.552923 215.37967 
L 81.959249 210.375387 
L 82.365575 209.296767 
L 82.771901 215.046307 
L 83.178227 217.803976 
L 83.584553 217.155233 
L 83.99088 215.301102 
L 84.397206 209.086928 
L 84.803532 221.058257 
L 85.209858 212.120412 
L 85.616184 219.709548 
L 86.02251 217.086219 
L 86.428836 210.573691 
L 86.835162 214.145334 
L 87.241488 220.14413 
L 87.647814 223.061197 
L 88.05414 215.913795 
L 88.460466 219.170744 
L 88.866793 215.438733 
L 89.273119 217.539716 
L 89.679445 216.122446 
L 90.085771 218.351226 
L 90.492097 213.306751 
L 90.898423 220.153367 
L 91.304749 211.380411 
L 91.711075 215.886663 
L 92.117401 221.804005 
L 92.523727 210.322536 
L 92.930053 212.334764 
L 93.33638 217.306278 
L 93.742706 217.593006 
L 94.149032 219.859418 
L 94.555358 217.720141 
L 94.961684 218.894629 
L 95.36801 216.507552 
L 95.774336 214.927813 
L 96.180662 215.023912 
L 96.586988 218.686262 
L 96.993314 225.124133 
L 97.39964 221.53757 
L 97.805967 223.271271 
L 98.212293 220.862297 
L 98.618619 214.866602 
L 99.024945 224.223134 
L 99.431271 217.00277 
L 99.837597 218.368715 
L 100.243923 220.248752 
L 100.650249 213.365433 
L 101.056575 211.181469 
L 101.462901 217.101437 
L 101.869227 217.561671 
L 102.275554 220.173973 
L 102.68188 224.783129 
L 103.088206 222.10561 
L 103.494532 222.778959 
L 103.900858 219.517778 
L 104.307184 223.911625 
L 104.71351 225.254268 
L 105.119836 224.430786 
L 105.526162 218.245266 
L 105.932488 221.47768 
L 106.338814 219.739822 
L 106.745141 217.329947 
L 107.151467 213.598993 
L 107.557793 212.810076 
L 107.964119 216.156934 
L 108.370445 215.122879 
L 108.776771 219.06459 
L 109.183097 218.218178 
L 109.589423 218.250236 
L 109.995749 218.752329 
L 110.402075 218.072532 
L 110.808401 219.269883 
L 111.214728 218.62457 
L 111.621054 226.933395 
L 112.02738 225.062598 
L 112.433706 220.959667 
L 112.840032 214.77202 
L 113.246358 213.858415 
L 113.652684 215.575644 
L 114.05901 216.782011 
L 114.465336 222.636442 
L 114.871662 215.323855 
L 115.277988 217.883126 
L 115.684314 223.543648 
L 116.090641 214.965154 
L 116.496967 214.866045 
L 116.903293 218.95313 
L 117.309619 218.197061 
L 118.122271 214.213607 
L 118.528597 210.827084 
L 118.934923 212.963487 
L 119.341249 213.035856 
L 119.747575 221.089849 
L 120.153901 219.569001 
L 120.560228 213.561748 
L 120.966554 213.239863 
L 121.37288 221.074855 
L 121.779206 218.926489 
L 122.185532 221.046594 
L 122.591858 219.954147 
L 122.998184 217.954953 
L 123.40451 219.248127 
L 123.810836 221.036306 
L 124.217162 219.750176 
L 124.623488 220.132056 
L 125.029815 219.148502 
L 125.436141 219.75424 
L 125.842467 222.832795 
L 126.248793 223.69005 
L 126.655119 220.869823 
L 127.061445 219.450554 
L 127.467771 217.198905 
L 127.874097 220.897804 
L 128.280423 218.046461 
L 128.686749 218.22863 
L 129.093075 221.753978 
L 129.499402 219.052179 
L 129.905728 214.269526 
L 130.312054 219.016981 
L 130.71838 214.026315 
L 131.124706 221.884163 
L 131.531032 214.830227 
L 131.937358 216.532442 
L 132.343684 219.960577 
L 132.75001 220.445172 
L 133.156336 217.283722 
L 133.562662 220.885132 
L 133.968989 214.849489 
L 134.375315 220.774194 
L 134.781641 220.41438 
L 135.187967 226.645083 
L 135.594293 222.110582 
L 136.000619 219.76169 
L 136.813271 224.075846 
L 137.219597 221.872288 
L 137.625923 221.216923 
L 138.032249 218.415627 
L 138.438575 217.053094 
L 138.844902 226.935309 
L 139.251228 219.944535 
L 139.657554 220.155941 
L 140.06388 218.943042 
L 140.470206 220.126042 
L 140.876532 219.901195 
L 141.282858 221.479819 
L 141.689184 220.001763 
L 142.09551 220.564629 
L 142.501836 225.302052 
L 142.908162 225.293012 
L 143.314489 224.042001 
L 143.720815 217.045509 
L 144.127141 224.493967 
L 144.533467 227.23509 
L 144.939793 225.908331 
L 145.346119 227.53288 
L 145.752445 221.43621 
L 146.158771 227.081717 
L 146.565097 227.880925 
L 146.971423 229.675254 
L 147.377749 235.10669 
L 147.784076 232.738883 
L 148.190402 226.47316 
L 148.596728 227.243606 
L 149.003054 229.616391 
L 149.40938 228.953458 
L 149.815706 226.488031 
L 150.222032 225.385153 
L 150.628358 231.63715 
L 151.034684 232.933077 
L 151.44101 228.056512 
L 151.847336 234.392041 
L 152.253663 234.93221 
L 152.659989 237.931088 
L 153.066315 230.10938 
L 153.472641 231.043293 
L 153.878967 243.658873 
L 154.285293 232.568509 
L 154.691619 233.361593 
L 155.097945 233.520399 
L 155.504271 232.497033 
L 155.910597 236.189441 
L 156.316923 234.998722 
L 156.72325 242.189652 
L 157.129576 239.84763 
L 157.942228 233.155878 
L 158.75488 240.657898 
L 159.161206 236.38404 
L 159.567532 243.624474 
L 159.973858 237.113985 
L 160.380184 238.463397 
L 160.78651 238.152495 
L 161.192837 236.53019 
L 161.599163 240.467145 
L 162.005489 239.478048 
L 162.411815 243.737947 
L 163.224467 232.803414 
L 163.630793 240.475007 
L 164.037119 231.447654 
L 164.443445 242.559784 
L 164.849771 237.462236 
L 165.256097 238.22647 
L 166.06875 242.901043 
L 166.475076 238.025989 
L 166.881402 241.915968 
L 167.287728 234.27046 
L 167.694054 241.724826 
L 168.10038 243.976422 
L 168.506706 247.004702 
L 168.913032 240.384993 
L 169.319358 247.662375 
L 169.725684 240.044154 
L 170.13201 247.277975 
L 170.538337 250.973297 
L 170.944663 248.449475 
L 171.350989 240.505569 
L 171.757315 246.510123 
L 172.163641 239.530829 
L 172.569967 238.177211 
L 172.976293 245.242808 
L 173.382619 249.172544 
L 173.788945 244.274373 
L 174.195271 247.730442 
L 174.601597 247.503209 
L 175.007924 244.292868 
L 175.41425 255.573785 
L 176.226902 242.668072 
L 176.633228 245.788414 
L 177.039554 244.328418 
L 177.44588 246.444666 
L 177.852206 245.026025 
L 178.258532 248.19186 
L 178.664858 247.237074 
L 179.071184 244.728141 
L 179.477511 245.524828 
L 179.883837 250.881065 
L 180.290163 250.776965 
L 181.102815 242.979359 
L 181.915467 255.806865 
L 182.321793 251.181865 
L 182.728119 254.197048 
L 183.134445 246.363642 
L 183.947098 252.239709 
L 184.353424 249.488446 
L 184.75975 242.672023 
L 185.166076 248.397397 
L 185.572402 256.091494 
L 185.978728 250.096079 
L 186.385054 252.364699 
L 186.79138 256.325113 
L 187.197706 251.763302 
L 187.604032 258.345015 
L 188.010358 250.384503 
L 188.416684 255.538989 
L 188.823011 249.822722 
L 189.229337 249.071376 
L 189.635663 253.55164 
L 190.041989 248.9671 
L 190.448315 252.545255 
L 190.854641 250.705245 
L 191.260967 252.016903 
L 191.667293 260.047938 
L 192.073619 251.621885 
L 192.479945 253.305137 
L 192.886271 252.889714 
L 193.292598 251.907689 
L 193.698924 247.382956 
L 194.10525 255.467224 
L 194.511576 258.565578 
L 194.917902 259.334717 
L 195.324228 260.834858 
L 195.730554 257.552675 
L 196.13688 257.058992 
L 196.543206 259.709167 
L 196.949532 258.169278 
L 197.355858 247.019195 
L 197.762185 256.7128 
L 198.168511 253.59061 
L 198.574837 261.098146 
L 198.981163 261.734721 
L 199.387489 263.724204 
L 199.793815 264.30831 
L 200.200141 263.248577 
L 200.606467 260.70923 
L 201.012793 262.877594 
L 201.419119 261.660855 
L 201.825445 262.334546 
L 202.231772 263.708758 
L 202.638098 263.555655 
L 203.044424 268.760054 
L 203.45075 265.152554 
L 203.857076 271.746022 
L 204.263402 263.099479 
L 204.669728 257.046447 
L 205.076054 263.480666 
L 205.48238 265.809512 
L 205.888706 271.807786 
L 206.295032 268.83542 
L 206.701359 261.627868 
L 207.107685 247.474887 
L 207.514011 249.132809 
L 207.920337 246.389258 
L 208.732989 256.882829 
L 209.139315 255.154726 
L 209.545641 254.514422 
L 210.764619 262.890274 
L 211.170946 269.156163 
L 211.577272 271.904618 
L 211.983598 265.539446 
L 212.389924 263.526456 
L 212.79625 266.507404 
L 213.608902 270.350785 
L 214.421554 264.25557 
L 214.82788 269.914058 
L 215.234206 273.2966 
L 215.640532 260.859864 
L 216.046859 269.564361 
L 216.453185 270.599216 
L 216.859511 269.176304 
L 217.265837 273.249675 
L 217.672163 269.768283 
L 218.078489 271.909142 
L 218.484815 271.148847 
L 218.891141 273.071139 
L 219.297467 277.375429 
L 219.703793 277.012053 
L 220.110119 272.426618 
L 220.516446 269.102534 
L 220.922772 272.562687 
L 221.329098 268.784395 
L 221.735424 270.186502 
L 222.14175 267.879878 
L 222.548076 269.299736 
L 222.954402 274.742597 
L 223.360728 275.732008 
L 223.767054 271.53818 
L 224.17338 274.911052 
L 224.579706 273.897799 
L 224.986033 273.493978 
L 225.392359 273.299818 
L 225.798685 275.678137 
L 226.205011 275.80611 
L 226.611337 271.51213 
L 227.017663 269.837437 
L 227.423989 275.335055 
L 227.830315 268.199902 
L 228.236641 274.684794 
L 228.642967 278.227808 
L 229.049293 279.058245 
L 229.45562 274.853703 
L 229.861946 276.819604 
L 230.268272 279.45095 
L 230.674598 273.350977 
L 231.080924 274.717788 
L 231.48725 278.160448 
L 231.893576 273.369201 
L 232.299902 275.13137 
L 232.706228 275.59809 
L 233.112554 273.64416 
L 233.51888 276.208264 
L 233.925207 276.620391 
L 234.331533 274.598617 
L 234.737859 273.98489 
L 235.144185 277.369499 
L 235.550511 279.35174 
L 235.956837 274.416893 
L 236.363163 278.402271 
L 236.769489 273.729348 
L 237.175815 271.188132 
L 237.582141 280.00657 
L 237.988467 278.455126 
L 238.394793 279.402623 
L 238.80112 279.868697 
L 239.207446 280.549376 
L 239.613772 280.565726 
L 240.020098 279.63762 
L 240.426424 276.152147 
L 240.83275 279.460472 
L 241.239076 284.791697 
L 241.645402 281.971951 
L 242.051728 275.123795 
L 242.458054 278.366762 
L 242.86438 275.640242 
L 243.270707 276.897796 
L 243.677033 275.877852 
L 244.083359 279.435316 
L 244.489685 278.333194 
L 244.896011 282.523448 
L 245.302337 283.625491 
L 245.708663 283.240901 
L 246.114989 276.496881 
L 246.521315 281.736873 
L 246.927641 283.929804 
L 247.333967 279.744419 
L 247.740294 281.432151 
L 248.14662 278.826313 
L 248.552946 283.344528 
L 248.959272 284.325529 
L 249.365598 284.044963 
L 249.771924 285.32089 
L 250.17825 284.775489 
L 250.584576 281.481075 
L 250.990902 283.364177 
L 251.397228 283.847351 
L 251.803554 284.976021 
L 252.209881 284.684283 
L 252.616207 285.997989 
L 253.022533 285.528871 
L 253.428859 286.057511 
L 253.835185 279.009403 
L 254.647837 286.09574 
L 255.054163 282.133272 
L 255.460489 282.082035 
L 255.866815 283.85123 
L 256.679468 278.506322 
L 257.085794 283.003402 
L 257.49212 281.0159 
L 257.898446 286.286787 
L 258.304772 286.541051 
L 258.711098 286.256831 
L 259.117424 286.280784 
L 259.930076 289.193837 
L 260.336402 269.488845 
L 260.742728 269.474188 
L 261.149054 268.357944 
L 261.555381 279.36689 
L 262.368033 282.953561 
L 263.587011 276.623255 
L 263.993337 285.296192 
L 264.399663 287.405893 
L 264.805989 288.271616 
L 265.212315 286.952804 
L 265.618641 289.066185 
L 266.024968 286.388984 
L 266.83762 284.951437 
L 267.243946 288.999447 
L 267.650272 284.467296 
L 268.056598 288.685111 
L 268.462924 286.590158 
L 268.86925 287.089939 
L 269.275576 288.330842 
L 269.681902 286.268523 
L 270.088228 284.912535 
L 270.494555 289.130832 
L 270.900881 285.455313 
L 271.307207 287.807475 
L 271.713533 288.754582 
L 272.119859 285.620742 
L 272.526185 287.882121 
L 272.932511 284.758253 
L 273.338837 285.673776 
L 273.745163 285.851621 
L 274.151489 289.14912 
L 274.557815 285.765875 
L 274.964142 290.86749 
L 275.370468 292.337722 
L 275.776794 290.09283 
L 276.18312 289.301351 
L 276.589446 291.164537 
L 276.995772 290.458472 
L 277.402098 292.153302 
L 277.808424 290.919573 
L 278.21475 288.896755 
L 278.621076 289.921613 
L 279.027402 287.240482 
L 279.433729 289.039987 
L 279.840055 291.629957 
L 280.246381 292.050529 
L 280.652707 289.279496 
L 281.059033 289.778005 
L 281.465359 283.171083 
L 281.871685 288.687238 
L 282.278011 290.837331 
L 282.684337 288.279955 
L 283.090663 292.095071 
L 283.903316 288.226624 
L 284.309642 289.510745 
L 284.715968 287.300427 
L 285.122294 287.500506 
L 285.52862 289.402154 
L 285.934946 285.565533 
L 286.341272 290.533753 
L 286.747598 291.452037 
L 287.153924 292.026701 
L 287.56025 286.523763 
L 287.966576 286.654826 
L 288.372902 288.180325 
L 289.185555 289.024747 
L 289.591881 291.108967 
L 289.998207 291.693301 
L 290.404533 291.918387 
L 290.810859 288.832884 
L 291.623511 289.773897 
L 292.029837 292.367664 
L 292.436163 291.533593 
L 292.842489 292.729761 
L 293.248816 292.549638 
L 293.655142 293.132899 
L 294.061468 292.573673 
L 294.467794 290.559845 
L 294.87412 291.647821 
L 295.280446 290.581156 
L 295.686772 291.880229 
L 296.093098 290.719101 
L 296.499424 292.936711 
L 296.90575 294.452132 
L 297.312076 290.350478 
L 297.718403 290.71823 
L 298.124729 292.618062 
L 298.531055 290.056083 
L 298.937381 293.094947 
L 299.343707 293.289026 
L 299.750033 294.102492 
L 300.156359 291.595322 
L 300.562685 291.937228 
L 300.969011 287.257192 
L 301.375337 292.686304 
L 302.18799 288.934811 
L 302.594316 292.443453 
L 303.000642 293.205592 
L 303.406968 293.71916 
L 303.813294 293.439182 
L 304.21962 294.011332 
L 304.625946 291.795984 
L 305.032272 290.405861 
L 305.438598 293.325934 
L 305.844924 292.840948 
L 306.25125 291.665347 
L 306.657577 292.177001 
L 307.063903 292.500468 
L 307.470229 293.665395 
L 307.876555 293.068786 
L 308.282881 293.353029 
L 308.689207 292.928408 
L 309.095533 293.83927 
L 309.501859 292.762893 
L 309.908185 293.437215 
L 310.314511 286.374003 
L 310.720837 290.472995 
L 311.127163 288.380051 
L 311.53349 290.384692 
L 311.939816 288.858197 
L 312.346142 290.187615 
L 312.752468 289.023154 
L 313.158794 291.993748 
L 313.971446 287.170928 
L 314.377772 291.528214 
L 314.784098 289.220677 
L 315.59675 286.942966 
L 316.003077 292.650437 
L 316.409403 291.669224 
L 317.628381 290.420132 
L 318.034707 289.054226 
L 318.441033 290.349903 
L 318.847359 289.528538 
L 319.253685 281.62436 
L 319.660011 291.790573 
L 320.472664 288.061597 
L 320.87899 292.380208 
L 321.285316 291.244947 
L 321.691642 291.275927 
L 322.097968 292.432989 
L 322.504294 290.00686 
L 322.91062 292.654724 
L 323.316946 285.90685 
L 323.723272 291.472593 
L 324.129598 289.631938 
L 324.535924 288.619715 
L 324.942251 293.496957 
L 325.348577 292.661291 
L 325.754903 290.353613 
L 326.161229 292.080754 
L 326.567555 293.016153 
L 326.973881 290.62837 
L 327.380207 293.848856 
L 327.786533 292.401971 
L 328.192859 294.082956 
L 328.599185 290.734493 
L 329.005511 290.968104 
L 329.411838 291.599452 
L 329.818164 292.53841 
L 330.22449 287.299233 
L 330.630816 291.117527 
L 331.037142 289.845184 
L 331.849794 293.344567 
L 332.25612 287.762323 
L 332.662446 288.512804 
L 333.068772 291.999363 
L 333.475098 291.052896 
L 333.881425 288.714525 
L 334.287751 292.191605 
L 334.694077 293.67693 
L 335.100403 293.331137 
L 335.506729 294.448144 
L 335.913055 293.161271 
L 336.319381 293.098099 
L 336.725707 292.336956 
L 337.132033 292.351773 
L 337.538359 291.553046 
L 337.944685 293.019601 
L 338.351011 292.120525 
L 338.757338 293.763418 
L 339.163664 293.200495 
L 339.56999 293.309246 
L 339.976316 292.846501 
L 340.382642 294.471864 
L 340.788968 293.324389 
L 341.60162 293.51969 
L 342.007946 293.068145 
L 342.414272 293.787874 
L 342.820598 293.899002 
L 343.226925 288.282728 
L 343.633251 279.258441 
L 344.039577 291.840178 
L 344.445903 292.762589 
L 344.852229 294.35851 
L 345.258555 293.724754 
L 345.664881 294.420265 
L 346.071207 294.361855 
L 346.477533 293.105685 
L 346.883859 294.026178 
L 348.102838 294.115047 
L 348.509164 294.393661 
L 348.91549 293.117796 
L 349.321816 293.864739 
L 349.728142 292.239766 
L 350.134468 293.462577 
L 350.540794 293.92367 
L 350.94712 293.700355 
L 351.353446 293.126619 
L 351.759772 291.777607 
L 352.166099 293.507493 
L 352.572425 293.971436 
L 353.385077 293.576606 
L 353.791403 293.150842 
L 354.197729 292.957915 
L 355.010381 293.390471 
L 355.823033 294.021048 
L 356.229359 294.478878 
L 356.635686 290.181737 
L 357.042012 293.303108 
L 357.448338 293.186408 
L 357.854664 293.557102 
L 358.667316 292.626266 
L 359.073642 293.632166 
L 359.479968 293.774514 
L 360.29262 292.568005 
L 360.698946 292.343233 
L 361.105272 293.491535 
L 361.511599 292.892702 
L 361.917925 294.636772 
L 362.324251 293.608976 
L 362.730577 291.633042 
L 363.136903 292.805053 
L 363.543229 293.160481 
L 363.949555 291.294635 
L 364.355881 291.477343 
L 364.762207 285.825044 
L 365.168533 285.044671 
L 365.574859 290.855472 
L 365.981186 293.149755 
L 366.387512 293.856568 
L 366.793838 295.003318 
L 367.200164 294.095104 
L 367.60649 294.387207 
L 368.012816 293.520413 
L 368.419142 293.910537 
L 369.231794 295.088078 
L 370.044446 292.455005 
L 370.450773 293.526598 
L 370.857099 293.331556 
L 371.263425 293.730673 
L 371.669751 291.790835 
L 372.076077 293.666006 
L 372.482403 293.290492 
L 372.888729 293.472236 
L 373.295055 293.887139 
L 373.701381 293.631826 
L 374.107707 294.25357 
L 374.514033 293.164158 
L 374.92036 293.325245 
L 375.326686 293.627773 
L 375.733012 295.11474 
L 376.139338 295.378466 
L 376.545664 294.540501 
L 376.95199 289.356339 
L 377.358316 291.790837 
L 377.764642 291.814152 
L 378.170968 291.232826 
L 378.577294 293.475513 
L 378.98362 293.20539 
L 379.389947 293.900116 
L 379.796273 294.194098 
L 380.202599 294.202622 
L 380.608925 293.084973 
L 381.015251 293.373762 
L 381.421577 292.739612 
L 381.827903 293.65734 
L 382.234229 292.151219 
L 382.640555 293.679414 
L 383.046881 293.938571 
L 383.453207 293.928275 
L 383.859534 295.06108 
L 384.26586 295.210336 
L 384.672186 294.401641 
L 385.078512 295.019253 
L 385.484838 294.219313 
L 385.891164 294.775317 
L 386.29749 294.174455 
L 386.703816 293.951311 
L 387.110142 294.710644 
L 387.516468 291.430893 
L 387.922794 293.538557 
L 388.32912 294.206826 
L 388.735447 295.155079 
L 389.141773 294.420034 
L 389.548099 290.914122 
L 389.954425 292.835905 
L 390.360751 293.939796 
L 390.767077 293.926012 
L 391.173403 295.163869 
L 391.579729 292.830791 
L 391.986055 294.539894 
L 392.392381 294.895069 
L 392.798707 294.315965 
L 393.205034 294.27729 
L 393.61136 294.977162 
L 394.017686 294.567067 
L 394.830338 294.91298 
L 395.236664 294.855753 
L 395.64299 295.13522 
L 396.049316 294.279881 
L 396.455642 294.930458 
L 396.861968 294.713177 
L 397.268294 294.106044 
L 397.674621 294.723849 
L 398.080947 294.479642 
L 398.487273 295.488 
L 398.487273 295.488 
" clip-path="url(#p5338d1d8f7)" style="fill: none; stroke: #000000; stroke-width: 0.7; stroke-linecap: square"/>
   </g>
   <g id="patch_3">
    <path d="M 57.6 307.584 
L 57.6 41.472 
" style="fill: none; stroke: #000000; stroke-width: 0.8; stroke-linejoin: miter; stroke-linecap: square"/>
   </g>
   <g id="patch_4">
    <path d="M 414.72 307.584 
L 414.72 41.472 
" style="fill: none; stroke: #000000; stroke-width: 0.8; stroke-linejoin: miter; stroke-linecap: square"/>
   </g>
   <g id="patch_5">
    <path d="M 57.6 307.584 
L 414.72 307.584 
" style="fill: none; stroke: #000000; stroke-width: 0.8; stroke-linejoin: miter; stroke-linecap: square"/>
   </g>
   <g id="patch_6">
    <path d="M 57.6 41.472 
L 414.72 41.472 
" style="fill: none; stroke: #000000; stroke-width: 0.8; stroke-linejoin: miter; stroke-linecap: square"/>
   </g>
  </g>
 </g>
 <defs>
  <clipPath id="p5338d1d8f7">
   <rect x="57.6" y="41.472" width="357.12" height="266.112"/>
  </clipPath>
 </defs>
</svg>
