<?xml version="1.0" encoding="utf-8" standalone="no"?>
<!DOCTYPE svg PUBLIC "-//W3C//DTD SVG 1.1//EN"
  "http://www.w3.org/Graphics/SVG/1.1/DTD/svg11.dtd">
<svg xmlns:xlink="http://www.w3.org/1999/xlink" width="460.8pt" height="345.6pt" viewBox="0 0 460.8 345.6" xmlns="http://www.w3.org/2000/svg" version="1.1">
 <metadata>
  <rdf:RDF xmlns:dc="http://purl.org/dc/elements/1.1/" xmlns:cc="http://creativecommons.org/ns#" xmlns:rdf="http://www.w3.org/1999/02/22-rdf-syntax-ns#">
   <cc:Work>
    <dc:type rdf:resource="http://purl.org/dc/dcmitype/StillImage"/>
    <dc:date>2024-05-10T12:03:15.949528</dc:date>
    <dc:format>image/svg+xml</dc:format>
    <dc:creator>
     <cc:Agent>
      <dc:title>Matplotlib v3.8.3, https://matplotlib.org/</dc:title>
     </cc:Agent>
    </dc:creator>
   </cc:Work>
  </rdf:RDF>
 </metadata>
 <defs>
  <style type="text/css">*{stroke-linejoin: round; stroke-linecap: butt}</style>
 </defs>
 <g id="figure_1">
  <g id="patch_1">
   <path d="M 0 345.6 
L 460.8 345.6 
L 460.8 0 
L 0 0 
z
" style="fill: #ffffff"/>
  </g>
  <g id="axes_1">
   <g id="patch_2">
    <path d="M 57.6 307.584 
L 414.72 307.584 
L 414.72 41.472 
L 57.6 41.472 
z
" style="fill: #ffffff"/>
   </g>
   <g id="matplotlib.axis_1">
    <g id="xtick_1">
     <g id="line2d_1">
      <path d="M 73.832727 307.584 
L 73.832727 41.472 
" clip-path="url(#p8bba70af27)" style="fill: none; stroke: #b0b0b0; stroke-width: 0.8; stroke-linecap: square"/>
     </g>
     <g id="line2d_2">
      <defs>
       <path id="m5210978edd" d="M 0 0 
L 0 3.5 
" style="stroke: #000000; stroke-width: 0.8"/>
      </defs>
      <g>
       <use xlink:href="#m5210978edd" x="73.832727" y="307.584" style="stroke: #000000; stroke-width: 0.8"/>
      </g>
     </g>
     <g id="text_1">
      <!-- 0 -->
      <g transform="translate(70.651477 322.182437) scale(0.1 -0.1)">
       <defs>
        <path id="DejaVuSans-30" d="M 2034 4250 
Q 1547 4250 1301 3770 
Q 1056 3291 1056 2328 
Q 1056 1369 1301 889 
Q 1547 409 2034 409 
Q 2525 409 2770 889 
Q 3016 1369 3016 2328 
Q 3016 3291 2770 3770 
Q 2525 4250 2034 4250 
z
M 2034 4750 
Q 2819 4750 3233 4129 
Q 3647 3509 3647 2328 
Q 3647 1150 3233 529 
Q 2819 -91 2034 -91 
Q 1250 -91 836 529 
Q 422 1150 422 2328 
Q 422 3509 836 4129 
Q 1250 4750 2034 4750 
z
" transform="scale(0.015625)"/>
       </defs>
       <use xlink:href="#DejaVuSans-30"/>
      </g>
     </g>
    </g>
    <g id="xtick_2">
     <g id="line2d_3">
      <path d="M 114.465336 307.584 
L 114.465336 41.472 
" clip-path="url(#p8bba70af27)" style="fill: none; stroke: #b0b0b0; stroke-width: 0.8; stroke-linecap: square"/>
     </g>
     <g id="line2d_4">
      <g>
       <use xlink:href="#m5210978edd" x="114.465336" y="307.584" style="stroke: #000000; stroke-width: 0.8"/>
      </g>
     </g>
     <g id="text_2">
      <!-- 100 -->
      <g transform="translate(104.921586 322.182437) scale(0.1 -0.1)">
       <defs>
        <path id="DejaVuSans-31" d="M 794 531 
L 1825 531 
L 1825 4091 
L 703 3866 
L 703 4441 
L 1819 4666 
L 2450 4666 
L 2450 531 
L 3481 531 
L 3481 0 
L 794 0 
L 794 531 
z
" transform="scale(0.015625)"/>
       </defs>
       <use xlink:href="#DejaVuSans-31"/>
       <use xlink:href="#DejaVuSans-30" x="63.623047"/>
       <use xlink:href="#DejaVuSans-30" x="127.246094"/>
      </g>
     </g>
    </g>
    <g id="xtick_3">
     <g id="line2d_5">
      <path d="M 155.097945 307.584 
L 155.097945 41.472 
" clip-path="url(#p8bba70af27)" style="fill: none; stroke: #b0b0b0; stroke-width: 0.8; stroke-linecap: square"/>
     </g>
     <g id="line2d_6">
      <g>
       <use xlink:href="#m5210978edd" x="155.097945" y="307.584" style="stroke: #000000; stroke-width: 0.8"/>
      </g>
     </g>
     <g id="text_3">
      <!-- 200 -->
      <g transform="translate(145.554195 322.182437) scale(0.1 -0.1)">
       <defs>
        <path id="DejaVuSans-32" d="M 1228 531 
L 3431 531 
L 3431 0 
L 469 0 
L 469 531 
Q 828 903 1448 1529 
Q 2069 2156 2228 2338 
Q 2531 2678 2651 2914 
Q 2772 3150 2772 3378 
Q 2772 3750 2511 3984 
Q 2250 4219 1831 4219 
Q 1534 4219 1204 4116 
Q 875 4013 500 3803 
L 500 4441 
Q 881 4594 1212 4672 
Q 1544 4750 1819 4750 
Q 2544 4750 2975 4387 
Q 3406 4025 3406 3419 
Q 3406 3131 3298 2873 
Q 3191 2616 2906 2266 
Q 2828 2175 2409 1742 
Q 1991 1309 1228 531 
z
" transform="scale(0.015625)"/>
       </defs>
       <use xlink:href="#DejaVuSans-32"/>
       <use xlink:href="#DejaVuSans-30" x="63.623047"/>
       <use xlink:href="#DejaVuSans-30" x="127.246094"/>
      </g>
     </g>
    </g>
    <g id="xtick_4">
     <g id="line2d_7">
      <path d="M 195.730554 307.584 
L 195.730554 41.472 
" clip-path="url(#p8bba70af27)" style="fill: none; stroke: #b0b0b0; stroke-width: 0.8; stroke-linecap: square"/>
     </g>
     <g id="line2d_8">
      <g>
       <use xlink:href="#m5210978edd" x="195.730554" y="307.584" style="stroke: #000000; stroke-width: 0.8"/>
      </g>
     </g>
     <g id="text_4">
      <!-- 300 -->
      <g transform="translate(186.186804 322.182437) scale(0.1 -0.1)">
       <defs>
        <path id="DejaVuSans-33" d="M 2597 2516 
Q 3050 2419 3304 2112 
Q 3559 1806 3559 1356 
Q 3559 666 3084 287 
Q 2609 -91 1734 -91 
Q 1441 -91 1130 -33 
Q 819 25 488 141 
L 488 750 
Q 750 597 1062 519 
Q 1375 441 1716 441 
Q 2309 441 2620 675 
Q 2931 909 2931 1356 
Q 2931 1769 2642 2001 
Q 2353 2234 1838 2234 
L 1294 2234 
L 1294 2753 
L 1863 2753 
Q 2328 2753 2575 2939 
Q 2822 3125 2822 3475 
Q 2822 3834 2567 4026 
Q 2313 4219 1838 4219 
Q 1578 4219 1281 4162 
Q 984 4106 628 3988 
L 628 4550 
Q 988 4650 1302 4700 
Q 1616 4750 1894 4750 
Q 2613 4750 3031 4423 
Q 3450 4097 3450 3541 
Q 3450 3153 3228 2886 
Q 3006 2619 2597 2516 
z
" transform="scale(0.015625)"/>
       </defs>
       <use xlink:href="#DejaVuSans-33"/>
       <use xlink:href="#DejaVuSans-30" x="63.623047"/>
       <use xlink:href="#DejaVuSans-30" x="127.246094"/>
      </g>
     </g>
    </g>
    <g id="xtick_5">
     <g id="line2d_9">
      <path d="M 236.363163 307.584 
L 236.363163 41.472 
" clip-path="url(#p8bba70af27)" style="fill: none; stroke: #b0b0b0; stroke-width: 0.8; stroke-linecap: square"/>
     </g>
     <g id="line2d_10">
      <g>
       <use xlink:href="#m5210978edd" x="236.363163" y="307.584" style="stroke: #000000; stroke-width: 0.8"/>
      </g>
     </g>
     <g id="text_5">
      <!-- 400 -->
      <g transform="translate(226.819413 322.182437) scale(0.1 -0.1)">
       <defs>
        <path id="DejaVuSans-34" d="M 2419 4116 
L 825 1625 
L 2419 1625 
L 2419 4116 
z
M 2253 4666 
L 3047 4666 
L 3047 1625 
L 3713 1625 
L 3713 1100 
L 3047 1100 
L 3047 0 
L 2419 0 
L 2419 1100 
L 313 1100 
L 313 1709 
L 2253 4666 
z
" transform="scale(0.015625)"/>
       </defs>
       <use xlink:href="#DejaVuSans-34"/>
       <use xlink:href="#DejaVuSans-30" x="63.623047"/>
       <use xlink:href="#DejaVuSans-30" x="127.246094"/>
      </g>
     </g>
    </g>
    <g id="xtick_6">
     <g id="line2d_11">
      <path d="M 276.995772 307.584 
L 276.995772 41.472 
" clip-path="url(#p8bba70af27)" style="fill: none; stroke: #b0b0b0; stroke-width: 0.8; stroke-linecap: square"/>
     </g>
     <g id="line2d_12">
      <g>
       <use xlink:href="#m5210978edd" x="276.995772" y="307.584" style="stroke: #000000; stroke-width: 0.8"/>
      </g>
     </g>
     <g id="text_6">
      <!-- 500 -->
      <g transform="translate(267.452022 322.182437) scale(0.1 -0.1)">
       <defs>
        <path id="DejaVuSans-35" d="M 691 4666 
L 3169 4666 
L 3169 4134 
L 1269 4134 
L 1269 2991 
Q 1406 3038 1543 3061 
Q 1681 3084 1819 3084 
Q 2600 3084 3056 2656 
Q 3513 2228 3513 1497 
Q 3513 744 3044 326 
Q 2575 -91 1722 -91 
Q 1428 -91 1123 -41 
Q 819 9 494 109 
L 494 744 
Q 775 591 1075 516 
Q 1375 441 1709 441 
Q 2250 441 2565 725 
Q 2881 1009 2881 1497 
Q 2881 1984 2565 2268 
Q 2250 2553 1709 2553 
Q 1456 2553 1204 2497 
Q 953 2441 691 2322 
L 691 4666 
z
" transform="scale(0.015625)"/>
       </defs>
       <use xlink:href="#DejaVuSans-35"/>
       <use xlink:href="#DejaVuSans-30" x="63.623047"/>
       <use xlink:href="#DejaVuSans-30" x="127.246094"/>
      </g>
     </g>
    </g>
    <g id="xtick_7">
     <g id="line2d_13">
      <path d="M 317.628381 307.584 
L 317.628381 41.472 
" clip-path="url(#p8bba70af27)" style="fill: none; stroke: #b0b0b0; stroke-width: 0.8; stroke-linecap: square"/>
     </g>
     <g id="line2d_14">
      <g>
       <use xlink:href="#m5210978edd" x="317.628381" y="307.584" style="stroke: #000000; stroke-width: 0.8"/>
      </g>
     </g>
     <g id="text_7">
      <!-- 600 -->
      <g transform="translate(308.084631 322.182437) scale(0.1 -0.1)">
       <defs>
        <path id="DejaVuSans-36" d="M 2113 2584 
Q 1688 2584 1439 2293 
Q 1191 2003 1191 1497 
Q 1191 994 1439 701 
Q 1688 409 2113 409 
Q 2538 409 2786 701 
Q 3034 994 3034 1497 
Q 3034 2003 2786 2293 
Q 2538 2584 2113 2584 
z
M 3366 4563 
L 3366 3988 
Q 3128 4100 2886 4159 
Q 2644 4219 2406 4219 
Q 1781 4219 1451 3797 
Q 1122 3375 1075 2522 
Q 1259 2794 1537 2939 
Q 1816 3084 2150 3084 
Q 2853 3084 3261 2657 
Q 3669 2231 3669 1497 
Q 3669 778 3244 343 
Q 2819 -91 2113 -91 
Q 1303 -91 875 529 
Q 447 1150 447 2328 
Q 447 3434 972 4092 
Q 1497 4750 2381 4750 
Q 2619 4750 2861 4703 
Q 3103 4656 3366 4563 
z
" transform="scale(0.015625)"/>
       </defs>
       <use xlink:href="#DejaVuSans-36"/>
       <use xlink:href="#DejaVuSans-30" x="63.623047"/>
       <use xlink:href="#DejaVuSans-30" x="127.246094"/>
      </g>
     </g>
    </g>
    <g id="xtick_8">
     <g id="line2d_15">
      <path d="M 358.26099 307.584 
L 358.26099 41.472 
" clip-path="url(#p8bba70af27)" style="fill: none; stroke: #b0b0b0; stroke-width: 0.8; stroke-linecap: square"/>
     </g>
     <g id="line2d_16">
      <g>
       <use xlink:href="#m5210978edd" x="358.26099" y="307.584" style="stroke: #000000; stroke-width: 0.8"/>
      </g>
     </g>
     <g id="text_8">
      <!-- 700 -->
      <g transform="translate(348.71724 322.182437) scale(0.1 -0.1)">
       <defs>
        <path id="DejaVuSans-37" d="M 525 4666 
L 3525 4666 
L 3525 4397 
L 1831 0 
L 1172 0 
L 2766 4134 
L 525 4134 
L 525 4666 
z
" transform="scale(0.015625)"/>
       </defs>
       <use xlink:href="#DejaVuSans-37"/>
       <use xlink:href="#DejaVuSans-30" x="63.623047"/>
       <use xlink:href="#DejaVuSans-30" x="127.246094"/>
      </g>
     </g>
    </g>
    <g id="xtick_9">
     <g id="line2d_17">
      <path d="M 398.893599 307.584 
L 398.893599 41.472 
" clip-path="url(#p8bba70af27)" style="fill: none; stroke: #b0b0b0; stroke-width: 0.8; stroke-linecap: square"/>
     </g>
     <g id="line2d_18">
      <g>
       <use xlink:href="#m5210978edd" x="398.893599" y="307.584" style="stroke: #000000; stroke-width: 0.8"/>
      </g>
     </g>
     <g id="text_9">
      <!-- 800 -->
      <g transform="translate(389.349849 322.182437) scale(0.1 -0.1)">
       <defs>
        <path id="DejaVuSans-38" d="M 2034 2216 
Q 1584 2216 1326 1975 
Q 1069 1734 1069 1313 
Q 1069 891 1326 650 
Q 1584 409 2034 409 
Q 2484 409 2743 651 
Q 3003 894 3003 1313 
Q 3003 1734 2745 1975 
Q 2488 2216 2034 2216 
z
M 1403 2484 
Q 997 2584 770 2862 
Q 544 3141 544 3541 
Q 544 4100 942 4425 
Q 1341 4750 2034 4750 
Q 2731 4750 3128 4425 
Q 3525 4100 3525 3541 
Q 3525 3141 3298 2862 
Q 3072 2584 2669 2484 
Q 3125 2378 3379 2068 
Q 3634 1759 3634 1313 
Q 3634 634 3220 271 
Q 2806 -91 2034 -91 
Q 1263 -91 848 271 
Q 434 634 434 1313 
Q 434 1759 690 2068 
Q 947 2378 1403 2484 
z
M 1172 3481 
Q 1172 3119 1398 2916 
Q 1625 2713 2034 2713 
Q 2441 2713 2670 2916 
Q 2900 3119 2900 3481 
Q 2900 3844 2670 4047 
Q 2441 4250 2034 4250 
Q 1625 4250 1398 4047 
Q 1172 3844 1172 3481 
z
" transform="scale(0.015625)"/>
       </defs>
       <use xlink:href="#DejaVuSans-38"/>
       <use xlink:href="#DejaVuSans-30" x="63.623047"/>
       <use xlink:href="#DejaVuSans-30" x="127.246094"/>
      </g>
     </g>
    </g>
    <g id="xtick_10">
     <g id="line2d_19">
      <path d="M 65.706205 307.584 
L 65.706205 41.472 
" clip-path="url(#p8bba70af27)" style="fill: none; stroke: #dcdcdc; stroke-width: 0.5; stroke-linecap: square"/>
     </g>
     <g id="line2d_20">
      <defs>
       <path id="m6f880fdf1d" d="M 0 0 
L 0 2 
" style="stroke: #000000; stroke-width: 0.6"/>
      </defs>
      <g>
       <use xlink:href="#m6f880fdf1d" x="65.706205" y="307.584" style="stroke: #000000; stroke-width: 0.6"/>
      </g>
     </g>
    </g>
    <g id="xtick_11">
     <g id="line2d_21">
      <path d="M 81.959249 307.584 
L 81.959249 41.472 
" clip-path="url(#p8bba70af27)" style="fill: none; stroke: #dcdcdc; stroke-width: 0.5; stroke-linecap: square"/>
     </g>
     <g id="line2d_22">
      <g>
       <use xlink:href="#m6f880fdf1d" x="81.959249" y="307.584" style="stroke: #000000; stroke-width: 0.6"/>
      </g>
     </g>
    </g>
    <g id="xtick_12">
     <g id="line2d_23">
      <path d="M 90.085771 307.584 
L 90.085771 41.472 
" clip-path="url(#p8bba70af27)" style="fill: none; stroke: #dcdcdc; stroke-width: 0.5; stroke-linecap: square"/>
     </g>
     <g id="line2d_24">
      <g>
       <use xlink:href="#m6f880fdf1d" x="90.085771" y="307.584" style="stroke: #000000; stroke-width: 0.6"/>
      </g>
     </g>
    </g>
    <g id="xtick_13">
     <g id="line2d_25">
      <path d="M 98.212293 307.584 
L 98.212293 41.472 
" clip-path="url(#p8bba70af27)" style="fill: none; stroke: #dcdcdc; stroke-width: 0.5; stroke-linecap: square"/>
     </g>
     <g id="line2d_26">
      <g>
       <use xlink:href="#m6f880fdf1d" x="98.212293" y="307.584" style="stroke: #000000; stroke-width: 0.6"/>
      </g>
     </g>
    </g>
    <g id="xtick_14">
     <g id="line2d_27">
      <path d="M 106.338814 307.584 
L 106.338814 41.472 
" clip-path="url(#p8bba70af27)" style="fill: none; stroke: #dcdcdc; stroke-width: 0.5; stroke-linecap: square"/>
     </g>
     <g id="line2d_28">
      <g>
       <use xlink:href="#m6f880fdf1d" x="106.338814" y="307.584" style="stroke: #000000; stroke-width: 0.6"/>
      </g>
     </g>
    </g>
    <g id="xtick_15">
     <g id="line2d_29">
      <path d="M 122.591858 307.584 
L 122.591858 41.472 
" clip-path="url(#p8bba70af27)" style="fill: none; stroke: #dcdcdc; stroke-width: 0.5; stroke-linecap: square"/>
     </g>
     <g id="line2d_30">
      <g>
       <use xlink:href="#m6f880fdf1d" x="122.591858" y="307.584" style="stroke: #000000; stroke-width: 0.6"/>
      </g>
     </g>
    </g>
    <g id="xtick_16">
     <g id="line2d_31">
      <path d="M 130.71838 307.584 
L 130.71838 41.472 
" clip-path="url(#p8bba70af27)" style="fill: none; stroke: #dcdcdc; stroke-width: 0.5; stroke-linecap: square"/>
     </g>
     <g id="line2d_32">
      <g>
       <use xlink:href="#m6f880fdf1d" x="130.71838" y="307.584" style="stroke: #000000; stroke-width: 0.6"/>
      </g>
     </g>
    </g>
    <g id="xtick_17">
     <g id="line2d_33">
      <path d="M 138.844902 307.584 
L 138.844902 41.472 
" clip-path="url(#p8bba70af27)" style="fill: none; stroke: #dcdcdc; stroke-width: 0.5; stroke-linecap: square"/>
     </g>
     <g id="line2d_34">
      <g>
       <use xlink:href="#m6f880fdf1d" x="138.844902" y="307.584" style="stroke: #000000; stroke-width: 0.6"/>
      </g>
     </g>
    </g>
    <g id="xtick_18">
     <g id="line2d_35">
      <path d="M 146.971423 307.584 
L 146.971423 41.472 
" clip-path="url(#p8bba70af27)" style="fill: none; stroke: #dcdcdc; stroke-width: 0.5; stroke-linecap: square"/>
     </g>
     <g id="line2d_36">
      <g>
       <use xlink:href="#m6f880fdf1d" x="146.971423" y="307.584" style="stroke: #000000; stroke-width: 0.6"/>
      </g>
     </g>
    </g>
    <g id="xtick_19">
     <g id="line2d_37">
      <path d="M 163.224467 307.584 
L 163.224467 41.472 
" clip-path="url(#p8bba70af27)" style="fill: none; stroke: #dcdcdc; stroke-width: 0.5; stroke-linecap: square"/>
     </g>
     <g id="line2d_38">
      <g>
       <use xlink:href="#m6f880fdf1d" x="163.224467" y="307.584" style="stroke: #000000; stroke-width: 0.6"/>
      </g>
     </g>
    </g>
    <g id="xtick_20">
     <g id="line2d_39">
      <path d="M 171.350989 307.584 
L 171.350989 41.472 
" clip-path="url(#p8bba70af27)" style="fill: none; stroke: #dcdcdc; stroke-width: 0.5; stroke-linecap: square"/>
     </g>
     <g id="line2d_40">
      <g>
       <use xlink:href="#m6f880fdf1d" x="171.350989" y="307.584" style="stroke: #000000; stroke-width: 0.6"/>
      </g>
     </g>
    </g>
    <g id="xtick_21">
     <g id="line2d_41">
      <path d="M 179.477511 307.584 
L 179.477511 41.472 
" clip-path="url(#p8bba70af27)" style="fill: none; stroke: #dcdcdc; stroke-width: 0.5; stroke-linecap: square"/>
     </g>
     <g id="line2d_42">
      <g>
       <use xlink:href="#m6f880fdf1d" x="179.477511" y="307.584" style="stroke: #000000; stroke-width: 0.6"/>
      </g>
     </g>
    </g>
    <g id="xtick_22">
     <g id="line2d_43">
      <path d="M 187.604032 307.584 
L 187.604032 41.472 
" clip-path="url(#p8bba70af27)" style="fill: none; stroke: #dcdcdc; stroke-width: 0.5; stroke-linecap: square"/>
     </g>
     <g id="line2d_44">
      <g>
       <use xlink:href="#m6f880fdf1d" x="187.604032" y="307.584" style="stroke: #000000; stroke-width: 0.6"/>
      </g>
     </g>
    </g>
    <g id="xtick_23">
     <g id="line2d_45">
      <path d="M 203.857076 307.584 
L 203.857076 41.472 
" clip-path="url(#p8bba70af27)" style="fill: none; stroke: #dcdcdc; stroke-width: 0.5; stroke-linecap: square"/>
     </g>
     <g id="line2d_46">
      <g>
       <use xlink:href="#m6f880fdf1d" x="203.857076" y="307.584" style="stroke: #000000; stroke-width: 0.6"/>
      </g>
     </g>
    </g>
    <g id="xtick_24">
     <g id="line2d_47">
      <path d="M 211.983598 307.584 
L 211.983598 41.472 
" clip-path="url(#p8bba70af27)" style="fill: none; stroke: #dcdcdc; stroke-width: 0.5; stroke-linecap: square"/>
     </g>
     <g id="line2d_48">
      <g>
       <use xlink:href="#m6f880fdf1d" x="211.983598" y="307.584" style="stroke: #000000; stroke-width: 0.6"/>
      </g>
     </g>
    </g>
    <g id="xtick_25">
     <g id="line2d_49">
      <path d="M 220.110119 307.584 
L 220.110119 41.472 
" clip-path="url(#p8bba70af27)" style="fill: none; stroke: #dcdcdc; stroke-width: 0.5; stroke-linecap: square"/>
     </g>
     <g id="line2d_50">
      <g>
       <use xlink:href="#m6f880fdf1d" x="220.110119" y="307.584" style="stroke: #000000; stroke-width: 0.6"/>
      </g>
     </g>
    </g>
    <g id="xtick_26">
     <g id="line2d_51">
      <path d="M 228.236641 307.584 
L 228.236641 41.472 
" clip-path="url(#p8bba70af27)" style="fill: none; stroke: #dcdcdc; stroke-width: 0.5; stroke-linecap: square"/>
     </g>
     <g id="line2d_52">
      <g>
       <use xlink:href="#m6f880fdf1d" x="228.236641" y="307.584" style="stroke: #000000; stroke-width: 0.6"/>
      </g>
     </g>
    </g>
    <g id="xtick_27">
     <g id="line2d_53">
      <path d="M 244.489685 307.584 
L 244.489685 41.472 
" clip-path="url(#p8bba70af27)" style="fill: none; stroke: #dcdcdc; stroke-width: 0.5; stroke-linecap: square"/>
     </g>
     <g id="line2d_54">
      <g>
       <use xlink:href="#m6f880fdf1d" x="244.489685" y="307.584" style="stroke: #000000; stroke-width: 0.6"/>
      </g>
     </g>
    </g>
    <g id="xtick_28">
     <g id="line2d_55">
      <path d="M 252.616207 307.584 
L 252.616207 41.472 
" clip-path="url(#p8bba70af27)" style="fill: none; stroke: #dcdcdc; stroke-width: 0.5; stroke-linecap: square"/>
     </g>
     <g id="line2d_56">
      <g>
       <use xlink:href="#m6f880fdf1d" x="252.616207" y="307.584" style="stroke: #000000; stroke-width: 0.6"/>
      </g>
     </g>
    </g>
    <g id="xtick_29">
     <g id="line2d_57">
      <path d="M 260.742728 307.584 
L 260.742728 41.472 
" clip-path="url(#p8bba70af27)" style="fill: none; stroke: #dcdcdc; stroke-width: 0.5; stroke-linecap: square"/>
     </g>
     <g id="line2d_58">
      <g>
       <use xlink:href="#m6f880fdf1d" x="260.742728" y="307.584" style="stroke: #000000; stroke-width: 0.6"/>
      </g>
     </g>
    </g>
    <g id="xtick_30">
     <g id="line2d_59">
      <path d="M 268.86925 307.584 
L 268.86925 41.472 
" clip-path="url(#p8bba70af27)" style="fill: none; stroke: #dcdcdc; stroke-width: 0.5; stroke-linecap: square"/>
     </g>
     <g id="line2d_60">
      <g>
       <use xlink:href="#m6f880fdf1d" x="268.86925" y="307.584" style="stroke: #000000; stroke-width: 0.6"/>
      </g>
     </g>
    </g>
    <g id="xtick_31">
     <g id="line2d_61">
      <path d="M 285.122294 307.584 
L 285.122294 41.472 
" clip-path="url(#p8bba70af27)" style="fill: none; stroke: #dcdcdc; stroke-width: 0.5; stroke-linecap: square"/>
     </g>
     <g id="line2d_62">
      <g>
       <use xlink:href="#m6f880fdf1d" x="285.122294" y="307.584" style="stroke: #000000; stroke-width: 0.6"/>
      </g>
     </g>
    </g>
    <g id="xtick_32">
     <g id="line2d_63">
      <path d="M 293.248816 307.584 
L 293.248816 41.472 
" clip-path="url(#p8bba70af27)" style="fill: none; stroke: #dcdcdc; stroke-width: 0.5; stroke-linecap: square"/>
     </g>
     <g id="line2d_64">
      <g>
       <use xlink:href="#m6f880fdf1d" x="293.248816" y="307.584" style="stroke: #000000; stroke-width: 0.6"/>
      </g>
     </g>
    </g>
    <g id="xtick_33">
     <g id="line2d_65">
      <path d="M 301.375337 307.584 
L 301.375337 41.472 
" clip-path="url(#p8bba70af27)" style="fill: none; stroke: #dcdcdc; stroke-width: 0.5; stroke-linecap: square"/>
     </g>
     <g id="line2d_66">
      <g>
       <use xlink:href="#m6f880fdf1d" x="301.375337" y="307.584" style="stroke: #000000; stroke-width: 0.6"/>
      </g>
     </g>
    </g>
    <g id="xtick_34">
     <g id="line2d_67">
      <path d="M 309.501859 307.584 
L 309.501859 41.472 
" clip-path="url(#p8bba70af27)" style="fill: none; stroke: #dcdcdc; stroke-width: 0.5; stroke-linecap: square"/>
     </g>
     <g id="line2d_68">
      <g>
       <use xlink:href="#m6f880fdf1d" x="309.501859" y="307.584" style="stroke: #000000; stroke-width: 0.6"/>
      </g>
     </g>
    </g>
    <g id="xtick_35">
     <g id="line2d_69">
      <path d="M 325.754903 307.584 
L 325.754903 41.472 
" clip-path="url(#p8bba70af27)" style="fill: none; stroke: #dcdcdc; stroke-width: 0.5; stroke-linecap: square"/>
     </g>
     <g id="line2d_70">
      <g>
       <use xlink:href="#m6f880fdf1d" x="325.754903" y="307.584" style="stroke: #000000; stroke-width: 0.6"/>
      </g>
     </g>
    </g>
    <g id="xtick_36">
     <g id="line2d_71">
      <path d="M 333.881425 307.584 
L 333.881425 41.472 
" clip-path="url(#p8bba70af27)" style="fill: none; stroke: #dcdcdc; stroke-width: 0.5; stroke-linecap: square"/>
     </g>
     <g id="line2d_72">
      <g>
       <use xlink:href="#m6f880fdf1d" x="333.881425" y="307.584" style="stroke: #000000; stroke-width: 0.6"/>
      </g>
     </g>
    </g>
    <g id="xtick_37">
     <g id="line2d_73">
      <path d="M 342.007946 307.584 
L 342.007946 41.472 
" clip-path="url(#p8bba70af27)" style="fill: none; stroke: #dcdcdc; stroke-width: 0.5; stroke-linecap: square"/>
     </g>
     <g id="line2d_74">
      <g>
       <use xlink:href="#m6f880fdf1d" x="342.007946" y="307.584" style="stroke: #000000; stroke-width: 0.6"/>
      </g>
     </g>
    </g>
    <g id="xtick_38">
     <g id="line2d_75">
      <path d="M 350.134468 307.584 
L 350.134468 41.472 
" clip-path="url(#p8bba70af27)" style="fill: none; stroke: #dcdcdc; stroke-width: 0.5; stroke-linecap: square"/>
     </g>
     <g id="line2d_76">
      <g>
       <use xlink:href="#m6f880fdf1d" x="350.134468" y="307.584" style="stroke: #000000; stroke-width: 0.6"/>
      </g>
     </g>
    </g>
    <g id="xtick_39">
     <g id="line2d_77">
      <path d="M 366.387512 307.584 
L 366.387512 41.472 
" clip-path="url(#p8bba70af27)" style="fill: none; stroke: #dcdcdc; stroke-width: 0.5; stroke-linecap: square"/>
     </g>
     <g id="line2d_78">
      <g>
       <use xlink:href="#m6f880fdf1d" x="366.387512" y="307.584" style="stroke: #000000; stroke-width: 0.6"/>
      </g>
     </g>
    </g>
    <g id="xtick_40">
     <g id="line2d_79">
      <path d="M 374.514033 307.584 
L 374.514033 41.472 
" clip-path="url(#p8bba70af27)" style="fill: none; stroke: #dcdcdc; stroke-width: 0.5; stroke-linecap: square"/>
     </g>
     <g id="line2d_80">
      <g>
       <use xlink:href="#m6f880fdf1d" x="374.514033" y="307.584" style="stroke: #000000; stroke-width: 0.6"/>
      </g>
     </g>
    </g>
    <g id="xtick_41">
     <g id="line2d_81">
      <path d="M 382.640555 307.584 
L 382.640555 41.472 
" clip-path="url(#p8bba70af27)" style="fill: none; stroke: #dcdcdc; stroke-width: 0.5; stroke-linecap: square"/>
     </g>
     <g id="line2d_82">
      <g>
       <use xlink:href="#m6f880fdf1d" x="382.640555" y="307.584" style="stroke: #000000; stroke-width: 0.6"/>
      </g>
     </g>
    </g>
    <g id="xtick_42">
     <g id="line2d_83">
      <path d="M 390.767077 307.584 
L 390.767077 41.472 
" clip-path="url(#p8bba70af27)" style="fill: none; stroke: #dcdcdc; stroke-width: 0.5; stroke-linecap: square"/>
     </g>
     <g id="line2d_84">
      <g>
       <use xlink:href="#m6f880fdf1d" x="390.767077" y="307.584" style="stroke: #000000; stroke-width: 0.6"/>
      </g>
     </g>
    </g>
    <g id="xtick_43">
     <g id="line2d_85">
      <path d="M 407.020121 307.584 
L 407.020121 41.472 
" clip-path="url(#p8bba70af27)" style="fill: none; stroke: #dcdcdc; stroke-width: 0.5; stroke-linecap: square"/>
     </g>
     <g id="line2d_86">
      <g>
       <use xlink:href="#m6f880fdf1d" x="407.020121" y="307.584" style="stroke: #000000; stroke-width: 0.6"/>
      </g>
     </g>
    </g>
    <g id="text_10">
     <!-- x100 episodes -->
     <g transform="translate(199.908437 335.860562) scale(0.1 -0.1)">
      <defs>
       <path id="DejaVuSans-78" d="M 3513 3500 
L 2247 1797 
L 3578 0 
L 2900 0 
L 1881 1375 
L 863 0 
L 184 0 
L 1544 1831 
L 300 3500 
L 978 3500 
L 1906 2253 
L 2834 3500 
L 3513 3500 
z
" transform="scale(0.015625)"/>
       <path id="DejaVuSans-20" transform="scale(0.015625)"/>
       <path id="DejaVuSans-65" d="M 3597 1894 
L 3597 1613 
L 953 1613 
Q 991 1019 1311 708 
Q 1631 397 2203 397 
Q 2534 397 2845 478 
Q 3156 559 3463 722 
L 3463 178 
Q 3153 47 2828 -22 
Q 2503 -91 2169 -91 
Q 1331 -91 842 396 
Q 353 884 353 1716 
Q 353 2575 817 3079 
Q 1281 3584 2069 3584 
Q 2775 3584 3186 3129 
Q 3597 2675 3597 1894 
z
M 3022 2063 
Q 3016 2534 2758 2815 
Q 2500 3097 2075 3097 
Q 1594 3097 1305 2825 
Q 1016 2553 972 2059 
L 3022 2063 
z
" transform="scale(0.015625)"/>
       <path id="DejaVuSans-70" d="M 1159 525 
L 1159 -1331 
L 581 -1331 
L 581 3500 
L 1159 3500 
L 1159 2969 
Q 1341 3281 1617 3432 
Q 1894 3584 2278 3584 
Q 2916 3584 3314 3078 
Q 3713 2572 3713 1747 
Q 3713 922 3314 415 
Q 2916 -91 2278 -91 
Q 1894 -91 1617 61 
Q 1341 213 1159 525 
z
M 3116 1747 
Q 3116 2381 2855 2742 
Q 2594 3103 2138 3103 
Q 1681 3103 1420 2742 
Q 1159 2381 1159 1747 
Q 1159 1113 1420 752 
Q 1681 391 2138 391 
Q 2594 391 2855 752 
Q 3116 1113 3116 1747 
z
" transform="scale(0.015625)"/>
       <path id="DejaVuSans-69" d="M 603 3500 
L 1178 3500 
L 1178 0 
L 603 0 
L 603 3500 
z
M 603 4863 
L 1178 4863 
L 1178 4134 
L 603 4134 
L 603 4863 
z
" transform="scale(0.015625)"/>
       <path id="DejaVuSans-73" d="M 2834 3397 
L 2834 2853 
Q 2591 2978 2328 3040 
Q 2066 3103 1784 3103 
Q 1356 3103 1142 2972 
Q 928 2841 928 2578 
Q 928 2378 1081 2264 
Q 1234 2150 1697 2047 
L 1894 2003 
Q 2506 1872 2764 1633 
Q 3022 1394 3022 966 
Q 3022 478 2636 193 
Q 2250 -91 1575 -91 
Q 1294 -91 989 -36 
Q 684 19 347 128 
L 347 722 
Q 666 556 975 473 
Q 1284 391 1588 391 
Q 1994 391 2212 530 
Q 2431 669 2431 922 
Q 2431 1156 2273 1281 
Q 2116 1406 1581 1522 
L 1381 1569 
Q 847 1681 609 1914 
Q 372 2147 372 2553 
Q 372 3047 722 3315 
Q 1072 3584 1716 3584 
Q 2034 3584 2315 3537 
Q 2597 3491 2834 3397 
z
" transform="scale(0.015625)"/>
       <path id="DejaVuSans-6f" d="M 1959 3097 
Q 1497 3097 1228 2736 
Q 959 2375 959 1747 
Q 959 1119 1226 758 
Q 1494 397 1959 397 
Q 2419 397 2687 759 
Q 2956 1122 2956 1747 
Q 2956 2369 2687 2733 
Q 2419 3097 1959 3097 
z
M 1959 3584 
Q 2709 3584 3137 3096 
Q 3566 2609 3566 1747 
Q 3566 888 3137 398 
Q 2709 -91 1959 -91 
Q 1206 -91 779 398 
Q 353 888 353 1747 
Q 353 2609 779 3096 
Q 1206 3584 1959 3584 
z
" transform="scale(0.015625)"/>
       <path id="DejaVuSans-64" d="M 2906 2969 
L 2906 4863 
L 3481 4863 
L 3481 0 
L 2906 0 
L 2906 525 
Q 2725 213 2448 61 
Q 2172 -91 1784 -91 
Q 1150 -91 751 415 
Q 353 922 353 1747 
Q 353 2572 751 3078 
Q 1150 3584 1784 3584 
Q 2172 3584 2448 3432 
Q 2725 3281 2906 2969 
z
M 947 1747 
Q 947 1113 1208 752 
Q 1469 391 1925 391 
Q 2381 391 2643 752 
Q 2906 1113 2906 1747 
Q 2906 2381 2643 2742 
Q 2381 3103 1925 3103 
Q 1469 3103 1208 2742 
Q 947 2381 947 1747 
z
" transform="scale(0.015625)"/>
      </defs>
      <use xlink:href="#DejaVuSans-78"/>
      <use xlink:href="#DejaVuSans-31" x="59.179688"/>
      <use xlink:href="#DejaVuSans-30" x="122.802734"/>
      <use xlink:href="#DejaVuSans-30" x="186.425781"/>
      <use xlink:href="#DejaVuSans-20" x="250.048828"/>
      <use xlink:href="#DejaVuSans-65" x="281.835938"/>
      <use xlink:href="#DejaVuSans-70" x="343.359375"/>
      <use xlink:href="#DejaVuSans-69" x="406.835938"/>
      <use xlink:href="#DejaVuSans-73" x="434.619141"/>
      <use xlink:href="#DejaVuSans-6f" x="486.71875"/>
      <use xlink:href="#DejaVuSans-64" x="547.900391"/>
      <use xlink:href="#DejaVuSans-65" x="611.376953"/>
      <use xlink:href="#DejaVuSans-73" x="672.900391"/>
     </g>
    </g>
   </g>
   <g id="matplotlib.axis_2">
    <g id="ytick_1">
     <g id="line2d_87">
      <path d="M 57.6 270.398945 
L 414.72 270.398945 
" clip-path="url(#p8bba70af27)" style="fill: none; stroke: #b0b0b0; stroke-width: 0.8; stroke-linecap: square"/>
     </g>
     <g id="line2d_88">
      <defs>
       <path id="m633c01de5e" d="M 0 0 
L -3.5 0 
" style="stroke: #000000; stroke-width: 0.8"/>
      </defs>
      <g>
       <use xlink:href="#m633c01de5e" x="57.6" y="270.398945" style="stroke: #000000; stroke-width: 0.8"/>
      </g>
     </g>
     <g id="text_11">
      <!-- 2 -->
      <g transform="translate(44.2375 274.198164) scale(0.1 -0.1)">
       <use xlink:href="#DejaVuSans-32"/>
      </g>
     </g>
    </g>
    <g id="ytick_2">
     <g id="line2d_89">
      <path d="M 57.6 220.548454 
L 414.72 220.548454 
" clip-path="url(#p8bba70af27)" style="fill: none; stroke: #b0b0b0; stroke-width: 0.8; stroke-linecap: square"/>
     </g>
     <g id="line2d_90">
      <g>
       <use xlink:href="#m633c01de5e" x="57.6" y="220.548454" style="stroke: #000000; stroke-width: 0.8"/>
      </g>
     </g>
     <g id="text_12">
      <!-- 4 -->
      <g transform="translate(44.2375 224.347672) scale(0.1 -0.1)">
       <use xlink:href="#DejaVuSans-34"/>
      </g>
     </g>
    </g>
    <g id="ytick_3">
     <g id="line2d_91">
      <path d="M 57.6 170.697962 
L 414.72 170.697962 
" clip-path="url(#p8bba70af27)" style="fill: none; stroke: #b0b0b0; stroke-width: 0.8; stroke-linecap: square"/>
     </g>
     <g id="line2d_92">
      <g>
       <use xlink:href="#m633c01de5e" x="57.6" y="170.697962" style="stroke: #000000; stroke-width: 0.8"/>
      </g>
     </g>
     <g id="text_13">
      <!-- 6 -->
      <g transform="translate(44.2375 174.497181) scale(0.1 -0.1)">
       <use xlink:href="#DejaVuSans-36"/>
      </g>
     </g>
    </g>
    <g id="ytick_4">
     <g id="line2d_93">
      <path d="M 57.6 120.84747 
L 414.72 120.84747 
" clip-path="url(#p8bba70af27)" style="fill: none; stroke: #b0b0b0; stroke-width: 0.8; stroke-linecap: square"/>
     </g>
     <g id="line2d_94">
      <g>
       <use xlink:href="#m633c01de5e" x="57.6" y="120.84747" style="stroke: #000000; stroke-width: 0.8"/>
      </g>
     </g>
     <g id="text_14">
      <!-- 8 -->
      <g transform="translate(44.2375 124.646689) scale(0.1 -0.1)">
       <use xlink:href="#DejaVuSans-38"/>
      </g>
     </g>
    </g>
    <g id="ytick_5">
     <g id="line2d_95">
      <path d="M 57.6 70.996978 
L 414.72 70.996978 
" clip-path="url(#p8bba70af27)" style="fill: none; stroke: #b0b0b0; stroke-width: 0.8; stroke-linecap: square"/>
     </g>
     <g id="line2d_96">
      <g>
       <use xlink:href="#m633c01de5e" x="57.6" y="70.996978" style="stroke: #000000; stroke-width: 0.8"/>
      </g>
     </g>
     <g id="text_15">
      <!-- 10 -->
      <g transform="translate(37.875 74.796197) scale(0.1 -0.1)">
       <use xlink:href="#DejaVuSans-31"/>
       <use xlink:href="#DejaVuSans-30" x="63.623047"/>
      </g>
     </g>
    </g>
    <g id="ytick_6">
     <g id="line2d_97">
      <path d="M 57.6 295.324191 
L 414.72 295.324191 
" clip-path="url(#p8bba70af27)" style="fill: none; stroke: #dcdcdc; stroke-width: 0.5; stroke-linecap: square"/>
     </g>
     <g id="line2d_98">
      <defs>
       <path id="m961a4fca69" d="M 0 0 
L -2 0 
" style="stroke: #000000; stroke-width: 0.6"/>
      </defs>
      <g>
       <use xlink:href="#m961a4fca69" x="57.6" y="295.324191" style="stroke: #000000; stroke-width: 0.6"/>
      </g>
     </g>
    </g>
    <g id="ytick_7">
     <g id="line2d_99">
      <path d="M 57.6 282.861568 
L 414.72 282.861568 
" clip-path="url(#p8bba70af27)" style="fill: none; stroke: #dcdcdc; stroke-width: 0.5; stroke-linecap: square"/>
     </g>
     <g id="line2d_100">
      <g>
       <use xlink:href="#m961a4fca69" x="57.6" y="282.861568" style="stroke: #000000; stroke-width: 0.6"/>
      </g>
     </g>
    </g>
    <g id="ytick_8">
     <g id="line2d_101">
      <path d="M 57.6 257.936322 
L 414.72 257.936322 
" clip-path="url(#p8bba70af27)" style="fill: none; stroke: #dcdcdc; stroke-width: 0.5; stroke-linecap: square"/>
     </g>
     <g id="line2d_102">
      <g>
       <use xlink:href="#m961a4fca69" x="57.6" y="257.936322" style="stroke: #000000; stroke-width: 0.6"/>
      </g>
     </g>
    </g>
    <g id="ytick_9">
     <g id="line2d_103">
      <path d="M 57.6 245.473699 
L 414.72 245.473699 
" clip-path="url(#p8bba70af27)" style="fill: none; stroke: #dcdcdc; stroke-width: 0.5; stroke-linecap: square"/>
     </g>
     <g id="line2d_104">
      <g>
       <use xlink:href="#m961a4fca69" x="57.6" y="245.473699" style="stroke: #000000; stroke-width: 0.6"/>
      </g>
     </g>
    </g>
    <g id="ytick_10">
     <g id="line2d_105">
      <path d="M 57.6 233.011077 
L 414.72 233.011077 
" clip-path="url(#p8bba70af27)" style="fill: none; stroke: #dcdcdc; stroke-width: 0.5; stroke-linecap: square"/>
     </g>
     <g id="line2d_106">
      <g>
       <use xlink:href="#m961a4fca69" x="57.6" y="233.011077" style="stroke: #000000; stroke-width: 0.6"/>
      </g>
     </g>
    </g>
    <g id="ytick_11">
     <g id="line2d_107">
      <path d="M 57.6 208.085831 
L 414.72 208.085831 
" clip-path="url(#p8bba70af27)" style="fill: none; stroke: #dcdcdc; stroke-width: 0.5; stroke-linecap: square"/>
     </g>
     <g id="line2d_108">
      <g>
       <use xlink:href="#m961a4fca69" x="57.6" y="208.085831" style="stroke: #000000; stroke-width: 0.6"/>
      </g>
     </g>
    </g>
    <g id="ytick_12">
     <g id="line2d_109">
      <path d="M 57.6 195.623208 
L 414.72 195.623208 
" clip-path="url(#p8bba70af27)" style="fill: none; stroke: #dcdcdc; stroke-width: 0.5; stroke-linecap: square"/>
     </g>
     <g id="line2d_110">
      <g>
       <use xlink:href="#m961a4fca69" x="57.6" y="195.623208" style="stroke: #000000; stroke-width: 0.6"/>
      </g>
     </g>
    </g>
    <g id="ytick_13">
     <g id="line2d_111">
      <path d="M 57.6 183.160585 
L 414.72 183.160585 
" clip-path="url(#p8bba70af27)" style="fill: none; stroke: #dcdcdc; stroke-width: 0.5; stroke-linecap: square"/>
     </g>
     <g id="line2d_112">
      <g>
       <use xlink:href="#m961a4fca69" x="57.6" y="183.160585" style="stroke: #000000; stroke-width: 0.6"/>
      </g>
     </g>
    </g>
    <g id="ytick_14">
     <g id="line2d_113">
      <path d="M 57.6 158.235339 
L 414.72 158.235339 
" clip-path="url(#p8bba70af27)" style="fill: none; stroke: #dcdcdc; stroke-width: 0.5; stroke-linecap: square"/>
     </g>
     <g id="line2d_114">
      <g>
       <use xlink:href="#m961a4fca69" x="57.6" y="158.235339" style="stroke: #000000; stroke-width: 0.6"/>
      </g>
     </g>
    </g>
    <g id="ytick_15">
     <g id="line2d_115">
      <path d="M 57.6 145.772716 
L 414.72 145.772716 
" clip-path="url(#p8bba70af27)" style="fill: none; stroke: #dcdcdc; stroke-width: 0.5; stroke-linecap: square"/>
     </g>
     <g id="line2d_116">
      <g>
       <use xlink:href="#m961a4fca69" x="57.6" y="145.772716" style="stroke: #000000; stroke-width: 0.6"/>
      </g>
     </g>
    </g>
    <g id="ytick_16">
     <g id="line2d_117">
      <path d="M 57.6 133.310093 
L 414.72 133.310093 
" clip-path="url(#p8bba70af27)" style="fill: none; stroke: #dcdcdc; stroke-width: 0.5; stroke-linecap: square"/>
     </g>
     <g id="line2d_118">
      <g>
       <use xlink:href="#m961a4fca69" x="57.6" y="133.310093" style="stroke: #000000; stroke-width: 0.6"/>
      </g>
     </g>
    </g>
    <g id="ytick_17">
     <g id="line2d_119">
      <path d="M 57.6 108.384847 
L 414.72 108.384847 
" clip-path="url(#p8bba70af27)" style="fill: none; stroke: #dcdcdc; stroke-width: 0.5; stroke-linecap: square"/>
     </g>
     <g id="line2d_120">
      <g>
       <use xlink:href="#m961a4fca69" x="57.6" y="108.384847" style="stroke: #000000; stroke-width: 0.6"/>
      </g>
     </g>
    </g>
    <g id="ytick_18">
     <g id="line2d_121">
      <path d="M 57.6 95.922224 
L 414.72 95.922224 
" clip-path="url(#p8bba70af27)" style="fill: none; stroke: #dcdcdc; stroke-width: 0.5; stroke-linecap: square"/>
     </g>
     <g id="line2d_122">
      <g>
       <use xlink:href="#m961a4fca69" x="57.6" y="95.922224" style="stroke: #000000; stroke-width: 0.6"/>
      </g>
     </g>
    </g>
    <g id="ytick_19">
     <g id="line2d_123">
      <path d="M 57.6 83.459601 
L 414.72 83.459601 
" clip-path="url(#p8bba70af27)" style="fill: none; stroke: #dcdcdc; stroke-width: 0.5; stroke-linecap: square"/>
     </g>
     <g id="line2d_124">
      <g>
       <use xlink:href="#m961a4fca69" x="57.6" y="83.459601" style="stroke: #000000; stroke-width: 0.6"/>
      </g>
     </g>
    </g>
    <g id="ytick_20">
     <g id="line2d_125">
      <path d="M 57.6 58.534355 
L 414.72 58.534355 
" clip-path="url(#p8bba70af27)" style="fill: none; stroke: #dcdcdc; stroke-width: 0.5; stroke-linecap: square"/>
     </g>
     <g id="line2d_126">
      <g>
       <use xlink:href="#m961a4fca69" x="57.6" y="58.534355" style="stroke: #000000; stroke-width: 0.6"/>
      </g>
     </g>
    </g>
    <g id="ytick_21">
     <g id="line2d_127">
      <path d="M 57.6 46.071732 
L 414.72 46.071732 
" clip-path="url(#p8bba70af27)" style="fill: none; stroke: #dcdcdc; stroke-width: 0.5; stroke-linecap: square"/>
     </g>
     <g id="line2d_128">
      <g>
       <use xlink:href="#m961a4fca69" x="57.6" y="46.071732" style="stroke: #000000; stroke-width: 0.6"/>
      </g>
     </g>
    </g>
    <g id="text_16">
     <!-- Average total episode reward -->
     <g transform="translate(31.795312 248.130344) rotate(-90) scale(0.1 -0.1)">
      <defs>
       <path id="DejaVuSans-41" d="M 2188 4044 
L 1331 1722 
L 3047 1722 
L 2188 4044 
z
M 1831 4666 
L 2547 4666 
L 4325 0 
L 3669 0 
L 3244 1197 
L 1141 1197 
L 716 0 
L 50 0 
L 1831 4666 
z
" transform="scale(0.015625)"/>
       <path id="DejaVuSans-76" d="M 191 3500 
L 800 3500 
L 1894 563 
L 2988 3500 
L 3597 3500 
L 2284 0 
L 1503 0 
L 191 3500 
z
" transform="scale(0.015625)"/>
       <path id="DejaVuSans-72" d="M 2631 2963 
Q 2534 3019 2420 3045 
Q 2306 3072 2169 3072 
Q 1681 3072 1420 2755 
Q 1159 2438 1159 1844 
L 1159 0 
L 581 0 
L 581 3500 
L 1159 3500 
L 1159 2956 
Q 1341 3275 1631 3429 
Q 1922 3584 2338 3584 
Q 2397 3584 2469 3576 
Q 2541 3569 2628 3553 
L 2631 2963 
z
" transform="scale(0.015625)"/>
       <path id="DejaVuSans-61" d="M 2194 1759 
Q 1497 1759 1228 1600 
Q 959 1441 959 1056 
Q 959 750 1161 570 
Q 1363 391 1709 391 
Q 2188 391 2477 730 
Q 2766 1069 2766 1631 
L 2766 1759 
L 2194 1759 
z
M 3341 1997 
L 3341 0 
L 2766 0 
L 2766 531 
Q 2569 213 2275 61 
Q 1981 -91 1556 -91 
Q 1019 -91 701 211 
Q 384 513 384 1019 
Q 384 1609 779 1909 
Q 1175 2209 1959 2209 
L 2766 2209 
L 2766 2266 
Q 2766 2663 2505 2880 
Q 2244 3097 1772 3097 
Q 1472 3097 1187 3025 
Q 903 2953 641 2809 
L 641 3341 
Q 956 3463 1253 3523 
Q 1550 3584 1831 3584 
Q 2591 3584 2966 3190 
Q 3341 2797 3341 1997 
z
" transform="scale(0.015625)"/>
       <path id="DejaVuSans-67" d="M 2906 1791 
Q 2906 2416 2648 2759 
Q 2391 3103 1925 3103 
Q 1463 3103 1205 2759 
Q 947 2416 947 1791 
Q 947 1169 1205 825 
Q 1463 481 1925 481 
Q 2391 481 2648 825 
Q 2906 1169 2906 1791 
z
M 3481 434 
Q 3481 -459 3084 -895 
Q 2688 -1331 1869 -1331 
Q 1566 -1331 1297 -1286 
Q 1028 -1241 775 -1147 
L 775 -588 
Q 1028 -725 1275 -790 
Q 1522 -856 1778 -856 
Q 2344 -856 2625 -561 
Q 2906 -266 2906 331 
L 2906 616 
Q 2728 306 2450 153 
Q 2172 0 1784 0 
Q 1141 0 747 490 
Q 353 981 353 1791 
Q 353 2603 747 3093 
Q 1141 3584 1784 3584 
Q 2172 3584 2450 3431 
Q 2728 3278 2906 2969 
L 2906 3500 
L 3481 3500 
L 3481 434 
z
" transform="scale(0.015625)"/>
       <path id="DejaVuSans-74" d="M 1172 4494 
L 1172 3500 
L 2356 3500 
L 2356 3053 
L 1172 3053 
L 1172 1153 
Q 1172 725 1289 603 
Q 1406 481 1766 481 
L 2356 481 
L 2356 0 
L 1766 0 
Q 1100 0 847 248 
Q 594 497 594 1153 
L 594 3053 
L 172 3053 
L 172 3500 
L 594 3500 
L 594 4494 
L 1172 4494 
z
" transform="scale(0.015625)"/>
       <path id="DejaVuSans-6c" d="M 603 4863 
L 1178 4863 
L 1178 0 
L 603 0 
L 603 4863 
z
" transform="scale(0.015625)"/>
       <path id="DejaVuSans-77" d="M 269 3500 
L 844 3500 
L 1563 769 
L 2278 3500 
L 2956 3500 
L 3675 769 
L 4391 3500 
L 4966 3500 
L 4050 0 
L 3372 0 
L 2619 2869 
L 1863 0 
L 1184 0 
L 269 3500 
z
" transform="scale(0.015625)"/>
      </defs>
      <use xlink:href="#DejaVuSans-41"/>
      <use xlink:href="#DejaVuSans-76" x="62.533203"/>
      <use xlink:href="#DejaVuSans-65" x="121.712891"/>
      <use xlink:href="#DejaVuSans-72" x="183.236328"/>
      <use xlink:href="#DejaVuSans-61" x="224.349609"/>
      <use xlink:href="#DejaVuSans-67" x="285.628906"/>
      <use xlink:href="#DejaVuSans-65" x="349.105469"/>
      <use xlink:href="#DejaVuSans-20" x="410.628906"/>
      <use xlink:href="#DejaVuSans-74" x="442.416016"/>
      <use xlink:href="#DejaVuSans-6f" x="481.625"/>
      <use xlink:href="#DejaVuSans-74" x="542.806641"/>
      <use xlink:href="#DejaVuSans-61" x="582.015625"/>
      <use xlink:href="#DejaVuSans-6c" x="643.294922"/>
      <use xlink:href="#DejaVuSans-20" x="671.078125"/>
      <use xlink:href="#DejaVuSans-65" x="702.865234"/>
      <use xlink:href="#DejaVuSans-70" x="764.388672"/>
      <use xlink:href="#DejaVuSans-69" x="827.865234"/>
      <use xlink:href="#DejaVuSans-73" x="855.648438"/>
      <use xlink:href="#DejaVuSans-6f" x="907.748047"/>
      <use xlink:href="#DejaVuSans-64" x="968.929688"/>
      <use xlink:href="#DejaVuSans-65" x="1032.40625"/>
      <use xlink:href="#DejaVuSans-20" x="1093.929688"/>
      <use xlink:href="#DejaVuSans-72" x="1125.716797"/>
      <use xlink:href="#DejaVuSans-65" x="1164.580078"/>
      <use xlink:href="#DejaVuSans-77" x="1226.103516"/>
      <use xlink:href="#DejaVuSans-61" x="1307.890625"/>
      <use xlink:href="#DejaVuSans-72" x="1369.169922"/>
      <use xlink:href="#DejaVuSans-64" x="1408.533203"/>
     </g>
    </g>
   </g>
   <g id="line2d_129">
    <path d="M 57.6 53.568 
L 414.72 53.568 
" clip-path="url(#p8bba70af27)" style="fill: none; stroke-dasharray: 7.4,3.2; stroke-dashoffset: 0; stroke: #4682b4; stroke-width: 2"/>
   </g>
   <g id="line2d_130">
    <path d="M 57.6 71.536288 
L 414.72 71.536288 
" clip-path="url(#p8bba70af27)" style="fill: none; stroke-dasharray: 2,3.3; stroke-dashoffset: 0; stroke: #0000ff; stroke-width: 2"/>
   </g>
   <g id="line2d_131">
    <path d="M 73.832727 262.487772 
L 74.239053 271.955751 
L 74.645379 274.490474 
L 75.864358 259.540088 
L 76.270684 271.851115 
L 77.083336 285.379891 
L 77.489662 280.264557 
L 77.895988 277.994864 
L 78.302314 288.175481 
L 78.70864 258.453422 
L 79.521293 282.690407 
L 79.927619 271.715871 
L 80.333945 267.135284 
L 80.740271 272.216669 
L 81.146597 259.200755 
L 81.552923 277.483722 
L 81.959249 282.816828 
L 82.365575 284.898659 
L 82.771901 285.327448 
L 83.178227 279.707278 
L 83.584553 271.897376 
L 83.99088 282.411144 
L 84.397206 285.140359 
L 84.803532 261.054396 
L 85.209858 285.187418 
L 85.616184 272.014724 
L 86.02251 276.578911 
L 86.428836 295.40622 
L 86.835162 274.57183 
L 87.647814 250.784272 
L 88.05414 259.138143 
L 88.866793 285.508256 
L 89.273119 274.743191 
L 89.679445 279.890055 
L 90.492097 274.754532 
L 90.898423 266.904575 
L 91.304749 271.883717 
L 91.711075 267.723569 
L 92.117401 261.237821 
L 92.523727 272.23307 
L 93.33638 282.214584 
L 93.742706 253.955985 
L 94.149032 269.193411 
L 94.555358 264.77728 
L 94.961684 277.091075 
L 95.36801 264.298516 
L 95.774336 289.950956 
L 96.586988 269.027882 
L 96.993314 250.154137 
L 97.39964 271.728932 
L 97.805967 248.410193 
L 98.212293 261.692956 
L 98.618619 267.510209 
L 99.024945 250.702493 
L 99.431271 284.573808 
L 99.837597 262.057363 
L 100.243923 278.966101 
L 100.650249 279.8169 
L 101.056575 275.656203 
L 101.869227 285.196117 
L 102.275554 256.614985 
L 102.68188 263.849787 
L 103.088206 268.913401 
L 103.494532 287.511248 
L 103.900858 271.950293 
L 104.307184 266.604027 
L 104.71351 256.338664 
L 105.119836 263.824962 
L 105.526162 282.433078 
L 105.932488 268.823894 
L 106.338814 276.982824 
L 106.745141 275.202489 
L 107.151467 280.478042 
L 107.557793 272.347227 
L 107.964119 266.481669 
L 108.370445 264.318731 
L 108.776771 257.327473 
L 109.183097 279.725997 
L 109.589423 269.525739 
L 109.995749 269.090594 
L 110.402075 267.105996 
L 110.808401 264.294179 
L 111.214728 272.246803 
L 111.621054 258.358506 
L 112.02738 268.183689 
L 112.433706 265.272695 
L 112.840032 281.952495 
L 113.246358 277.419091 
L 113.652684 269.155001 
L 114.05901 264.356293 
L 114.465336 266.808514 
L 114.871662 280.14018 
L 115.277988 282.455013 
L 115.684314 271.306698 
L 116.090641 272.371504 
L 116.496967 274.466721 
L 116.903293 277.345985 
L 117.309619 282.197635 
L 117.715945 267.144381 
L 118.528597 287.716956 
L 119.341249 267.583514 
L 119.747575 274.372802 
L 120.153901 269.330749 
L 120.560228 279.797558 
L 120.966554 285.503445 
L 121.37288 274.168964 
L 121.779206 277.330033 
L 122.185532 276.938034 
L 122.591858 266.392013 
L 122.998184 241.805052 
L 123.40451 269.648023 
L 123.810836 263.751432 
L 124.217162 266.133912 
L 124.623488 274.347079 
L 125.029815 268.669432 
L 125.436141 271.544036 
L 125.842467 267.230972 
L 126.248793 266.830523 
L 126.655119 254.692352 
L 127.061445 279.65172 
L 127.467771 288.089016 
L 127.874097 266.287725 
L 128.280423 250.931431 
L 128.686749 270.168611 
L 129.093075 266.701161 
L 129.499402 272.309092 
L 129.905728 282.68415 
L 130.312054 271.946205 
L 130.71838 289.918304 
L 131.124706 256.633829 
L 131.531032 295.488 
L 132.343684 256.640608 
L 132.75001 268.782543 
L 133.156336 266.775463 
L 133.562662 272.121729 
L 133.968989 272.880702 
L 134.375315 266.991365 
L 134.781641 253.972137 
L 135.187967 274.168066 
L 135.594293 274.206601 
L 136.000619 272.267815 
L 136.406945 266.588174 
L 136.813271 266.314969 
L 137.219597 279.785145 
L 137.625923 266.901759 
L 138.032249 275.184892 
L 138.438575 279.973281 
L 138.844902 265.991738 
L 139.251228 272.750468 
L 139.657554 266.997223 
L 140.06388 275.092344 
L 140.470206 267.216764 
L 140.876532 269.401537 
L 141.282858 266.771849 
L 141.689184 279.846062 
L 142.09551 271.831025 
L 142.501836 266.306868 
L 142.908162 248.557551 
L 143.314489 277.299475 
L 143.720815 269.844533 
L 144.127141 269.455251 
L 144.533467 261.981017 
L 144.939793 256.88353 
L 145.346119 276.432425 
L 145.752445 279.382054 
L 146.565097 253.399404 
L 146.971423 253.241378 
L 147.377749 255.757507 
L 147.784076 263.629124 
L 148.190402 263.623441 
L 148.596728 264.34727 
L 149.003054 248.441623 
L 149.40938 245.540001 
L 149.815706 279.577194 
L 150.628358 258.492529 
L 151.034684 238.574616 
L 151.44101 256.568749 
L 151.847336 257.7437 
L 152.253663 250.620289 
L 152.659989 240.22367 
L 153.472641 274.247752 
L 153.878967 223.5254 
L 154.285293 232.4866 
L 154.691619 245.277089 
L 155.097945 263.509807 
L 155.504271 286.811921 
L 155.910597 258.245769 
L 156.316923 251.288685 
L 156.72325 228.876601 
L 157.535902 245.008993 
L 157.942228 263.722245 
L 158.348554 235.262549 
L 158.75488 225.077844 
L 159.161206 229.869698 
L 159.567532 221.367522 
L 159.973858 263.617858 
L 160.380184 240.161506 
L 160.78651 242.448074 
L 161.599163 227.369397 
L 162.005489 227.140433 
L 162.411815 229.480465 
L 162.818141 205.502478 
L 163.224467 242.205451 
L 163.630793 203.952677 
L 164.037119 247.764355 
L 164.443445 218.399548 
L 164.849771 242.704131 
L 165.256097 239.706646 
L 165.662423 218.929409 
L 166.06875 220.709919 
L 166.475076 240.330724 
L 166.881402 235.519479 
L 167.287728 249.921385 
L 167.694054 237.343259 
L 168.506706 200.698137 
L 168.913032 234.414717 
L 169.319358 203.285278 
L 169.725684 224.624354 
L 170.13201 205.573266 
L 170.538337 200.032234 
L 170.944663 211.644308 
L 171.350989 237.413274 
L 171.757315 226.719845 
L 172.163641 229.442056 
L 172.569967 235.181866 
L 173.382619 200.653023 
L 173.788945 229.371741 
L 174.195271 221.587163 
L 174.601597 226.837193 
L 175.41425 200.400904 
L 175.820576 223.659947 
L 176.633228 231.841983 
L 177.039554 227.607458 
L 177.44588 214.4147 
L 177.852206 236.978229 
L 178.258532 224.157878 
L 178.664858 226.887816 
L 179.071184 206.09383 
L 179.477511 236.084634 
L 179.883837 195.403193 
L 180.290163 215.692642 
L 180.696489 211.000938 
L 181.102815 238.077158 
L 181.509141 205.271421 
L 181.915467 192.103539 
L 182.321793 211.494657 
L 182.728119 204.886326 
L 183.134445 216.202488 
L 183.540771 216.247478 
L 183.947098 207.893059 
L 184.353424 203.212721 
L 184.75975 242.263752 
L 185.166076 226.027272 
L 185.572402 196.74771 
L 185.978728 220.9498 
L 186.385054 215.963828 
L 186.79138 186.140149 
L 187.197706 207.741862 
L 187.604032 186.678733 
L 188.010358 203.343603 
L 188.416684 205.249412 
L 188.823011 223.525176 
L 189.229337 216.235663 
L 189.635663 204.264466 
L 190.041989 226.220667 
L 190.448315 200.093326 
L 190.854641 198.167726 
L 191.260967 215.722378 
L 191.667293 176.474612 
L 192.479945 207.700835 
L 192.886271 208.215741 
L 193.292598 204.745623 
L 193.698924 226.189062 
L 194.10525 217.571781 
L 194.511576 186.994686 
L 194.917902 186.861286 
L 195.324228 178.832316 
L 195.730554 207.779175 
L 196.543206 179.318882 
L 196.949532 199.714163 
L 197.355858 205.937898 
L 197.762185 209.466814 
L 198.168511 203.228274 
L 198.574837 179.648867 
L 198.981163 188.979682 
L 199.387489 173.425706 
L 199.793815 173.685178 
L 200.200141 166.135944 
L 200.606467 199.605016 
L 201.012793 176.439617 
L 201.419119 181.554851 
L 201.825445 179.517586 
L 202.231772 194.223605 
L 202.638098 178.836802 
L 203.044424 157.766246 
L 203.45075 178.910955 
L 203.857076 155.0641 
L 204.263402 186.683145 
L 204.669728 189.674773 
L 205.48238 173.992606 
L 205.888706 152.547024 
L 206.295032 165.59863 
L 206.701359 183.849294 
L 207.107685 213.587456 
L 207.514011 204.283036 
L 207.920337 229.495246 
L 208.326663 199.540983 
L 208.732989 192.817747 
L 209.139315 215.907074 
L 209.545641 198.187218 
L 209.951967 200.236921 
L 210.358293 197.647163 
L 210.764619 207.869131 
L 211.170946 178.016114 
L 211.577272 165.622633 
L 211.983598 184.943662 
L 212.389924 187.903111 
L 212.79625 181.457393 
L 213.202576 183.864324 
L 213.608902 173.470472 
L 214.015228 176.533111 
L 214.421554 187.011012 
L 214.82788 173.861324 
L 215.234206 144.695073 
L 215.640532 193.20506 
L 216.046859 161.166672 
L 216.453185 166.767076 
L 216.859511 166.681109 
L 217.265837 148.257738 
L 217.672163 168.656634 
L 218.078489 171.163316 
L 218.484815 147.983959 
L 218.891141 158.580753 
L 219.297467 155.299668 
L 219.703793 144.418826 
L 220.110119 145.917158 
L 220.516446 178.868931 
L 220.922772 142.672813 
L 221.329098 166.345814 
L 221.735424 171.487319 
L 222.14175 169.113389 
L 222.548076 173.942356 
L 222.954402 155.610212 
L 223.360728 142.606512 
L 223.767054 156.022476 
L 224.17338 142.107434 
L 224.579706 165.751721 
L 224.986033 158.697752 
L 225.392359 157.319934 
L 225.798685 132.43098 
L 226.205011 147.566262 
L 226.611337 150.880821 
L 227.017663 157.533469 
L 227.423989 139.489884 
L 227.830315 197.311444 
L 228.236641 132.15725 
L 228.642967 139.549181 
L 229.049293 137.032055 
L 229.45562 140.186918 
L 229.861946 124.270504 
L 230.268272 126.941992 
L 231.080924 147.542408 
L 231.48725 127.952686 
L 231.893576 147.741711 
L 232.299902 147.848241 
L 232.706228 139.922162 
L 233.112554 153.759537 
L 233.51888 153.20525 
L 233.925207 147.544153 
L 234.331533 148.480694 
L 234.737859 154.099592 
L 235.144185 150.188547 
L 235.550511 137.146811 
L 235.956837 143.580316 
L 236.363163 142.167927 
L 236.769489 166.10551 
L 237.175815 167.012415 
L 237.582141 132.382176 
L 237.988467 145.431963 
L 238.394793 140.134077 
L 238.80112 129.858096 
L 239.207446 129.801291 
L 239.613772 137.544095 
L 240.020098 132.449948 
L 240.426424 153.33703 
L 240.83275 144.425257 
L 241.239076 111.12969 
L 241.645402 118.968356 
L 242.051728 142.160873 
L 242.458054 138.012864 
L 242.86438 145.462746 
L 243.270707 133.106055 
L 243.677033 149.953103 
L 244.083359 139.738214 
L 244.489685 134.924127 
L 245.302337 114.715735 
L 245.708663 121.958014 
L 246.114989 150.738423 
L 246.521315 121.818632 
L 246.927641 111.376874 
L 247.333967 130.174896 
L 247.740294 113.906362 
L 248.14662 143.617405 
L 249.771924 98.451763 
L 250.17825 106.078913 
L 250.584576 123.987876 
L 250.990902 103.364778 
L 251.397228 108.731657 
L 251.803554 103.885716 
L 252.209881 100.635139 
L 252.616207 90.27516 
L 253.022533 95.529701 
L 253.428859 90.710604 
L 253.835185 113.746143 
L 254.241511 114.476054 
L 254.647837 103.581129 
L 255.054163 104.445736 
L 255.460489 121.720801 
L 255.866815 110.806659 
L 256.273141 117.07962 
L 256.679468 133.178787 
L 257.085794 98.568537 
L 257.49212 108.84412 
L 257.898446 88.400907 
L 258.304772 96.400116 
L 258.711098 92.702854 
L 259.117424 96.392364 
L 259.52375 88.179545 
L 259.930076 93.123393 
L 260.336402 135.099377 
L 260.742728 129.89663 
L 261.149054 148.531442 
L 261.555381 93.172471 
L 261.961707 97.828931 
L 262.368033 97.661084 
L 262.774359 97.98247 
L 263.180685 95.844283 
L 263.587011 103.671458 
L 263.993337 93.383687 
L 264.399663 90.34186 
L 264.805989 82.308603 
L 265.212315 87.180542 
L 265.618641 82.37635 
L 266.024968 80.609549 
L 266.431294 90.756592 
L 266.83762 89.913944 
L 267.243946 78.968695 
L 267.650272 95.495953 
L 268.056598 79.264283 
L 268.462924 90.9123 
L 268.86925 81.789535 
L 269.275576 95.238824 
L 269.681902 82.752372 
L 270.088228 86.011647 
L 270.494555 75.179883 
L 270.900881 92.50931 
L 271.307207 87.34607 
L 271.713533 85.057309 
L 272.119859 96.238974 
L 272.526185 80.158452 
L 272.932511 93.444754 
L 273.745163 82.051225 
L 274.151489 84.794622 
L 274.557815 93.231419 
L 274.964142 68.939075 
L 275.370468 64.345876 
L 276.18312 82.712691 
L 276.589446 71.585488 
L 276.995772 76.374725 
L 277.402098 64.261703 
L 278.21475 82.259351 
L 278.621076 73.632973 
L 279.027402 77.053364 
L 279.433729 81.617476 
L 279.840055 69.305576 
L 280.246381 71.296455 
L 281.059033 81.858204 
L 281.465359 97.502285 
L 281.871685 77.330633 
L 282.278011 70.160412 
L 282.684337 87.076354 
L 283.090663 71.086684 
L 283.903316 76.813907 
L 284.309642 76.957277 
L 284.715968 87.838194 
L 285.122294 87.750507 
L 285.52862 80.253367 
L 285.934946 90.016436 
L 287.153924 66.509761 
L 287.56025 93.295876 
L 287.966576 90.656915 
L 288.779229 75.314305 
L 289.185555 84.146267 
L 289.591881 76.939581 
L 290.404533 67.160808 
L 290.810859 90.07855 
L 291.217185 72.931127 
L 291.623511 69.924071 
L 292.029837 69.721603 
L 292.436163 77.080608 
L 292.842489 64.398942 
L 293.248816 69.226015 
L 293.655142 69.973174 
L 294.061468 75.307775 
L 294.467794 70.047974 
L 294.87412 74.605107 
L 295.280446 74.71909 
L 295.686772 66.946551 
L 296.093098 67.542364 
L 296.499424 69.213552 
L 296.90575 59.282387 
L 297.312076 83.064835 
L 297.718403 78.080883 
L 298.124729 79.074777 
L 298.531055 77.412437 
L 298.937381 66.9884 
L 299.343707 71.642343 
L 299.750033 61.614393 
L 300.156359 82.232232 
L 300.562685 74.327265 
L 300.969011 85.83884 
L 301.375337 71.752712 
L 301.781663 77.509272 
L 302.18799 93.790393 
L 302.594316 74.845087 
L 303.000642 69.743463 
L 303.406968 69.765771 
L 303.813294 64.698643 
L 304.21962 62.098865 
L 304.625946 73.354807 
L 305.032272 75.244664 
L 305.438598 69.987805 
L 305.844924 76.71306 
L 306.25125 70.590373 
L 306.657577 67.840121 
L 307.063903 72.415698 
L 307.470229 66.411481 
L 307.876555 64.71118 
L 308.282881 64.167236 
L 308.689207 64.503428 
L 309.095533 64.62282 
L 309.501859 77.425374 
L 309.908185 69.421304 
L 310.314511 83.456934 
L 310.720837 67.384238 
L 311.127163 77.788883 
L 311.53349 79.876547 
L 311.939816 85.380041 
L 312.346142 70.393089 
L 312.752468 72.831152 
L 313.158794 62.865889 
L 313.56512 70.044285 
L 313.971446 83.455164 
L 314.377772 67.325265 
L 314.784098 69.997526 
L 315.190424 70.397152 
L 315.59675 80.503542 
L 316.003077 61.80051 
L 316.409403 64.923493 
L 316.815729 66.963326 
L 317.222055 71.899447 
L 317.628381 67.597075 
L 318.034707 82.408803 
L 318.441033 72.356625 
L 318.847359 74.708173 
L 319.253685 85.273287 
L 319.660011 61.68715 
L 320.066337 80.452171 
L 320.472664 80.52241 
L 320.87899 68.950267 
L 321.285316 79.807828 
L 321.691642 72.520185 
L 322.097968 61.624238 
L 322.504294 67.288426 
L 322.91062 61.956193 
L 323.316946 83.063938 
L 323.723272 64.988947 
L 324.129598 90.085704 
L 324.535924 72.932075 
L 324.942251 66.872124 
L 325.348577 59.031863 
L 325.754903 67.657145 
L 326.161229 63.990516 
L 326.567555 63.911927 
L 326.973881 69.76946 
L 327.380207 59.095747 
L 327.786533 59.73964 
L 328.192859 59.444999 
L 328.599185 82.921689 
L 329.005511 72.170633 
L 329.411838 70.117865 
L 329.818164 64.548418 
L 330.22449 80.064459 
L 330.630816 64.319031 
L 331.037142 72.709293 
L 331.849794 59.780518 
L 332.25612 67.298844 
L 332.662446 64.950163 
L 333.068772 61.816412 
L 333.881425 72.999846 
L 334.287751 61.710604 
L 334.694077 64.404151 
L 335.100403 59.383434 
L 335.506729 61.039093 
L 335.913055 59.274037 
L 336.725707 71.890997 
L 337.132033 69.617715 
L 337.538359 71.989676 
L 337.944685 64.807068 
L 338.351011 62.476258 
L 338.757338 56.714264 
L 339.163664 62.100659 
L 339.56999 60.205817 
L 339.976316 62.124164 
L 340.382642 61.699014 
L 340.788968 62.20066 
L 341.195294 62.048865 
L 341.60162 57.063068 
L 342.007946 60.005144 
L 342.414272 59.067332 
L 342.820598 56.514264 
L 343.633251 109.199279 
L 344.039577 64.158039 
L 344.445903 57.712545 
L 344.852229 56.912993 
L 345.258555 57.362694 
L 345.664881 56.663367 
L 346.071207 57.262694 
L 346.477533 60.454771 
L 346.883859 57.262769 
L 347.290185 56.962918 
L 347.696512 57.312769 
L 348.102838 59.306041 
L 348.509164 56.764189 
L 348.91549 67.396751 
L 349.321816 62.397519 
L 349.728142 77.33477 
L 350.134468 64.891315 
L 350.540794 67.383092 
L 350.94712 64.291539 
L 351.353446 69.619509 
L 351.759772 77.952243 
L 352.166099 66.937952 
L 352.572425 69.182645 
L 352.978751 61.750659 
L 353.791403 72.423749 
L 354.197729 64.896774 
L 354.604055 65.491315 
L 355.010381 64.585133 
L 355.416707 66.936157 
L 355.823033 64.441165 
L 356.229359 66.140493 
L 356.635686 67.031222 
L 357.042012 62.797893 
L 357.448338 67.338102 
L 357.854664 67.432643 
L 358.26099 72.044487 
L 358.667316 72.47502 
L 359.073642 59.755293 
L 359.479968 61.402977 
L 359.886294 59.429595 
L 360.29262 70.085861 
L 360.698946 69.843189 
L 361.105272 64.842436 
L 361.511599 67.854677 
L 361.917925 61.300808 
L 362.324251 66.995654 
L 362.730577 69.935512 
L 363.136903 69.101613 
L 363.543229 65.115567 
L 363.949555 67.198819 
L 364.355881 66.798794 
L 364.762207 81.465407 
L 365.168533 76.370911 
L 365.574859 57.976753 
L 365.981186 64.893483 
L 366.387512 57.512171 
L 366.793838 59.007536 
L 367.200164 56.912993 
L 367.60649 57.412246 
L 368.012816 62.385655 
L 368.419142 57.312545 
L 368.825468 59.655892 
L 369.231794 56.613441 
L 369.63812 60.305144 
L 370.044446 62.076108 
L 370.450773 59.799187 
L 370.857099 65.439371 
L 371.263425 64.298941 
L 371.669751 67.521352 
L 372.076077 59.930668 
L 372.482403 60.306416 
L 372.888729 57.063143 
L 373.295055 60.254397 
L 373.701381 64.871101 
L 374.107707 57.212993 
L 374.514033 68.111382 
L 374.92036 57.612096 
L 375.326686 57.611947 
L 376.139338 56.513591 
L 376.545664 59.411275 
L 376.95199 69.351713 
L 377.358316 70.009515 
L 377.764642 70.094285 
L 378.170968 75.219091 
L 378.577294 64.494679 
L 378.98362 71.945683 
L 379.389947 61.987823 
L 379.796273 61.661701 
L 380.202599 61.874089 
L 380.608925 69.402485 
L 381.015251 70.180028 
L 381.421577 58.720023 
L 381.827903 60.591785 
L 382.234229 59.57977 
L 382.640555 57.112918 
L 383.046881 57.162619 
L 383.453207 57.611947 
L 383.859534 56.41374 
L 384.26586 56.313964 
L 384.672186 57.012843 
L 385.078512 56.363815 
L 385.484838 57.262545 
L 385.891164 57.112694 
L 386.29749 57.462171 
L 386.703816 59.220896 
L 387.110142 56.563591 
L 387.516468 73.471158 
L 387.922794 69.678009 
L 388.32912 59.755293 
L 388.735447 56.563591 
L 389.141773 56.663516 
L 389.548099 61.938496 
L 389.954425 61.528949 
L 390.360751 61.626108 
L 390.767077 57.911498 
L 391.173403 59.305742 
L 391.579729 61.942284 
L 391.986055 61.848416 
L 392.392381 56.912993 
L 392.798707 57.212619 
L 393.205034 60.104995 
L 393.61136 56.563591 
L 394.424012 57.162694 
L 395.236664 56.464264 
L 395.64299 56.363815 
L 396.049316 59.256714 
L 396.455642 56.363815 
L 396.861968 56.563516 
L 397.268294 57.512096 
L 397.674621 57.562096 
L 398.080947 56.813217 
L 398.487273 56.363815 
L 398.487273 56.363815 
" clip-path="url(#p8bba70af27)" style="fill: none; stroke: #000000; stroke-width: 0.7; stroke-linecap: square"/>
   </g>
   <g id="patch_3">
    <path d="M 57.6 307.584 
L 57.6 41.472 
" style="fill: none; stroke: #000000; stroke-width: 0.8; stroke-linejoin: miter; stroke-linecap: square"/>
   </g>
   <g id="patch_4">
    <path d="M 414.72 307.584 
L 414.72 41.472 
" style="fill: none; stroke: #000000; stroke-width: 0.8; stroke-linejoin: miter; stroke-linecap: square"/>
   </g>
   <g id="patch_5">
    <path d="M 57.6 307.584 
L 414.72 307.584 
" style="fill: none; stroke: #000000; stroke-width: 0.8; stroke-linejoin: miter; stroke-linecap: square"/>
   </g>
   <g id="patch_6">
    <path d="M 57.6 41.472 
L 414.72 41.472 
" style="fill: none; stroke: #000000; stroke-width: 0.8; stroke-linejoin: miter; stroke-linecap: square"/>
   </g>
   <g id="legend_1">
    <g id="patch_7">
     <path d="M 303.535625 302.584 
L 407.72 302.584 
Q 409.72 302.584 409.72 300.584 
L 409.72 257.549625 
Q 409.72 255.549625 407.72 255.549625 
L 303.535625 255.549625 
Q 301.535625 255.549625 301.535625 257.549625 
L 301.535625 300.584 
Q 301.535625 302.584 303.535625 302.584 
z
" style="fill: #ffffff; opacity: 0.8; stroke: #cccccc; stroke-linejoin: miter"/>
    </g>
    <g id="line2d_132">
     <path d="M 305.535625 263.648062 
L 315.535625 263.648062 
L 325.535625 263.648062 
" style="fill: none; stroke-dasharray: 7.4,3.2; stroke-dashoffset: 0; stroke: #4682b4; stroke-width: 2"/>
    </g>
    <g id="text_17">
     <!-- Optimal policy -->
     <g transform="translate(333.535625 267.148062) scale(0.1 -0.1)">
      <defs>
       <path id="DejaVuSans-4f" d="M 2522 4238 
Q 1834 4238 1429 3725 
Q 1025 3213 1025 2328 
Q 1025 1447 1429 934 
Q 1834 422 2522 422 
Q 3209 422 3611 934 
Q 4013 1447 4013 2328 
Q 4013 3213 3611 3725 
Q 3209 4238 2522 4238 
z
M 2522 4750 
Q 3503 4750 4090 4092 
Q 4678 3434 4678 2328 
Q 4678 1225 4090 567 
Q 3503 -91 2522 -91 
Q 1538 -91 948 565 
Q 359 1222 359 2328 
Q 359 3434 948 4092 
Q 1538 4750 2522 4750 
z
" transform="scale(0.015625)"/>
       <path id="DejaVuSans-6d" d="M 3328 2828 
Q 3544 3216 3844 3400 
Q 4144 3584 4550 3584 
Q 5097 3584 5394 3201 
Q 5691 2819 5691 2113 
L 5691 0 
L 5113 0 
L 5113 2094 
Q 5113 2597 4934 2840 
Q 4756 3084 4391 3084 
Q 3944 3084 3684 2787 
Q 3425 2491 3425 1978 
L 3425 0 
L 2847 0 
L 2847 2094 
Q 2847 2600 2669 2842 
Q 2491 3084 2119 3084 
Q 1678 3084 1418 2786 
Q 1159 2488 1159 1978 
L 1159 0 
L 581 0 
L 581 3500 
L 1159 3500 
L 1159 2956 
Q 1356 3278 1631 3431 
Q 1906 3584 2284 3584 
Q 2666 3584 2933 3390 
Q 3200 3197 3328 2828 
z
" transform="scale(0.015625)"/>
       <path id="DejaVuSans-63" d="M 3122 3366 
L 3122 2828 
Q 2878 2963 2633 3030 
Q 2388 3097 2138 3097 
Q 1578 3097 1268 2742 
Q 959 2388 959 1747 
Q 959 1106 1268 751 
Q 1578 397 2138 397 
Q 2388 397 2633 464 
Q 2878 531 3122 666 
L 3122 134 
Q 2881 22 2623 -34 
Q 2366 -91 2075 -91 
Q 1284 -91 818 406 
Q 353 903 353 1747 
Q 353 2603 823 3093 
Q 1294 3584 2113 3584 
Q 2378 3584 2631 3529 
Q 2884 3475 3122 3366 
z
" transform="scale(0.015625)"/>
       <path id="DejaVuSans-79" d="M 2059 -325 
Q 1816 -950 1584 -1140 
Q 1353 -1331 966 -1331 
L 506 -1331 
L 506 -850 
L 844 -850 
Q 1081 -850 1212 -737 
Q 1344 -625 1503 -206 
L 1606 56 
L 191 3500 
L 800 3500 
L 1894 763 
L 2988 3500 
L 3597 3500 
L 2059 -325 
z
" transform="scale(0.015625)"/>
      </defs>
      <use xlink:href="#DejaVuSans-4f"/>
      <use xlink:href="#DejaVuSans-70" x="78.710938"/>
      <use xlink:href="#DejaVuSans-74" x="142.1875"/>
      <use xlink:href="#DejaVuSans-69" x="181.396484"/>
      <use xlink:href="#DejaVuSans-6d" x="209.179688"/>
      <use xlink:href="#DejaVuSans-61" x="306.591797"/>
      <use xlink:href="#DejaVuSans-6c" x="367.871094"/>
      <use xlink:href="#DejaVuSans-20" x="395.654297"/>
      <use xlink:href="#DejaVuSans-70" x="427.441406"/>
      <use xlink:href="#DejaVuSans-6f" x="490.917969"/>
      <use xlink:href="#DejaVuSans-6c" x="552.099609"/>
      <use xlink:href="#DejaVuSans-69" x="579.882812"/>
      <use xlink:href="#DejaVuSans-63" x="607.666016"/>
      <use xlink:href="#DejaVuSans-79" x="662.646484"/>
     </g>
    </g>
    <g id="line2d_133">
     <path d="M 305.535625 278.326188 
L 315.535625 278.326188 
L 325.535625 278.326188 
" style="fill: none; stroke-dasharray: 2,3.3; stroke-dashoffset: 0; stroke: #0000ff; stroke-width: 2"/>
    </g>
    <g id="text_18">
     <!-- Human -->
     <g transform="translate(333.535625 281.826188) scale(0.1 -0.1)">
      <defs>
       <path id="DejaVuSans-48" d="M 628 4666 
L 1259 4666 
L 1259 2753 
L 3553 2753 
L 3553 4666 
L 4184 4666 
L 4184 0 
L 3553 0 
L 3553 2222 
L 1259 2222 
L 1259 0 
L 628 0 
L 628 4666 
z
" transform="scale(0.015625)"/>
       <path id="DejaVuSans-75" d="M 544 1381 
L 544 3500 
L 1119 3500 
L 1119 1403 
Q 1119 906 1312 657 
Q 1506 409 1894 409 
Q 2359 409 2629 706 
Q 2900 1003 2900 1516 
L 2900 3500 
L 3475 3500 
L 3475 0 
L 2900 0 
L 2900 538 
Q 2691 219 2414 64 
Q 2138 -91 1772 -91 
Q 1169 -91 856 284 
Q 544 659 544 1381 
z
M 1991 3584 
L 1991 3584 
z
" transform="scale(0.015625)"/>
       <path id="DejaVuSans-6e" d="M 3513 2113 
L 3513 0 
L 2938 0 
L 2938 2094 
Q 2938 2591 2744 2837 
Q 2550 3084 2163 3084 
Q 1697 3084 1428 2787 
Q 1159 2491 1159 1978 
L 1159 0 
L 581 0 
L 581 3500 
L 1159 3500 
L 1159 2956 
Q 1366 3272 1645 3428 
Q 1925 3584 2291 3584 
Q 2894 3584 3203 3211 
Q 3513 2838 3513 2113 
z
" transform="scale(0.015625)"/>
      </defs>
      <use xlink:href="#DejaVuSans-48"/>
      <use xlink:href="#DejaVuSans-75" x="75.195312"/>
      <use xlink:href="#DejaVuSans-6d" x="138.574219"/>
      <use xlink:href="#DejaVuSans-61" x="235.986328"/>
      <use xlink:href="#DejaVuSans-6e" x="297.265625"/>
     </g>
    </g>
    <g id="line2d_134">
     <path d="M 305.535625 293.004312 
L 315.535625 293.004312 
L 325.535625 293.004312 
" style="fill: none; stroke: #000000; stroke-width: 0.7; stroke-linecap: square"/>
    </g>
    <g id="text_19">
     <!-- Agent -->
     <g transform="translate(333.535625 296.504312) scale(0.1 -0.1)">
      <use xlink:href="#DejaVuSans-41"/>
      <use xlink:href="#DejaVuSans-67" x="68.408203"/>
      <use xlink:href="#DejaVuSans-65" x="131.884766"/>
      <use xlink:href="#DejaVuSans-6e" x="193.408203"/>
      <use xlink:href="#DejaVuSans-74" x="256.787109"/>
     </g>
    </g>
   </g>
  </g>
 </g>
 <defs>
  <clipPath id="p8bba70af27">
   <rect x="57.6" y="41.472" width="357.12" height="266.112"/>
  </clipPath>
 </defs>
</svg>
