<?xml version="1.0" encoding="utf-8" standalone="no"?>
<!DOCTYPE svg PUBLIC "-//W3C//DTD SVG 1.1//EN"
  "http://www.w3.org/Graphics/SVG/1.1/DTD/svg11.dtd">
<svg xmlns:xlink="http://www.w3.org/1999/xlink" width="460.8pt" height="345.6pt" viewBox="0 0 460.8 345.6" xmlns="http://www.w3.org/2000/svg" version="1.1">
 <metadata>
  <rdf:RDF xmlns:dc="http://purl.org/dc/elements/1.1/" xmlns:cc="http://creativecommons.org/ns#" xmlns:rdf="http://www.w3.org/1999/02/22-rdf-syntax-ns#">
   <cc:Work>
    <dc:type rdf:resource="http://purl.org/dc/dcmitype/StillImage"/>
    <dc:date>2024-05-09T20:50:56.438841</dc:date>
    <dc:format>image/svg+xml</dc:format>
    <dc:creator>
     <cc:Agent>
      <dc:title>Matplotlib v3.8.3, https://matplotlib.org/</dc:title>
     </cc:Agent>
    </dc:creator>
   </cc:Work>
  </rdf:RDF>
 </metadata>
 <defs>
  <style type="text/css">*{stroke-linejoin: round; stroke-linecap: butt}</style>
 </defs>
 <g id="figure_1">
  <g id="patch_1">
   <path d="M 0 345.6 
L 460.8 345.6 
L 460.8 0 
L 0 0 
z
" style="fill: #ffffff"/>
  </g>
  <g id="axes_1">
   <g id="patch_2">
    <path d="M 57.6 307.584 
L 414.72 307.584 
L 414.72 41.472 
L 57.6 41.472 
z
" style="fill: #ffffff"/>
   </g>
   <g id="matplotlib.axis_1">
    <g id="xtick_1">
     <g id="line2d_1">
      <path d="M 73.832727 307.584 
L 73.832727 41.472 
" clip-path="url(#p6f90828a0d)" style="fill: none; stroke: #b0b0b0; stroke-width: 0.8; stroke-linecap: square"/>
     </g>
     <g id="line2d_2">
      <defs>
       <path id="m25d07ba2d4" d="M 0 0 
L 0 3.5 
" style="stroke: #000000; stroke-width: 0.8"/>
      </defs>
      <g>
       <use xlink:href="#m25d07ba2d4" x="73.832727" y="307.584" style="stroke: #000000; stroke-width: 0.8"/>
      </g>
     </g>
     <g id="text_1">
      <!-- 0 -->
      <g transform="translate(70.651477 322.182437) scale(0.1 -0.1)">
       <defs>
        <path id="DejaVuSans-30" d="M 2034 4250 
Q 1547 4250 1301 3770 
Q 1056 3291 1056 2328 
Q 1056 1369 1301 889 
Q 1547 409 2034 409 
Q 2525 409 2770 889 
Q 3016 1369 3016 2328 
Q 3016 3291 2770 3770 
Q 2525 4250 2034 4250 
z
M 2034 4750 
Q 2819 4750 3233 4129 
Q 3647 3509 3647 2328 
Q 3647 1150 3233 529 
Q 2819 -91 2034 -91 
Q 1250 -91 836 529 
Q 422 1150 422 2328 
Q 422 3509 836 4129 
Q 1250 4750 2034 4750 
z
" transform="scale(0.015625)"/>
       </defs>
       <use xlink:href="#DejaVuSans-30"/>
      </g>
     </g>
    </g>
    <g id="xtick_2">
     <g id="line2d_3">
      <path d="M 114.465336 307.584 
L 114.465336 41.472 
" clip-path="url(#p6f90828a0d)" style="fill: none; stroke: #b0b0b0; stroke-width: 0.8; stroke-linecap: square"/>
     </g>
     <g id="line2d_4">
      <g>
       <use xlink:href="#m25d07ba2d4" x="114.465336" y="307.584" style="stroke: #000000; stroke-width: 0.8"/>
      </g>
     </g>
     <g id="text_2">
      <!-- 100 -->
      <g transform="translate(104.921586 322.182437) scale(0.1 -0.1)">
       <defs>
        <path id="DejaVuSans-31" d="M 794 531 
L 1825 531 
L 1825 4091 
L 703 3866 
L 703 4441 
L 1819 4666 
L 2450 4666 
L 2450 531 
L 3481 531 
L 3481 0 
L 794 0 
L 794 531 
z
" transform="scale(0.015625)"/>
       </defs>
       <use xlink:href="#DejaVuSans-31"/>
       <use xlink:href="#DejaVuSans-30" x="63.623047"/>
       <use xlink:href="#DejaVuSans-30" x="127.246094"/>
      </g>
     </g>
    </g>
    <g id="xtick_3">
     <g id="line2d_5">
      <path d="M 155.097945 307.584 
L 155.097945 41.472 
" clip-path="url(#p6f90828a0d)" style="fill: none; stroke: #b0b0b0; stroke-width: 0.8; stroke-linecap: square"/>
     </g>
     <g id="line2d_6">
      <g>
       <use xlink:href="#m25d07ba2d4" x="155.097945" y="307.584" style="stroke: #000000; stroke-width: 0.8"/>
      </g>
     </g>
     <g id="text_3">
      <!-- 200 -->
      <g transform="translate(145.554195 322.182437) scale(0.1 -0.1)">
       <defs>
        <path id="DejaVuSans-32" d="M 1228 531 
L 3431 531 
L 3431 0 
L 469 0 
L 469 531 
Q 828 903 1448 1529 
Q 2069 2156 2228 2338 
Q 2531 2678 2651 2914 
Q 2772 3150 2772 3378 
Q 2772 3750 2511 3984 
Q 2250 4219 1831 4219 
Q 1534 4219 1204 4116 
Q 875 4013 500 3803 
L 500 4441 
Q 881 4594 1212 4672 
Q 1544 4750 1819 4750 
Q 2544 4750 2975 4387 
Q 3406 4025 3406 3419 
Q 3406 3131 3298 2873 
Q 3191 2616 2906 2266 
Q 2828 2175 2409 1742 
Q 1991 1309 1228 531 
z
" transform="scale(0.015625)"/>
       </defs>
       <use xlink:href="#DejaVuSans-32"/>
       <use xlink:href="#DejaVuSans-30" x="63.623047"/>
       <use xlink:href="#DejaVuSans-30" x="127.246094"/>
      </g>
     </g>
    </g>
    <g id="xtick_4">
     <g id="line2d_7">
      <path d="M 195.730554 307.584 
L 195.730554 41.472 
" clip-path="url(#p6f90828a0d)" style="fill: none; stroke: #b0b0b0; stroke-width: 0.8; stroke-linecap: square"/>
     </g>
     <g id="line2d_8">
      <g>
       <use xlink:href="#m25d07ba2d4" x="195.730554" y="307.584" style="stroke: #000000; stroke-width: 0.8"/>
      </g>
     </g>
     <g id="text_4">
      <!-- 300 -->
      <g transform="translate(186.186804 322.182437) scale(0.1 -0.1)">
       <defs>
        <path id="DejaVuSans-33" d="M 2597 2516 
Q 3050 2419 3304 2112 
Q 3559 1806 3559 1356 
Q 3559 666 3084 287 
Q 2609 -91 1734 -91 
Q 1441 -91 1130 -33 
Q 819 25 488 141 
L 488 750 
Q 750 597 1062 519 
Q 1375 441 1716 441 
Q 2309 441 2620 675 
Q 2931 909 2931 1356 
Q 2931 1769 2642 2001 
Q 2353 2234 1838 2234 
L 1294 2234 
L 1294 2753 
L 1863 2753 
Q 2328 2753 2575 2939 
Q 2822 3125 2822 3475 
Q 2822 3834 2567 4026 
Q 2313 4219 1838 4219 
Q 1578 4219 1281 4162 
Q 984 4106 628 3988 
L 628 4550 
Q 988 4650 1302 4700 
Q 1616 4750 1894 4750 
Q 2613 4750 3031 4423 
Q 3450 4097 3450 3541 
Q 3450 3153 3228 2886 
Q 3006 2619 2597 2516 
z
" transform="scale(0.015625)"/>
       </defs>
       <use xlink:href="#DejaVuSans-33"/>
       <use xlink:href="#DejaVuSans-30" x="63.623047"/>
       <use xlink:href="#DejaVuSans-30" x="127.246094"/>
      </g>
     </g>
    </g>
    <g id="xtick_5">
     <g id="line2d_9">
      <path d="M 236.363163 307.584 
L 236.363163 41.472 
" clip-path="url(#p6f90828a0d)" style="fill: none; stroke: #b0b0b0; stroke-width: 0.8; stroke-linecap: square"/>
     </g>
     <g id="line2d_10">
      <g>
       <use xlink:href="#m25d07ba2d4" x="236.363163" y="307.584" style="stroke: #000000; stroke-width: 0.8"/>
      </g>
     </g>
     <g id="text_5">
      <!-- 400 -->
      <g transform="translate(226.819413 322.182437) scale(0.1 -0.1)">
       <defs>
        <path id="DejaVuSans-34" d="M 2419 4116 
L 825 1625 
L 2419 1625 
L 2419 4116 
z
M 2253 4666 
L 3047 4666 
L 3047 1625 
L 3713 1625 
L 3713 1100 
L 3047 1100 
L 3047 0 
L 2419 0 
L 2419 1100 
L 313 1100 
L 313 1709 
L 2253 4666 
z
" transform="scale(0.015625)"/>
       </defs>
       <use xlink:href="#DejaVuSans-34"/>
       <use xlink:href="#DejaVuSans-30" x="63.623047"/>
       <use xlink:href="#DejaVuSans-30" x="127.246094"/>
      </g>
     </g>
    </g>
    <g id="xtick_6">
     <g id="line2d_11">
      <path d="M 276.995772 307.584 
L 276.995772 41.472 
" clip-path="url(#p6f90828a0d)" style="fill: none; stroke: #b0b0b0; stroke-width: 0.8; stroke-linecap: square"/>
     </g>
     <g id="line2d_12">
      <g>
       <use xlink:href="#m25d07ba2d4" x="276.995772" y="307.584" style="stroke: #000000; stroke-width: 0.8"/>
      </g>
     </g>
     <g id="text_6">
      <!-- 500 -->
      <g transform="translate(267.452022 322.182437) scale(0.1 -0.1)">
       <defs>
        <path id="DejaVuSans-35" d="M 691 4666 
L 3169 4666 
L 3169 4134 
L 1269 4134 
L 1269 2991 
Q 1406 3038 1543 3061 
Q 1681 3084 1819 3084 
Q 2600 3084 3056 2656 
Q 3513 2228 3513 1497 
Q 3513 744 3044 326 
Q 2575 -91 1722 -91 
Q 1428 -91 1123 -41 
Q 819 9 494 109 
L 494 744 
Q 775 591 1075 516 
Q 1375 441 1709 441 
Q 2250 441 2565 725 
Q 2881 1009 2881 1497 
Q 2881 1984 2565 2268 
Q 2250 2553 1709 2553 
Q 1456 2553 1204 2497 
Q 953 2441 691 2322 
L 691 4666 
z
" transform="scale(0.015625)"/>
       </defs>
       <use xlink:href="#DejaVuSans-35"/>
       <use xlink:href="#DejaVuSans-30" x="63.623047"/>
       <use xlink:href="#DejaVuSans-30" x="127.246094"/>
      </g>
     </g>
    </g>
    <g id="xtick_7">
     <g id="line2d_13">
      <path d="M 317.628381 307.584 
L 317.628381 41.472 
" clip-path="url(#p6f90828a0d)" style="fill: none; stroke: #b0b0b0; stroke-width: 0.8; stroke-linecap: square"/>
     </g>
     <g id="line2d_14">
      <g>
       <use xlink:href="#m25d07ba2d4" x="317.628381" y="307.584" style="stroke: #000000; stroke-width: 0.8"/>
      </g>
     </g>
     <g id="text_7">
      <!-- 600 -->
      <g transform="translate(308.084631 322.182437) scale(0.1 -0.1)">
       <defs>
        <path id="DejaVuSans-36" d="M 2113 2584 
Q 1688 2584 1439 2293 
Q 1191 2003 1191 1497 
Q 1191 994 1439 701 
Q 1688 409 2113 409 
Q 2538 409 2786 701 
Q 3034 994 3034 1497 
Q 3034 2003 2786 2293 
Q 2538 2584 2113 2584 
z
M 3366 4563 
L 3366 3988 
Q 3128 4100 2886 4159 
Q 2644 4219 2406 4219 
Q 1781 4219 1451 3797 
Q 1122 3375 1075 2522 
Q 1259 2794 1537 2939 
Q 1816 3084 2150 3084 
Q 2853 3084 3261 2657 
Q 3669 2231 3669 1497 
Q 3669 778 3244 343 
Q 2819 -91 2113 -91 
Q 1303 -91 875 529 
Q 447 1150 447 2328 
Q 447 3434 972 4092 
Q 1497 4750 2381 4750 
Q 2619 4750 2861 4703 
Q 3103 4656 3366 4563 
z
" transform="scale(0.015625)"/>
       </defs>
       <use xlink:href="#DejaVuSans-36"/>
       <use xlink:href="#DejaVuSans-30" x="63.623047"/>
       <use xlink:href="#DejaVuSans-30" x="127.246094"/>
      </g>
     </g>
    </g>
    <g id="xtick_8">
     <g id="line2d_15">
      <path d="M 358.26099 307.584 
L 358.26099 41.472 
" clip-path="url(#p6f90828a0d)" style="fill: none; stroke: #b0b0b0; stroke-width: 0.8; stroke-linecap: square"/>
     </g>
     <g id="line2d_16">
      <g>
       <use xlink:href="#m25d07ba2d4" x="358.26099" y="307.584" style="stroke: #000000; stroke-width: 0.8"/>
      </g>
     </g>
     <g id="text_8">
      <!-- 700 -->
      <g transform="translate(348.71724 322.182437) scale(0.1 -0.1)">
       <defs>
        <path id="DejaVuSans-37" d="M 525 4666 
L 3525 4666 
L 3525 4397 
L 1831 0 
L 1172 0 
L 2766 4134 
L 525 4134 
L 525 4666 
z
" transform="scale(0.015625)"/>
       </defs>
       <use xlink:href="#DejaVuSans-37"/>
       <use xlink:href="#DejaVuSans-30" x="63.623047"/>
       <use xlink:href="#DejaVuSans-30" x="127.246094"/>
      </g>
     </g>
    </g>
    <g id="xtick_9">
     <g id="line2d_17">
      <path d="M 398.893599 307.584 
L 398.893599 41.472 
" clip-path="url(#p6f90828a0d)" style="fill: none; stroke: #b0b0b0; stroke-width: 0.8; stroke-linecap: square"/>
     </g>
     <g id="line2d_18">
      <g>
       <use xlink:href="#m25d07ba2d4" x="398.893599" y="307.584" style="stroke: #000000; stroke-width: 0.8"/>
      </g>
     </g>
     <g id="text_9">
      <!-- 800 -->
      <g transform="translate(389.349849 322.182437) scale(0.1 -0.1)">
       <defs>
        <path id="DejaVuSans-38" d="M 2034 2216 
Q 1584 2216 1326 1975 
Q 1069 1734 1069 1313 
Q 1069 891 1326 650 
Q 1584 409 2034 409 
Q 2484 409 2743 651 
Q 3003 894 3003 1313 
Q 3003 1734 2745 1975 
Q 2488 2216 2034 2216 
z
M 1403 2484 
Q 997 2584 770 2862 
Q 544 3141 544 3541 
Q 544 4100 942 4425 
Q 1341 4750 2034 4750 
Q 2731 4750 3128 4425 
Q 3525 4100 3525 3541 
Q 3525 3141 3298 2862 
Q 3072 2584 2669 2484 
Q 3125 2378 3379 2068 
Q 3634 1759 3634 1313 
Q 3634 634 3220 271 
Q 2806 -91 2034 -91 
Q 1263 -91 848 271 
Q 434 634 434 1313 
Q 434 1759 690 2068 
Q 947 2378 1403 2484 
z
M 1172 3481 
Q 1172 3119 1398 2916 
Q 1625 2713 2034 2713 
Q 2441 2713 2670 2916 
Q 2900 3119 2900 3481 
Q 2900 3844 2670 4047 
Q 2441 4250 2034 4250 
Q 1625 4250 1398 4047 
Q 1172 3844 1172 3481 
z
" transform="scale(0.015625)"/>
       </defs>
       <use xlink:href="#DejaVuSans-38"/>
       <use xlink:href="#DejaVuSans-30" x="63.623047"/>
       <use xlink:href="#DejaVuSans-30" x="127.246094"/>
      </g>
     </g>
    </g>
    <g id="xtick_10">
     <g id="line2d_19">
      <path d="M 65.706205 307.584 
L 65.706205 41.472 
" clip-path="url(#p6f90828a0d)" style="fill: none; stroke: #dcdcdc; stroke-width: 0.5; stroke-linecap: square"/>
     </g>
     <g id="line2d_20">
      <defs>
       <path id="mc4493fb932" d="M 0 0 
L 0 2 
" style="stroke: #000000; stroke-width: 0.6"/>
      </defs>
      <g>
       <use xlink:href="#mc4493fb932" x="65.706205" y="307.584" style="stroke: #000000; stroke-width: 0.6"/>
      </g>
     </g>
    </g>
    <g id="xtick_11">
     <g id="line2d_21">
      <path d="M 81.959249 307.584 
L 81.959249 41.472 
" clip-path="url(#p6f90828a0d)" style="fill: none; stroke: #dcdcdc; stroke-width: 0.5; stroke-linecap: square"/>
     </g>
     <g id="line2d_22">
      <g>
       <use xlink:href="#mc4493fb932" x="81.959249" y="307.584" style="stroke: #000000; stroke-width: 0.6"/>
      </g>
     </g>
    </g>
    <g id="xtick_12">
     <g id="line2d_23">
      <path d="M 90.085771 307.584 
L 90.085771 41.472 
" clip-path="url(#p6f90828a0d)" style="fill: none; stroke: #dcdcdc; stroke-width: 0.5; stroke-linecap: square"/>
     </g>
     <g id="line2d_24">
      <g>
       <use xlink:href="#mc4493fb932" x="90.085771" y="307.584" style="stroke: #000000; stroke-width: 0.6"/>
      </g>
     </g>
    </g>
    <g id="xtick_13">
     <g id="line2d_25">
      <path d="M 98.212293 307.584 
L 98.212293 41.472 
" clip-path="url(#p6f90828a0d)" style="fill: none; stroke: #dcdcdc; stroke-width: 0.5; stroke-linecap: square"/>
     </g>
     <g id="line2d_26">
      <g>
       <use xlink:href="#mc4493fb932" x="98.212293" y="307.584" style="stroke: #000000; stroke-width: 0.6"/>
      </g>
     </g>
    </g>
    <g id="xtick_14">
     <g id="line2d_27">
      <path d="M 106.338814 307.584 
L 106.338814 41.472 
" clip-path="url(#p6f90828a0d)" style="fill: none; stroke: #dcdcdc; stroke-width: 0.5; stroke-linecap: square"/>
     </g>
     <g id="line2d_28">
      <g>
       <use xlink:href="#mc4493fb932" x="106.338814" y="307.584" style="stroke: #000000; stroke-width: 0.6"/>
      </g>
     </g>
    </g>
    <g id="xtick_15">
     <g id="line2d_29">
      <path d="M 122.591858 307.584 
L 122.591858 41.472 
" clip-path="url(#p6f90828a0d)" style="fill: none; stroke: #dcdcdc; stroke-width: 0.5; stroke-linecap: square"/>
     </g>
     <g id="line2d_30">
      <g>
       <use xlink:href="#mc4493fb932" x="122.591858" y="307.584" style="stroke: #000000; stroke-width: 0.6"/>
      </g>
     </g>
    </g>
    <g id="xtick_16">
     <g id="line2d_31">
      <path d="M 130.71838 307.584 
L 130.71838 41.472 
" clip-path="url(#p6f90828a0d)" style="fill: none; stroke: #dcdcdc; stroke-width: 0.5; stroke-linecap: square"/>
     </g>
     <g id="line2d_32">
      <g>
       <use xlink:href="#mc4493fb932" x="130.71838" y="307.584" style="stroke: #000000; stroke-width: 0.6"/>
      </g>
     </g>
    </g>
    <g id="xtick_17">
     <g id="line2d_33">
      <path d="M 138.844902 307.584 
L 138.844902 41.472 
" clip-path="url(#p6f90828a0d)" style="fill: none; stroke: #dcdcdc; stroke-width: 0.5; stroke-linecap: square"/>
     </g>
     <g id="line2d_34">
      <g>
       <use xlink:href="#mc4493fb932" x="138.844902" y="307.584" style="stroke: #000000; stroke-width: 0.6"/>
      </g>
     </g>
    </g>
    <g id="xtick_18">
     <g id="line2d_35">
      <path d="M 146.971423 307.584 
L 146.971423 41.472 
" clip-path="url(#p6f90828a0d)" style="fill: none; stroke: #dcdcdc; stroke-width: 0.5; stroke-linecap: square"/>
     </g>
     <g id="line2d_36">
      <g>
       <use xlink:href="#mc4493fb932" x="146.971423" y="307.584" style="stroke: #000000; stroke-width: 0.6"/>
      </g>
     </g>
    </g>
    <g id="xtick_19">
     <g id="line2d_37">
      <path d="M 163.224467 307.584 
L 163.224467 41.472 
" clip-path="url(#p6f90828a0d)" style="fill: none; stroke: #dcdcdc; stroke-width: 0.5; stroke-linecap: square"/>
     </g>
     <g id="line2d_38">
      <g>
       <use xlink:href="#mc4493fb932" x="163.224467" y="307.584" style="stroke: #000000; stroke-width: 0.6"/>
      </g>
     </g>
    </g>
    <g id="xtick_20">
     <g id="line2d_39">
      <path d="M 171.350989 307.584 
L 171.350989 41.472 
" clip-path="url(#p6f90828a0d)" style="fill: none; stroke: #dcdcdc; stroke-width: 0.5; stroke-linecap: square"/>
     </g>
     <g id="line2d_40">
      <g>
       <use xlink:href="#mc4493fb932" x="171.350989" y="307.584" style="stroke: #000000; stroke-width: 0.6"/>
      </g>
     </g>
    </g>
    <g id="xtick_21">
     <g id="line2d_41">
      <path d="M 179.477511 307.584 
L 179.477511 41.472 
" clip-path="url(#p6f90828a0d)" style="fill: none; stroke: #dcdcdc; stroke-width: 0.5; stroke-linecap: square"/>
     </g>
     <g id="line2d_42">
      <g>
       <use xlink:href="#mc4493fb932" x="179.477511" y="307.584" style="stroke: #000000; stroke-width: 0.6"/>
      </g>
     </g>
    </g>
    <g id="xtick_22">
     <g id="line2d_43">
      <path d="M 187.604032 307.584 
L 187.604032 41.472 
" clip-path="url(#p6f90828a0d)" style="fill: none; stroke: #dcdcdc; stroke-width: 0.5; stroke-linecap: square"/>
     </g>
     <g id="line2d_44">
      <g>
       <use xlink:href="#mc4493fb932" x="187.604032" y="307.584" style="stroke: #000000; stroke-width: 0.6"/>
      </g>
     </g>
    </g>
    <g id="xtick_23">
     <g id="line2d_45">
      <path d="M 203.857076 307.584 
L 203.857076 41.472 
" clip-path="url(#p6f90828a0d)" style="fill: none; stroke: #dcdcdc; stroke-width: 0.5; stroke-linecap: square"/>
     </g>
     <g id="line2d_46">
      <g>
       <use xlink:href="#mc4493fb932" x="203.857076" y="307.584" style="stroke: #000000; stroke-width: 0.6"/>
      </g>
     </g>
    </g>
    <g id="xtick_24">
     <g id="line2d_47">
      <path d="M 211.983598 307.584 
L 211.983598 41.472 
" clip-path="url(#p6f90828a0d)" style="fill: none; stroke: #dcdcdc; stroke-width: 0.5; stroke-linecap: square"/>
     </g>
     <g id="line2d_48">
      <g>
       <use xlink:href="#mc4493fb932" x="211.983598" y="307.584" style="stroke: #000000; stroke-width: 0.6"/>
      </g>
     </g>
    </g>
    <g id="xtick_25">
     <g id="line2d_49">
      <path d="M 220.110119 307.584 
L 220.110119 41.472 
" clip-path="url(#p6f90828a0d)" style="fill: none; stroke: #dcdcdc; stroke-width: 0.5; stroke-linecap: square"/>
     </g>
     <g id="line2d_50">
      <g>
       <use xlink:href="#mc4493fb932" x="220.110119" y="307.584" style="stroke: #000000; stroke-width: 0.6"/>
      </g>
     </g>
    </g>
    <g id="xtick_26">
     <g id="line2d_51">
      <path d="M 228.236641 307.584 
L 228.236641 41.472 
" clip-path="url(#p6f90828a0d)" style="fill: none; stroke: #dcdcdc; stroke-width: 0.5; stroke-linecap: square"/>
     </g>
     <g id="line2d_52">
      <g>
       <use xlink:href="#mc4493fb932" x="228.236641" y="307.584" style="stroke: #000000; stroke-width: 0.6"/>
      </g>
     </g>
    </g>
    <g id="xtick_27">
     <g id="line2d_53">
      <path d="M 244.489685 307.584 
L 244.489685 41.472 
" clip-path="url(#p6f90828a0d)" style="fill: none; stroke: #dcdcdc; stroke-width: 0.5; stroke-linecap: square"/>
     </g>
     <g id="line2d_54">
      <g>
       <use xlink:href="#mc4493fb932" x="244.489685" y="307.584" style="stroke: #000000; stroke-width: 0.6"/>
      </g>
     </g>
    </g>
    <g id="xtick_28">
     <g id="line2d_55">
      <path d="M 252.616207 307.584 
L 252.616207 41.472 
" clip-path="url(#p6f90828a0d)" style="fill: none; stroke: #dcdcdc; stroke-width: 0.5; stroke-linecap: square"/>
     </g>
     <g id="line2d_56">
      <g>
       <use xlink:href="#mc4493fb932" x="252.616207" y="307.584" style="stroke: #000000; stroke-width: 0.6"/>
      </g>
     </g>
    </g>
    <g id="xtick_29">
     <g id="line2d_57">
      <path d="M 260.742728 307.584 
L 260.742728 41.472 
" clip-path="url(#p6f90828a0d)" style="fill: none; stroke: #dcdcdc; stroke-width: 0.5; stroke-linecap: square"/>
     </g>
     <g id="line2d_58">
      <g>
       <use xlink:href="#mc4493fb932" x="260.742728" y="307.584" style="stroke: #000000; stroke-width: 0.6"/>
      </g>
     </g>
    </g>
    <g id="xtick_30">
     <g id="line2d_59">
      <path d="M 268.86925 307.584 
L 268.86925 41.472 
" clip-path="url(#p6f90828a0d)" style="fill: none; stroke: #dcdcdc; stroke-width: 0.5; stroke-linecap: square"/>
     </g>
     <g id="line2d_60">
      <g>
       <use xlink:href="#mc4493fb932" x="268.86925" y="307.584" style="stroke: #000000; stroke-width: 0.6"/>
      </g>
     </g>
    </g>
    <g id="xtick_31">
     <g id="line2d_61">
      <path d="M 285.122294 307.584 
L 285.122294 41.472 
" clip-path="url(#p6f90828a0d)" style="fill: none; stroke: #dcdcdc; stroke-width: 0.5; stroke-linecap: square"/>
     </g>
     <g id="line2d_62">
      <g>
       <use xlink:href="#mc4493fb932" x="285.122294" y="307.584" style="stroke: #000000; stroke-width: 0.6"/>
      </g>
     </g>
    </g>
    <g id="xtick_32">
     <g id="line2d_63">
      <path d="M 293.248816 307.584 
L 293.248816 41.472 
" clip-path="url(#p6f90828a0d)" style="fill: none; stroke: #dcdcdc; stroke-width: 0.5; stroke-linecap: square"/>
     </g>
     <g id="line2d_64">
      <g>
       <use xlink:href="#mc4493fb932" x="293.248816" y="307.584" style="stroke: #000000; stroke-width: 0.6"/>
      </g>
     </g>
    </g>
    <g id="xtick_33">
     <g id="line2d_65">
      <path d="M 301.375337 307.584 
L 301.375337 41.472 
" clip-path="url(#p6f90828a0d)" style="fill: none; stroke: #dcdcdc; stroke-width: 0.5; stroke-linecap: square"/>
     </g>
     <g id="line2d_66">
      <g>
       <use xlink:href="#mc4493fb932" x="301.375337" y="307.584" style="stroke: #000000; stroke-width: 0.6"/>
      </g>
     </g>
    </g>
    <g id="xtick_34">
     <g id="line2d_67">
      <path d="M 309.501859 307.584 
L 309.501859 41.472 
" clip-path="url(#p6f90828a0d)" style="fill: none; stroke: #dcdcdc; stroke-width: 0.5; stroke-linecap: square"/>
     </g>
     <g id="line2d_68">
      <g>
       <use xlink:href="#mc4493fb932" x="309.501859" y="307.584" style="stroke: #000000; stroke-width: 0.6"/>
      </g>
     </g>
    </g>
    <g id="xtick_35">
     <g id="line2d_69">
      <path d="M 325.754903 307.584 
L 325.754903 41.472 
" clip-path="url(#p6f90828a0d)" style="fill: none; stroke: #dcdcdc; stroke-width: 0.5; stroke-linecap: square"/>
     </g>
     <g id="line2d_70">
      <g>
       <use xlink:href="#mc4493fb932" x="325.754903" y="307.584" style="stroke: #000000; stroke-width: 0.6"/>
      </g>
     </g>
    </g>
    <g id="xtick_36">
     <g id="line2d_71">
      <path d="M 333.881425 307.584 
L 333.881425 41.472 
" clip-path="url(#p6f90828a0d)" style="fill: none; stroke: #dcdcdc; stroke-width: 0.5; stroke-linecap: square"/>
     </g>
     <g id="line2d_72">
      <g>
       <use xlink:href="#mc4493fb932" x="333.881425" y="307.584" style="stroke: #000000; stroke-width: 0.6"/>
      </g>
     </g>
    </g>
    <g id="xtick_37">
     <g id="line2d_73">
      <path d="M 342.007946 307.584 
L 342.007946 41.472 
" clip-path="url(#p6f90828a0d)" style="fill: none; stroke: #dcdcdc; stroke-width: 0.5; stroke-linecap: square"/>
     </g>
     <g id="line2d_74">
      <g>
       <use xlink:href="#mc4493fb932" x="342.007946" y="307.584" style="stroke: #000000; stroke-width: 0.6"/>
      </g>
     </g>
    </g>
    <g id="xtick_38">
     <g id="line2d_75">
      <path d="M 350.134468 307.584 
L 350.134468 41.472 
" clip-path="url(#p6f90828a0d)" style="fill: none; stroke: #dcdcdc; stroke-width: 0.5; stroke-linecap: square"/>
     </g>
     <g id="line2d_76">
      <g>
       <use xlink:href="#mc4493fb932" x="350.134468" y="307.584" style="stroke: #000000; stroke-width: 0.6"/>
      </g>
     </g>
    </g>
    <g id="xtick_39">
     <g id="line2d_77">
      <path d="M 366.387512 307.584 
L 366.387512 41.472 
" clip-path="url(#p6f90828a0d)" style="fill: none; stroke: #dcdcdc; stroke-width: 0.5; stroke-linecap: square"/>
     </g>
     <g id="line2d_78">
      <g>
       <use xlink:href="#mc4493fb932" x="366.387512" y="307.584" style="stroke: #000000; stroke-width: 0.6"/>
      </g>
     </g>
    </g>
    <g id="xtick_40">
     <g id="line2d_79">
      <path d="M 374.514033 307.584 
L 374.514033 41.472 
" clip-path="url(#p6f90828a0d)" style="fill: none; stroke: #dcdcdc; stroke-width: 0.5; stroke-linecap: square"/>
     </g>
     <g id="line2d_80">
      <g>
       <use xlink:href="#mc4493fb932" x="374.514033" y="307.584" style="stroke: #000000; stroke-width: 0.6"/>
      </g>
     </g>
    </g>
    <g id="xtick_41">
     <g id="line2d_81">
      <path d="M 382.640555 307.584 
L 382.640555 41.472 
" clip-path="url(#p6f90828a0d)" style="fill: none; stroke: #dcdcdc; stroke-width: 0.5; stroke-linecap: square"/>
     </g>
     <g id="line2d_82">
      <g>
       <use xlink:href="#mc4493fb932" x="382.640555" y="307.584" style="stroke: #000000; stroke-width: 0.6"/>
      </g>
     </g>
    </g>
    <g id="xtick_42">
     <g id="line2d_83">
      <path d="M 390.767077 307.584 
L 390.767077 41.472 
" clip-path="url(#p6f90828a0d)" style="fill: none; stroke: #dcdcdc; stroke-width: 0.5; stroke-linecap: square"/>
     </g>
     <g id="line2d_84">
      <g>
       <use xlink:href="#mc4493fb932" x="390.767077" y="307.584" style="stroke: #000000; stroke-width: 0.6"/>
      </g>
     </g>
    </g>
    <g id="xtick_43">
     <g id="line2d_85">
      <path d="M 407.020121 307.584 
L 407.020121 41.472 
" clip-path="url(#p6f90828a0d)" style="fill: none; stroke: #dcdcdc; stroke-width: 0.5; stroke-linecap: square"/>
     </g>
     <g id="line2d_86">
      <g>
       <use xlink:href="#mc4493fb932" x="407.020121" y="307.584" style="stroke: #000000; stroke-width: 0.6"/>
      </g>
     </g>
    </g>
    <g id="text_10">
     <!-- x100 episodes -->
     <g transform="translate(199.908437 335.860562) scale(0.1 -0.1)">
      <defs>
       <path id="DejaVuSans-78" d="M 3513 3500 
L 2247 1797 
L 3578 0 
L 2900 0 
L 1881 1375 
L 863 0 
L 184 0 
L 1544 1831 
L 300 3500 
L 978 3500 
L 1906 2253 
L 2834 3500 
L 3513 3500 
z
" transform="scale(0.015625)"/>
       <path id="DejaVuSans-20" transform="scale(0.015625)"/>
       <path id="DejaVuSans-65" d="M 3597 1894 
L 3597 1613 
L 953 1613 
Q 991 1019 1311 708 
Q 1631 397 2203 397 
Q 2534 397 2845 478 
Q 3156 559 3463 722 
L 3463 178 
Q 3153 47 2828 -22 
Q 2503 -91 2169 -91 
Q 1331 -91 842 396 
Q 353 884 353 1716 
Q 353 2575 817 3079 
Q 1281 3584 2069 3584 
Q 2775 3584 3186 3129 
Q 3597 2675 3597 1894 
z
M 3022 2063 
Q 3016 2534 2758 2815 
Q 2500 3097 2075 3097 
Q 1594 3097 1305 2825 
Q 1016 2553 972 2059 
L 3022 2063 
z
" transform="scale(0.015625)"/>
       <path id="DejaVuSans-70" d="M 1159 525 
L 1159 -1331 
L 581 -1331 
L 581 3500 
L 1159 3500 
L 1159 2969 
Q 1341 3281 1617 3432 
Q 1894 3584 2278 3584 
Q 2916 3584 3314 3078 
Q 3713 2572 3713 1747 
Q 3713 922 3314 415 
Q 2916 -91 2278 -91 
Q 1894 -91 1617 61 
Q 1341 213 1159 525 
z
M 3116 1747 
Q 3116 2381 2855 2742 
Q 2594 3103 2138 3103 
Q 1681 3103 1420 2742 
Q 1159 2381 1159 1747 
Q 1159 1113 1420 752 
Q 1681 391 2138 391 
Q 2594 391 2855 752 
Q 3116 1113 3116 1747 
z
" transform="scale(0.015625)"/>
       <path id="DejaVuSans-69" d="M 603 3500 
L 1178 3500 
L 1178 0 
L 603 0 
L 603 3500 
z
M 603 4863 
L 1178 4863 
L 1178 4134 
L 603 4134 
L 603 4863 
z
" transform="scale(0.015625)"/>
       <path id="DejaVuSans-73" d="M 2834 3397 
L 2834 2853 
Q 2591 2978 2328 3040 
Q 2066 3103 1784 3103 
Q 1356 3103 1142 2972 
Q 928 2841 928 2578 
Q 928 2378 1081 2264 
Q 1234 2150 1697 2047 
L 1894 2003 
Q 2506 1872 2764 1633 
Q 3022 1394 3022 966 
Q 3022 478 2636 193 
Q 2250 -91 1575 -91 
Q 1294 -91 989 -36 
Q 684 19 347 128 
L 347 722 
Q 666 556 975 473 
Q 1284 391 1588 391 
Q 1994 391 2212 530 
Q 2431 669 2431 922 
Q 2431 1156 2273 1281 
Q 2116 1406 1581 1522 
L 1381 1569 
Q 847 1681 609 1914 
Q 372 2147 372 2553 
Q 372 3047 722 3315 
Q 1072 3584 1716 3584 
Q 2034 3584 2315 3537 
Q 2597 3491 2834 3397 
z
" transform="scale(0.015625)"/>
       <path id="DejaVuSans-6f" d="M 1959 3097 
Q 1497 3097 1228 2736 
Q 959 2375 959 1747 
Q 959 1119 1226 758 
Q 1494 397 1959 397 
Q 2419 397 2687 759 
Q 2956 1122 2956 1747 
Q 2956 2369 2687 2733 
Q 2419 3097 1959 3097 
z
M 1959 3584 
Q 2709 3584 3137 3096 
Q 3566 2609 3566 1747 
Q 3566 888 3137 398 
Q 2709 -91 1959 -91 
Q 1206 -91 779 398 
Q 353 888 353 1747 
Q 353 2609 779 3096 
Q 1206 3584 1959 3584 
z
" transform="scale(0.015625)"/>
       <path id="DejaVuSans-64" d="M 2906 2969 
L 2906 4863 
L 3481 4863 
L 3481 0 
L 2906 0 
L 2906 525 
Q 2725 213 2448 61 
Q 2172 -91 1784 -91 
Q 1150 -91 751 415 
Q 353 922 353 1747 
Q 353 2572 751 3078 
Q 1150 3584 1784 3584 
Q 2172 3584 2448 3432 
Q 2725 3281 2906 2969 
z
M 947 1747 
Q 947 1113 1208 752 
Q 1469 391 1925 391 
Q 2381 391 2643 752 
Q 2906 1113 2906 1747 
Q 2906 2381 2643 2742 
Q 2381 3103 1925 3103 
Q 1469 3103 1208 2742 
Q 947 2381 947 1747 
z
" transform="scale(0.015625)"/>
      </defs>
      <use xlink:href="#DejaVuSans-78"/>
      <use xlink:href="#DejaVuSans-31" x="59.179688"/>
      <use xlink:href="#DejaVuSans-30" x="122.802734"/>
      <use xlink:href="#DejaVuSans-30" x="186.425781"/>
      <use xlink:href="#DejaVuSans-20" x="250.048828"/>
      <use xlink:href="#DejaVuSans-65" x="281.835938"/>
      <use xlink:href="#DejaVuSans-70" x="343.359375"/>
      <use xlink:href="#DejaVuSans-69" x="406.835938"/>
      <use xlink:href="#DejaVuSans-73" x="434.619141"/>
      <use xlink:href="#DejaVuSans-6f" x="486.71875"/>
      <use xlink:href="#DejaVuSans-64" x="547.900391"/>
      <use xlink:href="#DejaVuSans-65" x="611.376953"/>
      <use xlink:href="#DejaVuSans-73" x="672.900391"/>
     </g>
    </g>
   </g>
   <g id="matplotlib.axis_2">
    <g id="ytick_1">
     <g id="line2d_87">
      <path d="M 57.6 270.110897 
L 414.72 270.110897 
" clip-path="url(#p6f90828a0d)" style="fill: none; stroke: #b0b0b0; stroke-width: 0.8; stroke-linecap: square"/>
     </g>
     <g id="line2d_88">
      <defs>
       <path id="m4d1c56fd09" d="M 0 0 
L -3.5 0 
" style="stroke: #000000; stroke-width: 0.8"/>
      </defs>
      <g>
       <use xlink:href="#m4d1c56fd09" x="57.6" y="270.110897" style="stroke: #000000; stroke-width: 0.8"/>
      </g>
     </g>
     <g id="text_11">
      <!-- 2 -->
      <g transform="translate(44.2375 273.910116) scale(0.1 -0.1)">
       <use xlink:href="#DejaVuSans-32"/>
      </g>
     </g>
    </g>
    <g id="ytick_2">
     <g id="line2d_89">
      <path d="M 57.6 219.68807 
L 414.72 219.68807 
" clip-path="url(#p6f90828a0d)" style="fill: none; stroke: #b0b0b0; stroke-width: 0.8; stroke-linecap: square"/>
     </g>
     <g id="line2d_90">
      <g>
       <use xlink:href="#m4d1c56fd09" x="57.6" y="219.68807" style="stroke: #000000; stroke-width: 0.8"/>
      </g>
     </g>
     <g id="text_12">
      <!-- 4 -->
      <g transform="translate(44.2375 223.487289) scale(0.1 -0.1)">
       <use xlink:href="#DejaVuSans-34"/>
      </g>
     </g>
    </g>
    <g id="ytick_3">
     <g id="line2d_91">
      <path d="M 57.6 169.265244 
L 414.72 169.265244 
" clip-path="url(#p6f90828a0d)" style="fill: none; stroke: #b0b0b0; stroke-width: 0.8; stroke-linecap: square"/>
     </g>
     <g id="line2d_92">
      <g>
       <use xlink:href="#m4d1c56fd09" x="57.6" y="169.265244" style="stroke: #000000; stroke-width: 0.8"/>
      </g>
     </g>
     <g id="text_13">
      <!-- 6 -->
      <g transform="translate(44.2375 173.064462) scale(0.1 -0.1)">
       <use xlink:href="#DejaVuSans-36"/>
      </g>
     </g>
    </g>
    <g id="ytick_4">
     <g id="line2d_93">
      <path d="M 57.6 118.842417 
L 414.72 118.842417 
" clip-path="url(#p6f90828a0d)" style="fill: none; stroke: #b0b0b0; stroke-width: 0.8; stroke-linecap: square"/>
     </g>
     <g id="line2d_94">
      <g>
       <use xlink:href="#m4d1c56fd09" x="57.6" y="118.842417" style="stroke: #000000; stroke-width: 0.8"/>
      </g>
     </g>
     <g id="text_14">
      <!-- 8 -->
      <g transform="translate(44.2375 122.641635) scale(0.1 -0.1)">
       <use xlink:href="#DejaVuSans-38"/>
      </g>
     </g>
    </g>
    <g id="ytick_5">
     <g id="line2d_95">
      <path d="M 57.6 68.41959 
L 414.72 68.41959 
" clip-path="url(#p6f90828a0d)" style="fill: none; stroke: #b0b0b0; stroke-width: 0.8; stroke-linecap: square"/>
     </g>
     <g id="line2d_96">
      <g>
       <use xlink:href="#m4d1c56fd09" x="57.6" y="68.41959" style="stroke: #000000; stroke-width: 0.8"/>
      </g>
     </g>
     <g id="text_15">
      <!-- 10 -->
      <g transform="translate(37.875 72.218809) scale(0.1 -0.1)">
       <use xlink:href="#DejaVuSans-31"/>
       <use xlink:href="#DejaVuSans-30" x="63.623047"/>
      </g>
     </g>
    </g>
    <g id="ytick_6">
     <g id="line2d_97">
      <path d="M 57.6 295.322311 
L 414.72 295.322311 
" clip-path="url(#p6f90828a0d)" style="fill: none; stroke: #dcdcdc; stroke-width: 0.5; stroke-linecap: square"/>
     </g>
     <g id="line2d_98">
      <defs>
       <path id="m757e8884a6" d="M 0 0 
L -2 0 
" style="stroke: #000000; stroke-width: 0.6"/>
      </defs>
      <g>
       <use xlink:href="#m757e8884a6" x="57.6" y="295.322311" style="stroke: #000000; stroke-width: 0.6"/>
      </g>
     </g>
    </g>
    <g id="ytick_7">
     <g id="line2d_99">
      <path d="M 57.6 282.716604 
L 414.72 282.716604 
" clip-path="url(#p6f90828a0d)" style="fill: none; stroke: #dcdcdc; stroke-width: 0.5; stroke-linecap: square"/>
     </g>
     <g id="line2d_100">
      <g>
       <use xlink:href="#m757e8884a6" x="57.6" y="282.716604" style="stroke: #000000; stroke-width: 0.6"/>
      </g>
     </g>
    </g>
    <g id="ytick_8">
     <g id="line2d_101">
      <path d="M 57.6 257.50519 
L 414.72 257.50519 
" clip-path="url(#p6f90828a0d)" style="fill: none; stroke: #dcdcdc; stroke-width: 0.5; stroke-linecap: square"/>
     </g>
     <g id="line2d_102">
      <g>
       <use xlink:href="#m757e8884a6" x="57.6" y="257.50519" style="stroke: #000000; stroke-width: 0.6"/>
      </g>
     </g>
    </g>
    <g id="ytick_9">
     <g id="line2d_103">
      <path d="M 57.6 244.899484 
L 414.72 244.899484 
" clip-path="url(#p6f90828a0d)" style="fill: none; stroke: #dcdcdc; stroke-width: 0.5; stroke-linecap: square"/>
     </g>
     <g id="line2d_104">
      <g>
       <use xlink:href="#m757e8884a6" x="57.6" y="244.899484" style="stroke: #000000; stroke-width: 0.6"/>
      </g>
     </g>
    </g>
    <g id="ytick_10">
     <g id="line2d_105">
      <path d="M 57.6 232.293777 
L 414.72 232.293777 
" clip-path="url(#p6f90828a0d)" style="fill: none; stroke: #dcdcdc; stroke-width: 0.5; stroke-linecap: square"/>
     </g>
     <g id="line2d_106">
      <g>
       <use xlink:href="#m757e8884a6" x="57.6" y="232.293777" style="stroke: #000000; stroke-width: 0.6"/>
      </g>
     </g>
    </g>
    <g id="ytick_11">
     <g id="line2d_107">
      <path d="M 57.6 207.082364 
L 414.72 207.082364 
" clip-path="url(#p6f90828a0d)" style="fill: none; stroke: #dcdcdc; stroke-width: 0.5; stroke-linecap: square"/>
     </g>
     <g id="line2d_108">
      <g>
       <use xlink:href="#m757e8884a6" x="57.6" y="207.082364" style="stroke: #000000; stroke-width: 0.6"/>
      </g>
     </g>
    </g>
    <g id="ytick_12">
     <g id="line2d_109">
      <path d="M 57.6 194.476657 
L 414.72 194.476657 
" clip-path="url(#p6f90828a0d)" style="fill: none; stroke: #dcdcdc; stroke-width: 0.5; stroke-linecap: square"/>
     </g>
     <g id="line2d_110">
      <g>
       <use xlink:href="#m757e8884a6" x="57.6" y="194.476657" style="stroke: #000000; stroke-width: 0.6"/>
      </g>
     </g>
    </g>
    <g id="ytick_13">
     <g id="line2d_111">
      <path d="M 57.6 181.87095 
L 414.72 181.87095 
" clip-path="url(#p6f90828a0d)" style="fill: none; stroke: #dcdcdc; stroke-width: 0.5; stroke-linecap: square"/>
     </g>
     <g id="line2d_112">
      <g>
       <use xlink:href="#m757e8884a6" x="57.6" y="181.87095" style="stroke: #000000; stroke-width: 0.6"/>
      </g>
     </g>
    </g>
    <g id="ytick_14">
     <g id="line2d_113">
      <path d="M 57.6 156.659537 
L 414.72 156.659537 
" clip-path="url(#p6f90828a0d)" style="fill: none; stroke: #dcdcdc; stroke-width: 0.5; stroke-linecap: square"/>
     </g>
     <g id="line2d_114">
      <g>
       <use xlink:href="#m757e8884a6" x="57.6" y="156.659537" style="stroke: #000000; stroke-width: 0.6"/>
      </g>
     </g>
    </g>
    <g id="ytick_15">
     <g id="line2d_115">
      <path d="M 57.6 144.05383 
L 414.72 144.05383 
" clip-path="url(#p6f90828a0d)" style="fill: none; stroke: #dcdcdc; stroke-width: 0.5; stroke-linecap: square"/>
     </g>
     <g id="line2d_116">
      <g>
       <use xlink:href="#m757e8884a6" x="57.6" y="144.05383" style="stroke: #000000; stroke-width: 0.6"/>
      </g>
     </g>
    </g>
    <g id="ytick_16">
     <g id="line2d_117">
      <path d="M 57.6 131.448123 
L 414.72 131.448123 
" clip-path="url(#p6f90828a0d)" style="fill: none; stroke: #dcdcdc; stroke-width: 0.5; stroke-linecap: square"/>
     </g>
     <g id="line2d_118">
      <g>
       <use xlink:href="#m757e8884a6" x="57.6" y="131.448123" style="stroke: #000000; stroke-width: 0.6"/>
      </g>
     </g>
    </g>
    <g id="ytick_17">
     <g id="line2d_119">
      <path d="M 57.6 106.23671 
L 414.72 106.23671 
" clip-path="url(#p6f90828a0d)" style="fill: none; stroke: #dcdcdc; stroke-width: 0.5; stroke-linecap: square"/>
     </g>
     <g id="line2d_120">
      <g>
       <use xlink:href="#m757e8884a6" x="57.6" y="106.23671" style="stroke: #000000; stroke-width: 0.6"/>
      </g>
     </g>
    </g>
    <g id="ytick_18">
     <g id="line2d_121">
      <path d="M 57.6 93.631003 
L 414.72 93.631003 
" clip-path="url(#p6f90828a0d)" style="fill: none; stroke: #dcdcdc; stroke-width: 0.5; stroke-linecap: square"/>
     </g>
     <g id="line2d_122">
      <g>
       <use xlink:href="#m757e8884a6" x="57.6" y="93.631003" style="stroke: #000000; stroke-width: 0.6"/>
      </g>
     </g>
    </g>
    <g id="ytick_19">
     <g id="line2d_123">
      <path d="M 57.6 81.025297 
L 414.72 81.025297 
" clip-path="url(#p6f90828a0d)" style="fill: none; stroke: #dcdcdc; stroke-width: 0.5; stroke-linecap: square"/>
     </g>
     <g id="line2d_124">
      <g>
       <use xlink:href="#m757e8884a6" x="57.6" y="81.025297" style="stroke: #000000; stroke-width: 0.6"/>
      </g>
     </g>
    </g>
    <g id="ytick_20">
     <g id="line2d_125">
      <path d="M 57.6 55.813883 
L 414.72 55.813883 
" clip-path="url(#p6f90828a0d)" style="fill: none; stroke: #dcdcdc; stroke-width: 0.5; stroke-linecap: square"/>
     </g>
     <g id="line2d_126">
      <g>
       <use xlink:href="#m757e8884a6" x="57.6" y="55.813883" style="stroke: #000000; stroke-width: 0.6"/>
      </g>
     </g>
    </g>
    <g id="ytick_21">
     <g id="line2d_127">
      <path d="M 57.6 43.208176 
L 414.72 43.208176 
" clip-path="url(#p6f90828a0d)" style="fill: none; stroke: #dcdcdc; stroke-width: 0.5; stroke-linecap: square"/>
     </g>
     <g id="line2d_128">
      <g>
       <use xlink:href="#m757e8884a6" x="57.6" y="43.208176" style="stroke: #000000; stroke-width: 0.6"/>
      </g>
     </g>
    </g>
    <g id="text_16">
     <!-- Average total episode reward -->
     <g transform="translate(31.795312 248.130344) rotate(-90) scale(0.1 -0.1)">
      <defs>
       <path id="DejaVuSans-41" d="M 2188 4044 
L 1331 1722 
L 3047 1722 
L 2188 4044 
z
M 1831 4666 
L 2547 4666 
L 4325 0 
L 3669 0 
L 3244 1197 
L 1141 1197 
L 716 0 
L 50 0 
L 1831 4666 
z
" transform="scale(0.015625)"/>
       <path id="DejaVuSans-76" d="M 191 3500 
L 800 3500 
L 1894 563 
L 2988 3500 
L 3597 3500 
L 2284 0 
L 1503 0 
L 191 3500 
z
" transform="scale(0.015625)"/>
       <path id="DejaVuSans-72" d="M 2631 2963 
Q 2534 3019 2420 3045 
Q 2306 3072 2169 3072 
Q 1681 3072 1420 2755 
Q 1159 2438 1159 1844 
L 1159 0 
L 581 0 
L 581 3500 
L 1159 3500 
L 1159 2956 
Q 1341 3275 1631 3429 
Q 1922 3584 2338 3584 
Q 2397 3584 2469 3576 
Q 2541 3569 2628 3553 
L 2631 2963 
z
" transform="scale(0.015625)"/>
       <path id="DejaVuSans-61" d="M 2194 1759 
Q 1497 1759 1228 1600 
Q 959 1441 959 1056 
Q 959 750 1161 570 
Q 1363 391 1709 391 
Q 2188 391 2477 730 
Q 2766 1069 2766 1631 
L 2766 1759 
L 2194 1759 
z
M 3341 1997 
L 3341 0 
L 2766 0 
L 2766 531 
Q 2569 213 2275 61 
Q 1981 -91 1556 -91 
Q 1019 -91 701 211 
Q 384 513 384 1019 
Q 384 1609 779 1909 
Q 1175 2209 1959 2209 
L 2766 2209 
L 2766 2266 
Q 2766 2663 2505 2880 
Q 2244 3097 1772 3097 
Q 1472 3097 1187 3025 
Q 903 2953 641 2809 
L 641 3341 
Q 956 3463 1253 3523 
Q 1550 3584 1831 3584 
Q 2591 3584 2966 3190 
Q 3341 2797 3341 1997 
z
" transform="scale(0.015625)"/>
       <path id="DejaVuSans-67" d="M 2906 1791 
Q 2906 2416 2648 2759 
Q 2391 3103 1925 3103 
Q 1463 3103 1205 2759 
Q 947 2416 947 1791 
Q 947 1169 1205 825 
Q 1463 481 1925 481 
Q 2391 481 2648 825 
Q 2906 1169 2906 1791 
z
M 3481 434 
Q 3481 -459 3084 -895 
Q 2688 -1331 1869 -1331 
Q 1566 -1331 1297 -1286 
Q 1028 -1241 775 -1147 
L 775 -588 
Q 1028 -725 1275 -790 
Q 1522 -856 1778 -856 
Q 2344 -856 2625 -561 
Q 2906 -266 2906 331 
L 2906 616 
Q 2728 306 2450 153 
Q 2172 0 1784 0 
Q 1141 0 747 490 
Q 353 981 353 1791 
Q 353 2603 747 3093 
Q 1141 3584 1784 3584 
Q 2172 3584 2450 3431 
Q 2728 3278 2906 2969 
L 2906 3500 
L 3481 3500 
L 3481 434 
z
" transform="scale(0.015625)"/>
       <path id="DejaVuSans-74" d="M 1172 4494 
L 1172 3500 
L 2356 3500 
L 2356 3053 
L 1172 3053 
L 1172 1153 
Q 1172 725 1289 603 
Q 1406 481 1766 481 
L 2356 481 
L 2356 0 
L 1766 0 
Q 1100 0 847 248 
Q 594 497 594 1153 
L 594 3053 
L 172 3053 
L 172 3500 
L 594 3500 
L 594 4494 
L 1172 4494 
z
" transform="scale(0.015625)"/>
       <path id="DejaVuSans-6c" d="M 603 4863 
L 1178 4863 
L 1178 0 
L 603 0 
L 603 4863 
z
" transform="scale(0.015625)"/>
       <path id="DejaVuSans-77" d="M 269 3500 
L 844 3500 
L 1563 769 
L 2278 3500 
L 2956 3500 
L 3675 769 
L 4391 3500 
L 4966 3500 
L 4050 0 
L 3372 0 
L 2619 2869 
L 1863 0 
L 1184 0 
L 269 3500 
z
" transform="scale(0.015625)"/>
      </defs>
      <use xlink:href="#DejaVuSans-41"/>
      <use xlink:href="#DejaVuSans-76" x="62.533203"/>
      <use xlink:href="#DejaVuSans-65" x="121.712891"/>
      <use xlink:href="#DejaVuSans-72" x="183.236328"/>
      <use xlink:href="#DejaVuSans-61" x="224.349609"/>
      <use xlink:href="#DejaVuSans-67" x="285.628906"/>
      <use xlink:href="#DejaVuSans-65" x="349.105469"/>
      <use xlink:href="#DejaVuSans-20" x="410.628906"/>
      <use xlink:href="#DejaVuSans-74" x="442.416016"/>
      <use xlink:href="#DejaVuSans-6f" x="481.625"/>
      <use xlink:href="#DejaVuSans-74" x="542.806641"/>
      <use xlink:href="#DejaVuSans-61" x="582.015625"/>
      <use xlink:href="#DejaVuSans-6c" x="643.294922"/>
      <use xlink:href="#DejaVuSans-20" x="671.078125"/>
      <use xlink:href="#DejaVuSans-65" x="702.865234"/>
      <use xlink:href="#DejaVuSans-70" x="764.388672"/>
      <use xlink:href="#DejaVuSans-69" x="827.865234"/>
      <use xlink:href="#DejaVuSans-73" x="855.648438"/>
      <use xlink:href="#DejaVuSans-6f" x="907.748047"/>
      <use xlink:href="#DejaVuSans-64" x="968.929688"/>
      <use xlink:href="#DejaVuSans-65" x="1032.40625"/>
      <use xlink:href="#DejaVuSans-20" x="1093.929688"/>
      <use xlink:href="#DejaVuSans-72" x="1125.716797"/>
      <use xlink:href="#DejaVuSans-65" x="1164.580078"/>
      <use xlink:href="#DejaVuSans-77" x="1226.103516"/>
      <use xlink:href="#DejaVuSans-61" x="1307.890625"/>
      <use xlink:href="#DejaVuSans-72" x="1369.169922"/>
      <use xlink:href="#DejaVuSans-64" x="1408.533203"/>
     </g>
    </g>
   </g>
   <g id="line2d_129">
    <path d="M 57.6 58.335024 
L 414.72 58.335024 
" clip-path="url(#p6f90828a0d)" style="fill: none; stroke-dasharray: 7.4,3.2; stroke-dashoffset: 0; stroke: #4682b4; stroke-width: 2"/>
   </g>
   <g id="line2d_130">
    <path d="M 57.6 68.965091 
L 414.72 68.965091 
" clip-path="url(#p6f90828a0d)" style="fill: none; stroke-dasharray: 2,3.3; stroke-dashoffset: 0; stroke: #0000ff; stroke-width: 2"/>
   </g>
   <g id="line2d_131">
    <path d="M 73.832727 262.108895 
L 74.239053 271.685577 
L 74.645379 274.249401 
L 75.864358 259.127368 
L 76.270684 271.579739 
L 77.083336 285.263839 
L 77.489662 280.089776 
L 77.895988 277.794025 
L 78.302314 288.091526 
L 78.70864 258.028226 
L 79.521293 282.543477 
L 79.927619 271.442942 
L 80.333945 266.809765 
L 80.740271 271.94949 
L 81.146597 258.78414 
L 81.552923 277.277015 
L 81.959249 282.671349 
L 82.365575 284.777082 
L 82.771901 285.210794 
L 83.178227 279.5261 
L 83.584553 271.626532 
L 83.99088 282.261008 
L 84.397206 285.021557 
L 84.803532 260.659063 
L 85.209858 285.069157 
L 85.616184 271.745227 
L 86.02251 276.361815 
L 86.428836 295.405281 
L 86.835162 274.331691 
L 87.647814 250.271027 
L 88.05414 258.720809 
L 88.866793 285.393678 
L 89.273119 274.50502 
L 89.679445 279.710975 
L 90.492097 274.516491 
L 90.898423 266.576408 
L 91.304749 271.612716 
L 91.711075 267.404805 
L 92.117401 260.844593 
L 92.523727 271.966079 
L 93.33638 282.062191 
L 93.742706 253.479155 
L 94.149032 268.891522 
L 94.555358 264.42469 
L 94.961684 276.879859 
L 95.36801 263.940429 
L 95.774336 289.887385 
L 96.586988 268.724093 
L 96.993314 249.633658 
L 97.39964 271.456153 
L 97.805967 247.869691 
L 98.212293 261.304954 
L 98.618619 267.188995 
L 99.024945 250.188309 
L 99.431271 284.448502 
L 99.837597 261.673545 
L 100.243923 278.776413 
L 100.650249 279.636979 
L 101.056575 275.428514 
L 101.869227 285.077955 
L 102.275554 256.168683 
L 102.68188 263.486548 
L 103.088206 268.608297 
L 103.494532 287.419667 
L 103.900858 271.680056 
L 104.307184 266.272409 
L 104.71351 255.889189 
L 105.119836 263.461437 
L 105.526162 282.283194 
L 105.932488 268.517763 
L 106.338814 276.770366 
L 106.745141 274.96959 
L 107.151467 280.305712 
L 107.557793 272.081547 
L 107.964119 266.148646 
L 108.370445 263.960875 
L 108.776771 256.889351 
L 109.183097 279.545033 
L 109.589423 269.227666 
L 109.995749 268.787525 
L 110.402075 266.780142 
L 110.808401 263.936042 
L 111.214728 271.979971 
L 111.621054 257.932221 
L 112.02738 267.870208 
L 112.433706 264.925792 
L 112.840032 281.797093 
L 113.246358 277.211641 
L 113.652684 268.852671 
L 114.05901 263.998869 
L 114.465336 266.479243 
L 114.871662 279.963971 
L 115.277988 282.305381 
L 115.684314 271.029072 
L 116.090641 272.106103 
L 116.496967 274.225375 
L 116.903293 277.137696 
L 117.309619 282.045047 
L 117.715945 266.818967 
L 118.528597 287.627737 
L 119.341249 267.263142 
L 119.747575 274.130378 
L 120.153901 269.030437 
L 120.560228 279.617415 
L 120.966554 285.388812 
L 121.37288 273.924199 
L 121.779206 277.121561 
L 122.185532 276.725061 
L 122.591858 266.057961 
L 122.998184 241.188717 
L 123.40451 269.351353 
L 123.810836 263.387064 
L 124.217162 265.796897 
L 124.623488 274.10436 
L 125.029815 268.361528 
L 125.436141 271.269135 
L 125.842467 266.906552 
L 126.248793 266.501505 
L 126.655119 254.223975 
L 127.061445 279.469903 
L 127.467771 288.004068 
L 127.874097 265.952476 
L 128.280423 250.419876 
L 128.686749 269.877919 
L 129.093075 266.370658 
L 129.499402 272.042974 
L 129.905728 282.537149 
L 130.312054 271.675921 
L 130.71838 289.854358 
L 131.124706 256.187743 
L 131.531032 295.488 
L 132.343684 256.1946 
L 132.75001 268.475937 
L 133.156336 266.445813 
L 133.562662 271.85346 
L 133.968989 272.621147 
L 134.375315 266.664194 
L 134.781641 253.495492 
L 135.187967 273.923291 
L 135.594293 273.962268 
L 136.000619 272.001224 
L 136.406945 266.256375 
L 136.813271 265.980032 
L 137.219597 279.60486 
L 137.625923 266.573559 
L 138.032249 274.951791 
L 138.438575 279.795156 
L 138.844902 265.653091 
L 139.251228 272.489418 
L 139.657554 266.670119 
L 140.06388 274.858181 
L 140.470206 266.892181 
L 140.876532 269.102037 
L 141.282858 266.442158 
L 141.689184 279.666477 
L 142.09551 271.559419 
L 142.501836 265.971839 
L 142.908162 248.018741 
L 143.314489 277.090652 
L 143.720815 269.55012 
L 144.127141 269.156368 
L 144.533467 261.596322 
L 144.939793 256.440311 
L 145.346119 276.213648 
L 145.752445 279.197141 
L 146.565097 252.916184 
L 146.971423 252.756343 
L 147.377749 255.30136 
L 147.784076 263.263351 
L 148.190402 263.257603 
L 148.596728 263.989742 
L 149.003054 247.901482 
L 149.40938 244.966546 
L 149.815706 279.394521 
L 150.628358 258.067783 
L 151.034684 237.921191 
L 151.44101 256.121916 
L 151.847336 257.310357 
L 152.253663 250.105162 
L 152.659989 239.589179 
L 153.472641 274.003892 
L 153.878967 222.699196 
L 154.285293 231.763278 
L 154.691619 244.700616 
L 155.097945 263.142664 
L 155.504271 286.71231 
L 155.910597 257.81819 
L 156.316923 250.781231 
L 156.72325 228.111834 
L 157.535902 244.429442 
L 157.942228 263.357541 
L 158.348554 234.571099 
L 158.75488 224.269463 
L 159.161206 229.116332 
L 159.567532 220.516543 
L 159.973858 263.251956 
L 160.380184 239.526301 
L 160.78651 241.839121 
L 161.599163 226.587325 
L 162.005489 226.355733 
L 162.411815 228.722631 
L 162.818141 204.469352 
L 163.224467 241.593713 
L 163.630793 202.901757 
L 164.037119 247.216438 
L 164.443445 217.514494 
L 164.849771 242.098118 
L 165.256097 239.066218 
L 165.662423 218.050438 
L 166.06875 219.85139 
L 166.475076 239.697462 
L 166.881402 234.830978 
L 167.287728 249.398234 
L 167.694054 236.675697 
L 168.506706 199.609852 
L 168.913032 233.713533 
L 169.319358 202.226696 
L 169.725684 223.810767 
L 170.13201 204.540952 
L 170.538337 198.936304 
L 170.944663 210.681696 
L 171.350989 236.746516 
L 171.757315 225.930315 
L 172.163641 228.68378 
L 172.569967 234.489489 
L 173.382619 199.564219 
L 173.788945 228.612659 
L 174.195271 220.738706 
L 174.601597 226.049011 
L 175.41425 199.309206 
L 175.820576 222.835287 
L 176.633228 231.111261 
L 177.039554 226.828119 
L 177.44588 213.483894 
L 177.852206 236.306476 
L 178.258532 223.338935 
L 178.664858 226.100215 
L 179.071184 205.067493 
L 179.477511 235.402622 
L 179.883837 194.254116 
L 180.290163 214.776509 
L 180.696489 210.030939 
L 181.102815 237.418022 
L 181.509141 204.235642 
L 181.915467 190.916578 
L 182.321793 210.530327 
L 182.728119 203.846126 
L 183.134445 215.292208 
L 183.540771 215.337715 
L 183.947098 206.887379 
L 184.353424 202.153305 
L 184.75975 241.652682 
L 185.166076 225.229791 
L 185.572402 195.61407 
L 185.978728 220.094025 
L 186.385054 215.050809 
L 186.79138 184.884723 
L 187.197706 206.734446 
L 187.604032 185.429491 
L 188.010358 202.285691 
L 188.416684 204.21338 
L 188.823011 222.698969 
L 189.229337 215.325765 
L 189.635663 203.217126 
L 190.041989 225.425406 
L 190.448315 198.998097 
L 190.854641 197.050389 
L 191.260967 214.806586 
L 191.667293 175.108215 
L 192.479945 206.692948 
L 192.886271 207.213766 
L 193.292598 203.703807 
L 193.698924 225.393438 
L 194.10525 216.677223 
L 194.511576 185.749071 
L 194.917902 185.614139 
L 195.324228 177.492988 
L 195.730554 206.772188 
L 196.543206 177.98514 
L 196.949532 198.614581 
L 197.355858 204.90977 
L 197.762185 208.479202 
L 198.168511 202.169037 
L 198.574837 178.318914 
L 198.981163 187.756857 
L 199.387489 172.024305 
L 199.793815 172.286756 
L 200.200141 164.650849 
L 200.606467 198.50418 
L 201.012793 175.072819 
L 201.419119 180.246781 
L 201.825445 178.186126 
L 202.231772 193.060986 
L 202.638098 177.497526 
L 203.044424 156.185058 
L 203.45075 177.57253 
L 203.857076 153.451889 
L 204.263402 185.433953 
L 204.669728 188.459928 
L 205.48238 172.597713 
L 205.888706 150.905914 
L 206.295032 164.107366 
L 206.701359 182.567567 
L 207.107685 212.647153 
L 207.514011 203.235909 
L 207.920337 228.737581 
L 208.326663 198.439412 
L 208.732989 191.638986 
L 209.139315 214.993403 
L 209.545641 197.070105 
L 209.951967 199.14334 
L 210.358293 196.523849 
L 210.764619 206.863176 
L 211.170946 176.667415 
L 211.577272 164.131645 
L 211.983598 183.674499 
L 212.389924 186.667926 
L 212.79625 180.148204 
L 213.202576 182.582769 
L 213.608902 172.069585 
L 214.015228 175.167387 
L 214.421554 185.765584 
L 214.82788 172.464925 
L 215.234206 142.963815 
L 215.640532 192.030746 
L 216.046859 159.624525 
L 216.453185 165.289227 
L 216.859511 165.202273 
L 217.265837 146.567383 
L 217.672163 167.200479 
L 218.078489 169.735941 
L 218.484815 146.290461 
L 218.891141 157.008917 
L 219.297467 153.690162 
L 219.703793 142.684397 
L 220.110119 144.19993 
L 220.516446 177.530024 
L 220.922772 140.918337 
L 221.329098 164.863129 
L 221.735424 170.063664 
L 222.14175 167.662478 
L 222.548076 172.546887 
L 222.954402 154.004271 
L 223.360728 140.851275 
L 223.767054 154.421268 
L 224.17338 140.346467 
L 224.579706 164.262215 
L 224.986033 157.127259 
L 225.392359 155.733622 
L 225.798685 130.558917 
L 226.205011 145.867968 
L 226.611337 149.220582 
L 227.017663 155.949609 
L 227.423989 137.698865 
L 227.830315 196.184276 
L 228.236641 130.282045 
L 228.642967 137.758843 
L 229.049293 135.212818 
L 229.45562 138.403902 
L 229.861946 122.30475 
L 230.268272 125.00691 
L 231.080924 145.84384 
L 231.48725 126.029207 
L 231.893576 146.045431 
L 232.299902 146.153184 
L 232.706228 138.136106 
L 233.112554 152.132349 
L 233.51888 151.571697 
L 233.925207 145.845605 
L 234.331533 146.792899 
L 234.737859 152.476308 
L 235.144185 148.52036 
L 235.550511 135.328891 
L 235.956837 141.836259 
L 236.363163 140.407655 
L 236.769489 164.620066 
L 237.175815 165.537383 
L 237.582141 130.509553 
L 237.988467 143.709165 
L 238.394793 138.350454 
L 238.80112 127.956494 
L 239.207446 127.899037 
L 239.613772 135.730736 
L 240.020098 130.578103 
L 240.426424 151.70499 
L 240.83275 142.690901 
L 241.239076 109.013066 
L 241.645402 116.941728 
L 242.051728 140.40052 
L 242.458054 136.204887 
L 242.86438 143.740301 
L 243.270707 131.241743 
L 243.677033 148.282213 
L 244.083359 137.950046 
L 244.489685 133.080688 
L 245.302337 112.640283 
L 245.708663 119.965711 
L 246.114989 149.076549 
L 246.521315 119.824729 
L 246.927641 109.263088 
L 247.333967 128.276931 
L 247.740294 111.821618 
L 248.14662 141.873774 
L 249.771924 96.189584 
L 250.17825 103.904301 
L 250.584576 122.018878 
L 250.990902 101.159005 
L 251.397228 106.587502 
L 251.803554 101.685924 
L 252.209881 98.398028 
L 252.616207 87.919105 
L 253.022533 93.233974 
L 253.428859 88.359549 
L 253.835185 111.659559 
L 254.241511 112.39785 
L 254.647837 101.37784 
L 255.054163 102.252374 
L 255.460489 119.725774 
L 255.866815 108.686327 
L 256.273141 115.031308 
L 256.679468 131.31531 
L 257.085794 96.307699 
L 257.49212 106.701255 
L 257.898446 86.023333 
L 258.304772 94.114382 
L 258.711098 90.374672 
L 259.117424 94.106541 
L 259.52375 85.799431 
L 259.930076 90.800039 
L 260.336402 133.25795 
L 260.742728 127.995471 
L 261.149054 146.844229 
L 261.555381 90.84968 
L 261.961707 95.559601 
L 262.368033 95.389827 
L 262.774359 95.714903 
L 263.180685 93.552167 
L 263.587011 101.469206 
L 263.993337 91.063322 
L 264.399663 87.986571 
L 264.805989 79.861084 
L 265.212315 84.788957 
L 265.618641 79.929609 
L 266.024968 78.142523 
L 266.431294 88.406064 
L 266.83762 87.553742 
L 267.243946 76.48283 
L 267.650272 93.199838 
L 268.056598 76.781812 
L 268.462924 88.56356 
L 268.86925 79.336056 
L 269.275576 92.939757 
L 269.681902 80.309948 
L 270.088228 83.606643 
L 270.494555 72.650519 
L 270.900881 90.178905 
L 271.307207 84.956386 
L 271.713533 82.641348 
L 272.119859 93.95139 
L 272.526185 77.686247 
L 272.932511 91.12509 
L 273.745163 79.600751 
L 274.151489 82.375645 
L 274.557815 90.909305 
L 274.964142 66.33806 
L 275.370468 61.692126 
L 276.18312 80.269811 
L 276.589446 69.014857 
L 276.995772 73.859078 
L 277.402098 61.606987 
L 278.21475 79.811266 
L 278.621076 71.085848 
L 279.027402 74.545509 
L 279.433729 79.162022 
L 279.840055 66.708769 
L 280.246381 68.722505 
L 281.059033 79.405514 
L 281.465359 95.229205 
L 281.871685 74.825961 
L 282.278011 67.573419 
L 282.684337 84.683573 
L 283.090663 68.510326 
L 283.903316 74.303303 
L 284.309642 74.448319 
L 284.715968 85.45416 
L 285.122294 85.365467 
L 285.52862 77.782252 
L 285.934946 87.657411 
L 287.153924 63.880855 
L 287.56025 90.974502 
L 287.966576 88.305243 
L 288.779229 72.786484 
L 289.185555 81.719846 
L 289.591881 74.430419 
L 290.404533 64.539377 
L 290.810859 87.720238 
L 291.217185 70.375945 
L 291.623511 67.334365 
L 292.029837 67.129572 
L 292.436163 74.573066 
L 292.842489 61.745801 
L 293.248816 66.628294 
L 293.655142 67.384031 
L 294.061468 72.779879 
L 294.467794 67.45969 
L 294.87412 72.069144 
L 295.280446 72.184435 
L 295.686772 64.32266 
L 296.093098 64.925313 
L 296.499424 66.615688 
L 296.90575 56.570503 
L 297.312076 80.625998 
L 297.718403 75.584825 
L 298.124729 76.59013 
L 298.531055 74.908705 
L 298.937381 64.364989 
L 299.343707 69.072364 
L 299.750033 58.929283 
L 300.156359 79.783836 
L 300.562685 71.788112 
L 300.969011 83.431852 
L 301.375337 69.184 
L 301.781663 75.006651 
L 302.18799 91.474696 
L 302.594316 72.311879 
L 303.000642 67.151683 
L 303.406968 67.174247 
L 303.813294 62.048943 
L 304.21962 59.419317 
L 304.625946 70.804489 
L 305.032272 72.716043 
L 305.438598 67.39883 
L 305.844924 74.201298 
L 306.25125 68.008316 
L 306.657577 65.226489 
L 307.063903 69.854598 
L 307.470229 63.781446 
L 307.876555 62.061624 
L 308.282881 61.511436 
L 308.689207 61.851487 
L 309.095533 61.97225 
L 309.501859 74.92179 
L 309.908185 66.825825 
L 310.314511 81.022599 
L 310.720837 64.765372 
L 311.127163 75.289473 
L 311.53349 77.401105 
L 311.939816 82.967786 
L 312.346142 67.808768 
L 312.752468 70.274822 
L 313.158794 60.195148 
L 313.56512 67.455959 
L 313.971446 81.020809 
L 314.377772 64.705722 
L 314.784098 67.408663 
L 315.190424 67.812877 
L 315.59675 78.035299 
L 316.003077 59.117536 
L 316.409403 62.276375 
L 316.815729 64.339627 
L 317.222055 69.332419 
L 317.628381 64.980652 
L 318.034707 79.962434 
L 318.441033 69.794847 
L 318.847359 72.173393 
L 319.253685 82.859805 
L 319.660011 59.002875 
L 320.066337 77.983338 
L 320.472664 78.054384 
L 320.87899 66.34938 
L 321.285316 77.331598 
L 321.691642 69.960285 
L 322.097968 58.939241 
L 322.504294 64.668459 
L 322.91062 59.275007 
L 323.316946 80.625091 
L 323.723272 62.34258 
L 324.129598 87.727473 
L 324.535924 70.376903 
L 324.942251 64.247378 
L 325.348577 56.317103 
L 325.754903 65.041412 
L 326.161229 61.332687 
L 326.567555 61.253195 
L 326.973881 67.177978 
L 327.380207 56.38172 
L 327.786533 57.033006 
L 328.192859 56.734982 
L 328.599185 80.481209 
L 329.005511 69.60672 
L 329.411838 67.530383 
L 329.818164 61.896994 
L 330.22449 77.591174 
L 330.630816 61.664973 
L 331.037142 70.151564 
L 331.849794 57.074353 
L 332.25612 64.678998 
L 332.662446 62.303351 
L 333.068772 59.133621 
L 333.881425 70.445453 
L 334.287751 59.026599 
L 334.694077 61.75107 
L 335.100403 56.67271 
L 335.506729 58.347378 
L 335.913055 56.562057 
L 336.725707 69.323873 
L 337.132033 67.024491 
L 337.538359 69.423685 
L 337.944685 62.158613 
L 338.351011 59.801043 
L 338.757338 53.972895 
L 339.163664 59.421132 
L 339.56999 57.504535 
L 339.976316 59.444907 
L 340.382642 59.014875 
L 340.788968 59.52228 
L 341.195294 59.368743 
L 341.60162 54.325704 
L 342.007946 57.301558 
L 342.414272 56.352979 
L 342.820598 53.770599 
L 343.633251 107.060493 
L 344.039577 61.502133 
L 344.445903 54.982638 
L 344.852229 54.173906 
L 345.258555 54.62877 
L 345.664881 53.921414 
L 346.071207 54.527622 
L 346.477533 57.756347 
L 346.883859 54.527698 
L 347.290185 54.224404 
L 347.696512 54.578272 
L 348.102838 56.594428 
L 348.509164 54.023394 
L 348.91549 64.778028 
L 349.321816 59.7214 
L 349.728142 74.830146 
L 350.134468 62.243827 
L 350.540794 64.764212 
L 350.94712 61.637165 
L 351.353446 67.026306 
L 351.759772 75.454709 
L 352.166099 64.313962 
L 352.572425 66.584426 
L 352.978751 59.067113 
L 353.791403 69.862742 
L 354.197729 62.249349 
L 354.604055 62.850716 
L 355.010381 61.93413 
L 355.416707 64.312146 
L 355.823033 61.788509 
L 356.229359 63.507348 
L 356.635686 64.408303 
L 357.042012 60.126371 
L 357.448338 64.718706 
L 357.854664 64.814333 
L 358.26099 69.479125 
L 358.667316 69.914601 
L 359.073642 57.048839 
L 359.479968 58.715439 
L 359.886294 56.719401 
L 360.29262 67.498012 
L 360.698946 67.252554 
L 361.105272 62.194388 
L 361.511599 65.241212 
L 361.917925 58.612098 
L 362.324251 64.372326 
L 362.730577 67.345937 
L 363.136903 66.502464 
L 363.543229 62.470654 
L 363.949555 64.577824 
L 364.355881 64.173206 
L 364.762207 79.008207 
L 365.168533 73.855221 
L 365.574859 55.249879 
L 365.981186 62.246021 
L 366.387512 54.779963 
L 366.793838 56.292497 
L 367.200164 54.173906 
L 367.60649 54.678891 
L 368.012816 59.709399 
L 368.419142 54.578045 
L 368.825468 56.948296 
L 369.231794 53.870915 
L 369.63812 57.605003 
L 370.044446 59.396299 
L 370.450773 57.093236 
L 370.857099 62.798176 
L 371.263425 61.644653 
L 371.669751 64.90406 
L 372.076077 57.226227 
L 372.482403 57.606289 
L 372.888729 54.325779 
L 373.295055 57.553672 
L 373.701381 62.223381 
L 374.107707 54.47735 
L 374.514033 65.500865 
L 374.92036 54.881036 
L 375.326686 54.880884 
L 376.139338 53.769918 
L 376.545664 56.700871 
L 376.95199 66.755435 
L 377.358316 67.420789 
L 377.764642 67.506533 
L 378.170968 72.690176 
L 378.577294 61.842638 
L 378.98362 69.379187 
L 379.389947 59.307 
L 379.796273 58.977134 
L 380.202599 59.19196 
L 380.608925 66.806791 
L 381.015251 67.593261 
L 381.421577 56.001683 
L 381.827903 57.894934 
L 382.234229 56.8713 
L 382.640555 54.376127 
L 383.046881 54.426398 
L 383.453207 54.880884 
L 383.859534 53.668921 
L 384.26586 53.568 
L 384.672186 54.274903 
L 385.078512 53.618423 
L 385.484838 54.527471 
L 385.891164 54.3759 
L 386.29749 54.729389 
L 386.703816 56.508306 
L 387.110142 53.820492 
L 387.516468 70.922176 
L 387.922794 67.085477 
L 388.32912 57.048839 
L 388.735447 53.820492 
L 389.141773 53.921565 
L 389.548099 59.257107 
L 389.954425 58.842858 
L 390.360751 58.941132 
L 390.767077 55.183875 
L 391.173403 56.594126 
L 391.579729 59.260939 
L 391.986055 59.165993 
L 392.392381 54.173906 
L 392.798707 54.476972 
L 393.205034 57.402555 
L 393.61136 53.820492 
L 394.424012 54.426474 
L 395.236664 53.720025 
L 395.64299 53.618423 
L 396.049316 56.544535 
L 396.455642 53.618423 
L 396.861968 53.820417 
L 397.268294 54.779887 
L 397.674621 54.830462 
L 398.080947 54.072985 
L 398.487273 53.618423 
L 398.487273 53.618423 
" clip-path="url(#p6f90828a0d)" style="fill: none; stroke: #000000; stroke-width: 0.7; stroke-linecap: square"/>
   </g>
   <g id="patch_3">
    <path d="M 57.6 307.584 
L 57.6 41.472 
" style="fill: none; stroke: #000000; stroke-width: 0.8; stroke-linejoin: miter; stroke-linecap: square"/>
   </g>
   <g id="patch_4">
    <path d="M 414.72 307.584 
L 414.72 41.472 
" style="fill: none; stroke: #000000; stroke-width: 0.8; stroke-linejoin: miter; stroke-linecap: square"/>
   </g>
   <g id="patch_5">
    <path d="M 57.6 307.584 
L 414.72 307.584 
" style="fill: none; stroke: #000000; stroke-width: 0.8; stroke-linejoin: miter; stroke-linecap: square"/>
   </g>
   <g id="patch_6">
    <path d="M 57.6 41.472 
L 414.72 41.472 
" style="fill: none; stroke: #000000; stroke-width: 0.8; stroke-linejoin: miter; stroke-linecap: square"/>
   </g>
   <g id="legend_1">
    <g id="patch_7">
     <path d="M 336.154375 302.584 
L 407.72 302.584 
Q 409.72 302.584 409.72 300.584 
L 409.72 257.549625 
Q 409.72 255.549625 407.72 255.549625 
L 336.154375 255.549625 
Q 334.154375 255.549625 334.154375 257.549625 
L 334.154375 300.584 
Q 334.154375 302.584 336.154375 302.584 
z
" style="fill: #ffffff; opacity: 0.8; stroke: #cccccc; stroke-linejoin: miter"/>
    </g>
    <g id="line2d_132">
     <path d="M 338.154375 263.648062 
L 348.154375 263.648062 
L 358.154375 263.648062 
" style="fill: none; stroke-dasharray: 7.4,3.2; stroke-dashoffset: 0; stroke: #4682b4; stroke-width: 2"/>
    </g>
    <g id="text_17">
     <!-- Optimal -->
     <g transform="translate(366.154375 267.148062) scale(0.1 -0.1)">
      <defs>
       <path id="DejaVuSans-4f" d="M 2522 4238 
Q 1834 4238 1429 3725 
Q 1025 3213 1025 2328 
Q 1025 1447 1429 934 
Q 1834 422 2522 422 
Q 3209 422 3611 934 
Q 4013 1447 4013 2328 
Q 4013 3213 3611 3725 
Q 3209 4238 2522 4238 
z
M 2522 4750 
Q 3503 4750 4090 4092 
Q 4678 3434 4678 2328 
Q 4678 1225 4090 567 
Q 3503 -91 2522 -91 
Q 1538 -91 948 565 
Q 359 1222 359 2328 
Q 359 3434 948 4092 
Q 1538 4750 2522 4750 
z
" transform="scale(0.015625)"/>
       <path id="DejaVuSans-6d" d="M 3328 2828 
Q 3544 3216 3844 3400 
Q 4144 3584 4550 3584 
Q 5097 3584 5394 3201 
Q 5691 2819 5691 2113 
L 5691 0 
L 5113 0 
L 5113 2094 
Q 5113 2597 4934 2840 
Q 4756 3084 4391 3084 
Q 3944 3084 3684 2787 
Q 3425 2491 3425 1978 
L 3425 0 
L 2847 0 
L 2847 2094 
Q 2847 2600 2669 2842 
Q 2491 3084 2119 3084 
Q 1678 3084 1418 2786 
Q 1159 2488 1159 1978 
L 1159 0 
L 581 0 
L 581 3500 
L 1159 3500 
L 1159 2956 
Q 1356 3278 1631 3431 
Q 1906 3584 2284 3584 
Q 2666 3584 2933 3390 
Q 3200 3197 3328 2828 
z
" transform="scale(0.015625)"/>
      </defs>
      <use xlink:href="#DejaVuSans-4f"/>
      <use xlink:href="#DejaVuSans-70" x="78.710938"/>
      <use xlink:href="#DejaVuSans-74" x="142.1875"/>
      <use xlink:href="#DejaVuSans-69" x="181.396484"/>
      <use xlink:href="#DejaVuSans-6d" x="209.179688"/>
      <use xlink:href="#DejaVuSans-61" x="306.591797"/>
      <use xlink:href="#DejaVuSans-6c" x="367.871094"/>
     </g>
    </g>
    <g id="line2d_133">
     <path d="M 338.154375 278.326188 
L 348.154375 278.326188 
L 358.154375 278.326188 
" style="fill: none; stroke-dasharray: 2,3.3; stroke-dashoffset: 0; stroke: #0000ff; stroke-width: 2"/>
    </g>
    <g id="text_18">
     <!-- Human -->
     <g transform="translate(366.154375 281.826188) scale(0.1 -0.1)">
      <defs>
       <path id="DejaVuSans-48" d="M 628 4666 
L 1259 4666 
L 1259 2753 
L 3553 2753 
L 3553 4666 
L 4184 4666 
L 4184 0 
L 3553 0 
L 3553 2222 
L 1259 2222 
L 1259 0 
L 628 0 
L 628 4666 
z
" transform="scale(0.015625)"/>
       <path id="DejaVuSans-75" d="M 544 1381 
L 544 3500 
L 1119 3500 
L 1119 1403 
Q 1119 906 1312 657 
Q 1506 409 1894 409 
Q 2359 409 2629 706 
Q 2900 1003 2900 1516 
L 2900 3500 
L 3475 3500 
L 3475 0 
L 2900 0 
L 2900 538 
Q 2691 219 2414 64 
Q 2138 -91 1772 -91 
Q 1169 -91 856 284 
Q 544 659 544 1381 
z
M 1991 3584 
L 1991 3584 
z
" transform="scale(0.015625)"/>
       <path id="DejaVuSans-6e" d="M 3513 2113 
L 3513 0 
L 2938 0 
L 2938 2094 
Q 2938 2591 2744 2837 
Q 2550 3084 2163 3084 
Q 1697 3084 1428 2787 
Q 1159 2491 1159 1978 
L 1159 0 
L 581 0 
L 581 3500 
L 1159 3500 
L 1159 2956 
Q 1366 3272 1645 3428 
Q 1925 3584 2291 3584 
Q 2894 3584 3203 3211 
Q 3513 2838 3513 2113 
z
" transform="scale(0.015625)"/>
      </defs>
      <use xlink:href="#DejaVuSans-48"/>
      <use xlink:href="#DejaVuSans-75" x="75.195312"/>
      <use xlink:href="#DejaVuSans-6d" x="138.574219"/>
      <use xlink:href="#DejaVuSans-61" x="235.986328"/>
      <use xlink:href="#DejaVuSans-6e" x="297.265625"/>
     </g>
    </g>
    <g id="line2d_134">
     <path d="M 338.154375 293.004312 
L 348.154375 293.004312 
L 358.154375 293.004312 
" style="fill: none; stroke: #000000; stroke-width: 0.7; stroke-linecap: square"/>
    </g>
    <g id="text_19">
     <!-- Agent -->
     <g transform="translate(366.154375 296.504312) scale(0.1 -0.1)">
      <use xlink:href="#DejaVuSans-41"/>
      <use xlink:href="#DejaVuSans-67" x="68.408203"/>
      <use xlink:href="#DejaVuSans-65" x="131.884766"/>
      <use xlink:href="#DejaVuSans-6e" x="193.408203"/>
      <use xlink:href="#DejaVuSans-74" x="256.787109"/>
     </g>
    </g>
   </g>
  </g>
 </g>
 <defs>
  <clipPath id="p6f90828a0d">
   <rect x="57.6" y="41.472" width="357.12" height="266.112"/>
  </clipPath>
 </defs>
</svg>
